<svg width="34" height="33" viewBox="0 0 34 33" fill="none" xmlns="http://www.w3.org/2000/svg">
<path d="M16.899 7.89795C12.208 7.89795 8.321 11.6175 8.321 16.2507C8.321 20.8839 12.141 24.6035 16.899 24.6035C21.658 24.6035 25.478 20.8186 25.478 16.2507C25.478 11.6828 21.591 7.89795 16.899 7.89795ZM16.899 21.6017C13.883 21.6017 11.404 19.1873 11.404 16.2507C11.404 13.3142 13.883 10.8997 16.899 10.8997C19.915 10.8997 22.395 13.3142 22.395 16.2507C22.395 19.1873 19.915 21.6017 16.899 21.6017Z" fill="#2F2E41"/>
<path d="M25.813 9.59437C26.886 9.59437 27.757 8.74707 27.757 7.70197C27.757 6.65677 26.886 5.80957 25.813 5.80957C24.74 5.80957 23.869 6.65677 23.869 7.70197C23.869 8.74707 24.74 9.59437 25.813 9.59437Z" fill="#2F2E41"/>
<path d="M30.839 2.80782C29.097 1.04592 26.617 0.132324 23.802 0.132324H9.996C4.166 0.132324 0.279007 3.91722 0.279007 9.59442V22.9718C0.279007 25.7778 1.217 28.1923 3.093 29.9542C4.903 31.6508 7.316 32.4992 10.063 32.4992H23.735C26.617 32.4992 29.03 31.5856 30.772 29.9542C32.582 28.2575 33.52 25.8431 33.52 23.0371V9.59442C33.52 6.85372 32.582 4.50452 30.839 2.80782ZM30.571 23.0371C30.571 25.06 29.834 26.6914 28.628 27.8008C27.421 28.9101 25.746 29.4974 23.735 29.4974H10.063C8.053 29.4974 6.37701 28.9101 5.17101 27.8008C3.96501 26.6262 3.36099 24.9948 3.36099 22.9718V9.59442C3.36099 7.63672 3.96501 6.00532 5.17101 4.83072C6.31001 3.72142 8.053 3.13412 10.063 3.13412H23.869C25.88 3.13412 27.555 3.72142 28.762 4.89602C29.901 6.07062 30.571 7.70202 30.571 9.59442V23.0371Z" fill="#2F2E41"/>
</svg>
