<svg width="25" height="25" viewBox="0 0 25 25" fill="none" xmlns="http://www.w3.org/2000/svg">
<path fill-rule="evenodd" clip-rule="evenodd" d="M5.3301 24.7103V8.54634H0.334199V24.7103H5.3301ZM5.3301 2.81694C5.3003 1.37044 4.3363 0.269043 2.7701 0.269043C1.2036 0.269043 0.180099 1.37044 0.180099 2.81694C0.180099 4.23204 1.1739 5.36524 2.7102 5.36524H2.74C4.3363 5.36524 5.3301 4.23204 5.3301 2.81694ZM13.4805 24.7103V15.5008C13.4805 15.0079 13.5162 14.5151 13.6611 14.1637C14.0574 13.1785 14.9592 12.1585 16.4734 12.1585C18.4571 12.1585 19.7012 13.2843 19.7012 15.5008V24.7103H24.7308V15.2544C24.7308 10.189 22.0268 7.83204 18.42 7.83204C15.4628 7.83204 14.1647 9.48534 13.4439 10.6106L13.4801 8.44884H8.4592C8.5314 9.99624 8.4592 24.7103 8.4592 24.7103H13.4805Z" fill="#2F2E41"/>
</svg>
