<svg width="33" height="26" viewBox="0 0 33 26" fill="none" xmlns="http://www.w3.org/2000/svg">
<path d="M28.167 0.25H4.83301C2.41731 0.25 0.458405 2.1529 0.458405 4.5V21.5C0.458405 23.8471 2.41731 25.75 4.83301 25.75H28.167C30.583 25.75 32.542 23.8471 32.542 21.5V4.5C32.542 2.1529 30.583 0.25 28.167 0.25ZM28.167 3.0833C28.334 3.0833 28.492 3.1163 28.642 3.1666L16.5 12.6023L4.35801 3.1666C4.50801 3.1163 4.66601 3.0833 4.83301 3.0833H28.167ZM28.167 22.9167H4.83301C4.02801 22.9167 3.37501 22.2827 3.37501 21.5V6.0311L15.589 15.5227C15.855 15.7299 16.178 15.8333 16.5 15.8333C16.822 15.8333 17.145 15.7299 17.411 15.5227L29.625 6.0311V21.5C29.625 22.2827 28.972 22.9167 28.167 22.9167Z" fill="#2F2E41"/>
</svg>
