<svg width="27" height="25" viewBox="0 0 27 25" fill="none" xmlns="http://www.w3.org/2000/svg">
<path fill-rule="evenodd" clip-rule="evenodd" d="M22.526 2.67141C21.539 1.50311 20.132 0.758709 18.575 0.731709C15.585 0.679909 13.162 3.30911 13.162 6.60381C13.162 7.07141 13.209 7.52741 13.302 7.96521C8.803 7.66141 4.81399 5.22311 2.14499 1.54771C1.67899 2.42841 1.41199 3.45781 1.41199 4.56051C1.41199 6.64791 2.36701 8.50051 3.82001 9.59441C2.93201 9.55361 2.09801 9.27401 1.36801 8.81541C1.36701 8.84051 1.367 8.86551 1.367 8.89111C1.367 11.8062 3.23299 14.2518 5.70999 14.8215C5.25499 14.9554 4.777 15.0256 4.284 15.0221C3.935 15.0197 3.59601 14.9795 3.26501 14.9072C3.95401 17.2979 5.95299 19.0424 8.32199 19.1001C6.46899 20.7007 4.135 21.654 1.599 21.6486C1.162 21.6476 0.731014 21.6182 0.308014 21.5617C2.70301 23.2725 5.54901 24.2686 8.60501 24.2694C18.562 24.2721 24.007 15.2538 24.007 7.43141C24.007 7.17481 24.002 6.91951 23.991 6.66551C25.049 5.84531 25.967 4.81691 26.692 3.64251C25.722 4.09801 24.678 4.40041 23.583 4.52731C24.701 3.81151 25.559 2.66581 25.963 1.29191C24.917 1.95211 23.759 2.42561 22.526 2.67141Z" fill="#2F2E41"/>
</svg>
