<svg width="500" height="305" viewBox="0 0 500 305" fill="none" xmlns="http://www.w3.org/2000/svg">
<path d="M500 305H0V0H500V305ZM1.02145 304.047H498.979V0.953125H1.02145V304.047Z" fill="#3F3D56"/>
<path d="M251.277 7.625H10.2145V297.375H251.277V7.625Z" fill="#3F3D56"/>
<path d="M490.807 7.625H249.745V297.375H490.807V7.625Z" fill="#EBB268"/>
<path d="M318.122 277.212C317.533 276.199 317.009 275.155 316.552 274.085C314.541 269.394 318.438 265.662 318.605 265.505L318.757 265.363L318.754 265.161C318.71 262.56 317.633 201.319 314.407 189.28C311.495 178.409 302.484 175.442 300.383 174.891L300.388 174.837L290.025 173.597C293.904 149.766 297.79 94.662 253.888 83.3147C252.365 82.9572 250.814 82.7183 249.249 82.6006L249.154 83.5495C250.658 83.6647 252.149 83.8931 253.613 84.2327C296.744 95.381 292.851 149.911 289.012 173.476L273.319 171.6C269.232 169.46 264.617 165.621 264.075 155.318C269.709 150.904 273.321 144.647 274.171 137.829C274.244 137.837 274.318 137.841 274.391 137.841C276.663 137.841 278.511 135.361 278.511 132.313C278.511 129.264 276.663 126.785 274.391 126.785C273.934 126.767 273.487 126.915 273.146 127.199C271.571 122.319 268.542 117.958 264.411 114.624C260.281 111.289 255.22 109.12 249.818 108.368L249.672 109.311C256.246 110.203 262.255 113.274 266.601 117.961C270.947 122.649 273.339 128.64 273.339 134.838C273.339 141.037 270.947 147.028 266.601 151.715C262.255 156.403 256.246 159.474 249.672 160.366L249.818 161.31C254.656 160.655 259.23 158.845 263.096 156.054C263.796 165.678 268.198 169.778 271.964 171.961C267.659 177.455 260.685 180.781 251.216 181.84C250.71 181.897 250.205 181.945 249.699 181.987L249.79 182.936C250.306 182.893 250.822 182.845 251.338 182.787C261.115 181.693 268.339 178.233 272.816 172.5L272.993 172.521C273.026 172.539 273.06 172.557 273.093 172.573L273.115 172.536L299.286 175.666L291.749 257.046L291.746 257.072L291.747 257.099C291.747 257.102 291.767 257.85 291.767 259.167V259.277L291.768 259.278C291.807 266.459 291.431 273.637 290.642 280.781C289.797 287.864 288.514 293.283 286.828 296.898H273.606C273.669 295.778 273.913 294.673 274.328 293.619L275.511 290.457L273.43 293.186C272.264 294.597 270.89 295.847 269.348 296.898H249.745V297.852H269.681L269.815 297.76C270.871 297.041 271.859 296.238 272.767 295.36C272.633 296.028 272.57 296.706 272.579 297.384L272.589 297.852H308.882L309.001 297.786C311.175 296.6 311.175 294.407 311.175 290.427C311.175 287.93 312.972 286.253 314.875 284.478C315.876 283.602 316.784 282.638 317.585 281.598C319.21 279.324 319.142 279.007 318.122 277.212ZM273.483 128.227C273.869 127.841 273.974 127.738 274.391 127.738C276.07 127.738 277.489 129.833 277.489 132.313C277.489 134.776 276.09 136.86 274.425 136.888C274.39 136.804 274.343 136.724 274.286 136.651C274.33 136.051 274.36 135.447 274.36 134.838C274.358 132.616 274.056 130.402 273.46 128.25L273.483 128.227ZM294.968 265.233L291.918 278.517C292.606 271.723 292.763 265.085 292.787 261.175L294.968 265.233ZM316.735 281.07C315.97 282.056 315.105 282.971 314.152 283.803C312.186 285.638 310.153 287.535 310.153 290.427C310.153 294.332 310.093 296.006 308.6 296.898H287.937C289.569 293.223 290.814 287.882 291.642 281.005L292.736 279.504L296.043 265.105L292.789 259.052C292.788 257.938 292.772 257.243 292.769 257.101L300.293 175.856C302.502 176.465 310.701 179.376 313.417 189.511C316.526 201.117 317.66 261.128 317.729 264.986C316.954 265.799 313.58 269.72 315.603 274.439C316.074 275.541 316.614 276.616 317.22 277.659C318.085 279.181 318.085 279.181 316.735 281.07Z" fill="#3F3D56"/>
<path d="M249.934 83.2746V189.715L227.64 192.141L207.773 194.309L200.822 195.062V195.067L200.495 195.1C200.495 195.1 199.346 191.816 198.442 185.268C196.879 173.95 196.047 152.881 203.172 122.186C212.676 81.2158 241.323 82.045 249.934 83.2746Z" fill="#2F2E41"/>
<path d="M248.401 277.764L249.934 277.836V297.337H179.234L180.741 292.028L182.64 285.337L191.466 277.102L193.468 275.234L248.401 277.764Z" fill="#2F2E41"/>
<path d="M249.934 109.047V160.554C246.078 161.281 242.102 161.246 238.262 160.451C234.421 159.657 230.802 158.12 227.637 155.94C224.472 153.76 221.832 150.986 219.887 147.796C217.941 144.606 216.734 141.071 216.343 137.418C215.951 133.766 216.384 130.078 217.614 126.591C218.843 123.105 220.842 119.897 223.481 117.176C226.121 114.454 229.342 112.279 232.937 110.79C236.533 109.302 240.423 108.532 244.356 108.532C246.132 108.53 247.904 108.686 249.648 108.999C249.745 109.014 249.836 109.028 249.934 109.047Z" fill="#FFB9B9"/>
<path d="M249.934 152.295V208.105L227.64 192.14L214.581 182.79L225.015 178.363C225.485 178.167 225.975 177.958 226.491 177.739C234.27 174.441 235.582 165.534 235.557 159.758C235.558 157.999 235.423 156.242 235.153 154.501L249.934 152.295Z" fill="#FFB9B9"/>
<path d="M248.401 182.423C248.912 182.38 249.423 182.333 249.934 182.276V297.337H241.752C236.547 295.864 232.446 294.43 232.446 294.43C232.446 294.43 207.543 291.399 199.964 292.409C199.54 292.466 199.04 292.533 198.473 292.609C193.902 293.219 185.235 294.215 180.74 292.028C176.261 289.85 175.919 284.513 187.87 272.489C188.917 271.436 190.061 270.33 191.302 269.172C191.302 269.172 207.543 259.069 205.378 256.038C203.212 253.007 199.964 239.873 199.964 239.873L200.015 237.276L200.822 195.067V195.062L201.047 183.295L225.015 178.363L229.198 181.275C235.507 182.512 241.974 182.899 248.401 182.423Z" fill="#575A89"/>
<path d="M204.562 297.337H191.635L196.717 295.441C196.717 295.441 198.688 295.779 201.508 296.499C202.447 296.737 203.479 297.013 204.562 297.337Z" fill="#FFB9B9"/>
<path d="M205.379 232.801C203.709 233.388 201.881 235.017 200.016 237.276C192.192 246.736 183.724 267.152 183.724 267.152C183.724 267.152 186.579 269.816 187.871 272.49C188.53 273.853 188.786 275.22 188.055 276.245C185.89 279.276 188.055 276.245 190.221 276.245C191.063 276.245 191.416 276.55 191.467 277.103C191.544 277.97 190.88 279.447 190.221 281.296C189.138 284.327 190.221 285.338 195.634 286.348C201.048 287.358 197.8 287.358 197.8 290.389C197.828 291.17 198.059 291.932 198.474 292.61C199.424 294.093 200.664 295.396 202.131 296.451C201.916 296.465 201.712 296.48 201.508 296.499C200.06 296.604 198.633 296.886 197.264 297.338H169.547C170.062 296.778 170.463 296.135 170.731 295.441C171.814 292.41 163.152 287.358 162.07 286.348C160.987 285.338 160.987 281.296 162.07 277.255C163.152 273.214 160.987 273.214 158.821 271.193C156.656 269.173 158.821 266.142 160.987 263.111C163.152 260.08 163.152 261.09 159.904 255.028C156.656 248.966 163.152 247.956 163.152 247.956C163.152 247.956 177.228 220.678 184.807 204.513C189.817 193.823 195.308 187.99 198.443 185.269C199.25 184.544 200.122 183.884 201.048 183.296L206.462 185.317C206.462 185.317 207.09 188.991 207.774 194.305C209.48 207.458 211.549 230.643 205.379 232.801Z" fill="#575A89"/>
<path d="M249.934 100.417V108.561C249.842 108.709 249.745 108.852 249.648 108.999C243.999 117.649 233.922 129.539 218.437 136.025L217.048 128.415L214.152 112.555L249.934 100.417Z" fill="#2F2E41"/>
<path d="M130.844 256.839C130.859 286.877 111.727 297.373 88.1222 297.384C87.5738 297.384 87.0282 297.378 86.4852 297.367C85.3912 297.346 84.3085 297.3 83.2373 297.229C61.9321 295.831 45.3729 284.813 45.3583 256.878C45.3433 227.968 84.9216 191.467 87.8899 188.768C87.8924 188.768 87.8925 188.768 87.8951 188.765C88.0078 188.663 88.0656 188.611 88.0656 188.611C88.0656 188.611 130.828 226.803 130.844 256.839Z" fill="#EBB268"/>
<path d="M86.5641 292.789L102.186 272.401L86.5259 295.027L86.4851 297.367C85.3911 297.346 84.3085 297.3 83.2373 297.229L84.9059 267.178L84.8927 266.945L84.9215 266.901L85.08 264.062L69.3568 241.394L85.1261 261.934L85.1658 262.536L86.4263 239.832L72.9641 216.406L86.5895 235.841L87.8898 188.768L87.895 188.611L87.895 188.765L87.694 225.888L101.073 211.165L87.638 229.085L87.2944 249.415L99.7899 229.899L87.2461 252.404L87.0553 263.708L105.19 236.543L86.9865 267.652L86.5641 292.789Z" fill="#3F3D56"/>
<path d="M421.91 210.699C415.368 202.589 408.203 194.932 400.472 187.79L400.12 187.477L399.586 187.95C395.216 191.924 356.886 227.608 356.901 256.402C356.917 287.765 377.372 295.925 394.754 297.192L394.754 297.194L395.254 297.227C396.328 297.299 397.429 297.346 398.526 297.367L398.53 297.367L399.04 297.377L399.041 297.372C399.394 297.377 399.747 297.383 400.102 297.383H400.175C413.115 297.377 423.396 294.305 430.732 288.252C439.15 281.306 443.415 270.577 443.408 256.363C443.399 240.716 431.713 222.894 421.91 210.699ZM408.256 250.43L398.531 267.05L398.081 293.832L402.088 288.602L398.071 294.406L398.036 296.398C397.917 296.395 397.799 296.391 397.681 296.387C397.166 296.371 396.654 296.349 396.145 296.321C396.039 296.316 395.932 296.31 395.827 296.304L397.469 266.726L397.47 266.701L397.464 266.591L397.652 263.456L393.599 257.612L396.678 261.624L396.709 262.089L397.729 262.085L398.99 239.38L398.997 239.247L391.007 225.344L399.041 236.805L398.807 250.712L403.395 243.546L398.791 251.807L398.569 264.942L408.256 250.43ZM357.922 256.401C357.916 244.425 364.661 229.756 377.971 212.799C384.502 204.548 391.664 196.749 399.401 189.462L398.174 233.826L385.444 215.669L384.567 216.155L397.962 239.463L396.813 260.163L381.825 240.64L380.981 241.176L396.615 263.714L396.471 266.279L396.427 266.347L396.448 266.702L394.807 296.24C377.861 294.996 357.938 287.019 357.922 256.401ZM406.406 218.821L399.35 228.231L399.397 226.533L406.406 218.821ZM400.175 296.43C399.8 296.429 399.429 296.424 399.057 296.419L399.087 294.695L414.668 272.183L413.824 271.647L399.153 290.793L399.548 267.3L417.691 236.295L416.809 235.815L399.648 261.522L399.808 252.047L412.296 229.643L411.405 229.179L399.888 247.165L400.199 228.762L413.545 210.962L412.737 210.38L400.265 224.104L400.454 189.11C405.935 194.183 442.372 228.955 442.386 256.363C442.403 289.463 419.441 296.421 400.175 296.43Z" fill="#3F3D56"/>
</svg>
