<svg width="427" height="356" viewBox="0 0 427 356" fill="none" xmlns="http://www.w3.org/2000/svg">
<g clip-path="url(#clip0)">
<path d="M336.67 356L49.5886 261.148L131.22 41.646L427 127.64L336.67 356Z" fill="#EBB268"/>
<path d="M389.24 354.723H44.6125V355.726H389.24V354.723Z" fill="#2F2E41"/>
<path d="M335.836 355.485L334.667 354.916C349.848 327.252 341.73 291.326 332.247 266.059C325.808 249.076 317.595 232.738 307.729 217.286L308.841 216.624C318.758 232.155 327.014 248.576 333.487 265.645C343.057 291.143 351.232 327.427 335.836 355.485Z" fill="#2F2E41"/>
<path d="M347.094 216.845L338.56 260.863L339.854 261.086L348.387 217.067L347.094 216.845Z" fill="#2F2E41"/>
<path d="M290.351 254.348L289.387 255.193L333.454 299.829L334.417 298.984L290.351 254.348Z" fill="#2F2E41"/>
<path d="M369.571 303.379L347.22 332.523L348.286 333.249L370.638 304.105L369.571 303.379Z" fill="#2F2E41"/>
<path d="M279.346 252.911C282.978 252.911 285.923 250.135 285.923 246.712C285.923 243.288 282.978 240.512 279.346 240.512C275.713 240.512 272.769 243.288 272.769 246.712C272.769 250.135 275.713 252.911 279.346 252.911Z" fill="#3F3D56"/>
<path d="M308.285 259.11C311.917 259.11 314.862 256.335 314.862 252.911C314.862 249.487 311.917 246.712 308.285 246.712C304.653 246.712 301.708 249.487 301.708 252.911C301.708 256.335 304.653 259.11 308.285 259.11Z" fill="#3F3D56"/>
<path d="M295.131 283.288C298.763 283.288 301.708 280.512 301.708 277.088C301.708 273.664 298.763 270.889 295.131 270.889C291.498 270.889 288.554 273.664 288.554 277.088C288.554 280.512 291.498 283.288 295.131 283.288Z" fill="#F2F2F2"/>
<path d="M377.344 298.786C380.977 298.786 383.922 296.011 383.922 292.587C383.922 289.163 380.977 286.387 377.344 286.387C373.712 286.387 370.767 289.163 370.767 292.587C370.767 296.011 373.712 298.786 377.344 298.786Z" fill="#3F3D56"/>
<path d="M355.64 305.605C359.273 305.605 362.217 302.83 362.217 299.406C362.217 295.982 359.273 293.207 355.64 293.207C352.008 293.207 349.063 295.982 349.063 299.406C349.063 302.83 352.008 305.605 355.64 305.605Z" fill="#F2F2F2"/>
<path d="M370.767 325.443C374.4 325.443 377.345 322.668 377.345 319.244C377.345 315.82 374.4 313.045 370.767 313.045C367.135 313.045 364.19 315.82 364.19 319.244C364.19 322.668 367.135 325.443 370.767 325.443Z" fill="#3F3D56"/>
<path d="M301.708 212.615C305.34 212.615 308.285 209.839 308.285 206.416C308.285 202.992 305.34 200.216 301.708 200.216C298.075 200.216 295.131 202.992 295.131 206.416C295.131 209.839 298.075 212.615 301.708 212.615Z" fill="#3F3D56"/>
<path d="M343.544 278.029L342.617 277.149C366.076 255.214 370.052 218.674 369.257 191.884C368.66 173.858 366.166 155.932 361.81 138.371L363.084 138.062C367.463 155.713 369.971 173.73 370.572 191.848C371.374 218.884 367.336 255.782 343.544 278.029Z" fill="#2F2E41"/>
<path d="M399.416 149.339L376.958 188.762L378.116 189.349L400.575 149.926L399.416 149.339Z" fill="#2F2E41"/>
<path d="M333.199 168.614L332.007 169.14L359.406 224.372L360.598 223.846L333.199 168.614Z" fill="#2F2E41"/>
<path d="M392.623 238.202L361.857 259.47L362.636 260.47L393.401 239.202L392.623 238.202Z" fill="#2F2E41"/>
<path d="M408.989 139.678C412.621 139.678 415.566 136.902 415.566 133.478C415.566 130.055 412.621 127.279 408.989 127.279C405.357 127.279 402.412 130.055 402.412 133.478C402.412 136.902 405.357 139.678 408.989 139.678Z" fill="#F2F2F2"/>
<path d="M325.212 164.361C328.845 164.361 331.79 161.586 331.79 158.162C331.79 154.738 328.845 151.962 325.212 151.962C321.58 151.962 318.635 154.738 318.635 158.162C318.635 161.586 321.58 164.361 325.212 164.361Z" fill="#3F3D56"/>
<path d="M350.735 178.636C354.367 178.636 357.312 175.86 357.312 172.436C357.312 169.013 354.367 166.237 350.735 166.237C347.102 166.237 344.158 169.013 344.158 172.436C344.158 175.86 347.102 178.636 350.735 178.636Z" fill="#3F3D56"/>
<path d="M330.341 197.839C333.973 197.839 336.918 195.063 336.918 191.64C336.918 188.216 333.973 185.44 330.341 185.44C326.708 185.44 323.764 188.216 323.764 191.64C323.764 195.063 326.708 197.839 330.341 197.839Z" fill="#F2F2F2"/>
<path d="M403.536 236.38C407.168 236.38 410.113 233.605 410.113 230.181C410.113 226.757 407.168 223.981 403.536 223.981C399.903 223.981 396.958 226.757 396.958 230.181C396.958 233.605 399.903 236.38 403.536 236.38Z" fill="#3F3D56"/>
<path d="M380.658 236.589C384.291 236.589 387.235 233.814 387.235 230.39C387.235 226.966 384.291 224.19 380.658 224.19C377.026 224.19 374.081 226.966 374.081 230.39C374.081 233.814 377.026 236.589 380.658 236.589Z" fill="#3F3D56"/>
<path d="M388.593 259.846C392.226 259.846 395.17 257.071 395.17 253.647C395.17 250.223 392.226 247.448 388.593 247.448C384.961 247.448 382.016 250.223 382.016 253.647C382.016 257.071 384.961 259.846 388.593 259.846Z" fill="#3F3D56"/>
<path d="M359.62 132.483C363.252 132.483 366.197 129.707 366.197 126.283C366.197 122.86 363.252 120.084 359.62 120.084C355.987 120.084 353.043 122.86 353.043 126.283C353.043 129.707 355.987 132.483 359.62 132.483Z" fill="#3F3D56"/>
<path d="M151.297 54.6624C148.834 52.563 147.298 49.6679 146.993 46.5512C146.689 43.4345 147.638 40.3237 149.652 37.8354C149.385 38.0711 149.125 38.3157 148.875 38.5758C146.52 41.0313 145.296 44.2682 145.472 47.5744C145.649 50.8806 147.211 53.9853 149.817 56.2055C152.422 58.4257 155.856 59.5795 159.363 59.4131C162.871 59.2466 166.165 57.7737 168.52 55.3181C168.77 55.0581 169.002 54.7891 169.224 54.5154C166.8 56.6543 163.611 57.8565 160.291 57.8837C156.97 57.911 153.76 56.7612 151.297 54.6624Z" fill="#2F2E41"/>
<path d="M150.055 57.6543C165.118 57.6543 177.328 46.145 177.328 31.9476C177.328 17.7502 165.118 6.24097 150.055 6.24097C134.993 6.24097 122.782 17.7502 122.782 31.9476C122.782 46.145 134.993 57.6543 150.055 57.6543Z" fill="#2F2E41"/>
<path d="M76.5916 348.452C76.5916 348.452 69.3398 355.287 76.5916 355.287C83.8434 355.287 90.7799 350.829 90.7799 350.829L76.5916 348.452Z" fill="#2F2E41"/>
<path d="M182.071 344.168C182.071 344.168 180.064 353.648 186.096 349.854C192.128 346.06 195.273 338.723 195.273 338.723L182.071 344.168Z" fill="#2F2E41"/>
<path d="M103.707 122.292L98.9776 132.694L69.9704 168.951C69.9704 168.951 50.1068 189.16 61.1421 190.348C72.1775 191.537 79.4293 171.625 79.4293 171.625L113.481 139.826L117.265 125.264L103.707 122.292Z" fill="#FFB8B8"/>
<path d="M118.211 80.0918L113.64 81.2979C113.64 81.2979 95.8246 110.999 97.7163 117.24C99.6081 123.481 108.121 131.208 111.905 130.614C115.688 130.019 118.211 80.0918 118.211 80.0918Z" fill="#2F2E41"/>
<path d="M132.714 47.9958C132.714 47.9958 137.444 66.4214 133.975 69.9876C130.507 73.5539 122.94 76.2285 122.94 76.2285L124.201 109.513C124.201 109.513 138.705 104.758 139.335 104.164C139.966 103.57 152.893 84.2526 152.893 84.2526L165.505 72.9595C165.505 72.9595 146.272 64.3411 151.947 49.4817C157.623 34.6223 132.714 47.9958 132.714 47.9958Z" fill="#FFB8B8"/>
<path d="M144.38 54.831C153.435 54.831 160.775 47.9122 160.775 39.3773C160.775 30.8425 153.435 23.9236 144.38 23.9236C135.325 23.9236 127.985 30.8425 127.985 39.3773C127.985 47.9122 135.325 54.831 144.38 54.831Z" fill="#FFB8B8"/>
<path d="M125.778 74.7426C125.778 74.7426 114.112 77.7145 113.481 81.8751C112.851 86.0357 113.481 94.6541 112.535 96.4373C111.589 98.2204 108.752 100.895 110.013 112.188C111.274 123.481 110.644 130.317 110.644 130.317C110.644 130.317 46.6385 343.102 69.3398 349.343C92.041 355.584 125.462 348.749 125.147 344.588C124.832 340.428 119.156 258.107 119.156 258.107C119.156 258.107 152.263 367.472 193.251 341.914C234.239 316.356 225.096 311.601 221.312 309.817C217.529 308.034 160.46 223.336 160.775 207.585C161.091 191.834 160.145 142.501 153.208 135.072C153.208 135.072 160.46 112.485 163.928 109.513C167.397 106.542 175.91 78.6061 175.91 78.6061C175.91 78.6061 170.55 71.7708 166.136 71.7708C161.721 71.7708 157.623 73.2567 152.578 77.7145C147.533 82.1723 128.931 103.867 128.931 103.867C128.931 103.867 122.94 78.9032 125.778 74.7426Z" fill="#2F2E41"/>
<path d="M144.222 34.4738C151.884 34.4738 158.096 30.4821 158.096 25.5582C158.096 20.6342 151.884 16.6426 144.222 16.6426C136.561 16.6426 130.349 20.6342 130.349 25.5582C130.349 30.4821 136.561 34.4738 144.222 34.4738Z" fill="#2F2E41"/>
<path d="M167.87 24.9637C175.183 24.9637 181.112 19.3754 181.112 12.4819C181.112 5.58832 175.183 0 167.87 0C160.556 0 154.627 5.58832 154.627 12.4819C154.627 19.3754 160.556 24.9637 167.87 24.9637Z" fill="#2F2E41"/>
<path d="M177.328 21.3975C174.008 21.3971 170.809 20.2206 168.365 18.1014C165.921 15.9822 164.412 13.0748 164.135 9.95581C164.105 10.2991 164.086 10.6453 164.086 10.996C164.086 14.3064 165.481 17.4812 167.965 19.822C170.448 22.1628 173.816 23.4778 177.328 23.4778C180.841 23.4778 184.209 22.1628 186.692 19.822C189.176 17.4812 190.571 14.3064 190.571 10.996C190.571 10.6454 190.552 10.2991 190.522 9.95581C190.245 13.0749 188.736 15.9822 186.292 18.1014C183.848 20.2206 180.649 21.3971 177.328 21.3975Z" fill="#2F2E41"/>
<path d="M65.215 125.824H0V187.293H65.215V125.824Z" fill="#3F3D56"/>
<path d="M22.3058 155.7C22.3058 155.7 30.5559 154.589 33.3059 147.553C36.0559 140.518 38.4131 134.593 43.1274 135.704C47.8418 136.815 45.0917 150.886 45.0917 150.886C45.0917 150.886 54.9133 149.775 55.3061 153.108C55.6314 155.867 55.418 166.496 55.335 170.071C55.3177 171.518 54.8463 172.928 53.9802 174.122C53.3686 174.996 52.4979 175.682 51.4763 176.093C50.4548 176.505 49.3276 176.624 48.2346 176.437C46.0553 176.181 43.8592 176.072 41.6634 176.113C37.7277 176.16 33.8644 175.114 30.5559 173.104L22.3058 172.734L22.3058 155.7Z" fill="#F2F2F2"/>
<path d="M26.6273 150.516H9.73425V177.548H26.6273V150.516Z" fill="#EBB268"/>
<path d="M38.1353 140.585C37.5679 140.586 37.0033 140.51 36.4592 140.358L36.5712 140.003C37.317 140.213 38.101 140.272 38.8727 140.178C39.6444 140.084 40.3865 139.838 41.0512 139.457C41.7159 139.076 42.2883 138.567 42.7315 137.964C43.1747 137.362 43.4789 136.678 43.6243 135.957L44.0102 136.026C43.7522 137.314 43.0228 138.476 41.9492 139.309C40.8757 140.142 39.5259 140.594 38.1353 140.585V140.585Z" fill="#3F3D56"/>
<path d="M234.415 202.833H169.2V264.302H234.415V202.833Z" fill="#3F3D56"/>
<path d="M191.506 234.426C191.506 234.426 199.756 235.537 202.506 242.573C205.256 249.608 207.613 255.533 212.328 254.422C217.042 253.311 214.292 239.24 214.292 239.24C214.292 239.24 224.113 240.351 224.506 237.018C224.832 234.259 224.618 223.63 224.535 220.055C224.518 218.608 224.046 217.199 223.18 216.004C222.569 215.13 221.698 214.445 220.676 214.033C219.655 213.622 218.528 213.502 217.435 213.69C215.255 213.946 213.059 214.054 210.864 214.013C206.928 213.966 203.065 215.013 199.756 217.022L191.506 217.393V234.426Z" fill="#F2F2F2"/>
<path d="M195.827 212.579H178.934V239.611H195.827V212.579Z" fill="#EBB268"/>
<path d="M207.335 249.541C206.768 249.54 206.203 249.617 205.659 249.768L205.771 250.123C206.517 249.914 207.301 249.854 208.073 249.948C208.845 250.043 209.587 250.288 210.251 250.669C210.916 251.051 211.488 251.559 211.932 252.162C212.375 252.765 212.679 253.449 212.824 254.169L213.21 254.1C212.952 252.812 212.223 251.65 211.149 250.817C210.076 249.984 208.726 249.532 207.335 249.541Z" fill="#3F3D56"/>
<path d="M176.856 119.618L175.279 136.26L178.432 186.188C178.432 186.188 185.684 211.448 174.649 210.854C163.613 210.26 167.712 184.404 167.712 184.404L162.667 126.453L176.856 119.618Z" fill="#FFB8B8"/>
<path d="M167.712 74.4453L175.91 78.6059C175.91 78.6059 186.945 114.863 180.639 121.698C174.333 128.533 161.406 131.208 160.775 128.533C160.145 125.859 157.938 105.947 157.938 105.947L167.712 74.4453Z" fill="#2F2E41"/>
</g>
<defs>
<clipPath id="clip0">
<rect width="427" height="356" fill="white"/>
</clipPath>
</defs>
</svg>
