<svg width="466" height="373" viewBox="0 0 466 373" fill="none" xmlns="http://www.w3.org/2000/svg">
<g clip-path="url(#clip0)">
<path d="M373.306 337.415H121.323C54.5392 321.878 -4.76539e-06 268.363 -4.76539e-06 188.335C-0.00971047 176.229 1.23618 164.158 3.71561 152.336L206.825 117.966L363.512 91.4531C374.768 99.1891 385.48 107.767 395.563 117.119L245.584 177.221L174.832 205.576L254.288 184.829L419.202 141.769C429.221 153.532 438.326 166.119 446.431 179.41L396.559 218.582L452.905 190.565C453.144 190.996 453.381 191.429 453.617 191.863C488.97 256.672 444.409 337.415 373.306 337.415Z" fill="#F2F2F2"/>
<path d="M333.039 73.2628C294.897 81.539 248.003 91.9992 199.788 102.873C130.075 118.599 57.604 135.197 4.84247 147.331L4.87749 147.187C7.13864 138.104 11.8102 129.884 18.3479 123.483C58.3545 83.8793 108.592 57.5535 162.773 47.8012H162.777C178.473 44.99 194.367 43.5801 210.289 43.5865C252.823 43.5234 294.809 53.674 333.039 73.2628Z" fill="#F2F2F2"/>
<path d="M47.5853 0V373H395.407V0H47.5853ZM363.276 263.294H80.52V32.0679H363.276V263.294Z" fill="#3F3D56"/>
<path d="M239.87 97.2389C231.295 82.0178 214.331 81.3084 214.331 81.3084C214.331 81.3084 197.8 79.0876 187.195 102.27C177.311 123.877 163.67 144.739 184.999 149.798L188.852 137.2L191.238 150.736C194.275 150.965 197.321 151.02 200.364 150.899C223.206 150.125 244.96 151.126 244.259 142.515C243.328 131.068 248.121 111.885 239.87 97.2389Z" fill="#2F2E41"/>
<path d="M181.332 241.775L152.414 262.872C152.414 262.872 135.545 281.438 147.594 281.438C159.644 281.438 164.463 265.404 164.463 265.404L201.414 248.526L181.332 241.775Z" fill="#FFB8B8"/>
<path d="M192.98 159.495C192.98 159.495 167.676 241.775 175.709 245.994C183.742 250.214 201.414 252.745 201.414 252.745L192.98 159.495Z" fill="#D0CDE1"/>
<path opacity="0.1" d="M192.98 159.495C192.98 159.495 167.676 241.775 175.709 245.994C183.742 250.214 201.414 252.745 201.414 252.745L192.98 159.495Z" fill="black"/>
<path d="M272.529 263.294H215.568L256.038 241.775C256.93 242.383 257.786 243.048 258.6 243.766C264.601 249.073 269.366 255.753 272.529 263.294Z" fill="#2F2E41"/>
<path d="M209.046 138.398C220.58 138.398 229.931 128.575 229.931 116.457C229.931 104.339 220.58 94.5159 209.046 94.5159C197.511 94.5159 188.16 104.339 188.16 116.457C188.16 128.575 197.511 138.398 209.046 138.398Z" fill="#FFB8B8"/>
<path d="M208.644 134.601C208.644 134.601 213.464 150.635 208.644 156.542C203.824 162.449 235.152 148.103 235.152 148.103C235.152 148.103 223.906 131.225 227.119 123.63L208.644 134.601Z" fill="#FFB8B8"/>
<path d="M254.913 207.859L253.226 219.412C253.226 219.412 254.078 222.036 255.114 225.859C256.463 230.846 258.126 237.876 258.6 243.766C259.09 249.741 258.351 254.551 254.833 254.855C249.788 255.294 247.161 258.509 244.543 263.294H186.433C186.586 260.661 186.77 257.927 186.987 255.117C187.108 253.429 187.242 251.719 187.389 249.986C187.55 247.994 193.242 210.585 188.963 202.534C180.13 185.91 191.373 176.373 191.373 176.373C191.373 176.373 192.98 163.715 192.98 159.495C192.98 156.187 205.318 152.364 210.652 150.862C210.998 150.77 211.303 150.677 211.584 150.609C212.508 150.356 213.062 150.213 213.062 150.213L217.279 148.398C217.279 148.398 229.128 145.993 229.931 144.305C230.22 143.698 231.031 143.2 231.987 142.769C233.682 142.01 235.843 141.47 236.357 140.93C237.091 140.043 237.755 139.095 238.341 138.094C239.803 136.212 241.892 135.082 244.254 134.466C252.881 132.179 265.275 136.71 265.275 136.71L260.938 166.457L254.913 207.859Z" fill="#D0CDE1"/>
<path d="M280.136 189.454L251.218 210.551C251.218 210.551 234.349 229.117 246.398 229.117C258.448 229.117 263.267 213.083 263.267 213.083L300.218 196.205L280.136 189.454Z" fill="#FFB8B8"/>
<path d="M230.456 95.7717L213.696 86.5488L203.181 88.263C199.456 88.8702 195.99 90.6399 193.235 93.3423C190.48 96.0446 188.561 99.5548 187.729 103.417L185.762 112.541L197.683 112.059L201.013 103.896V111.924L206.513 111.702L209.705 98.7063L211.701 112.541L231.254 112.121L230.456 95.7717Z" fill="#2F2E41"/>
<path d="M259.652 138.398L265.275 136.71C265.275 136.71 322.309 161.183 320.702 182.281C319.095 203.378 321.505 203.378 311.866 204.222C302.226 205.066 274.112 194.939 274.915 193.251C275.718 191.563 281.341 183.124 281.341 183.124L259.652 165.403V138.398Z" fill="#D0CDE1"/>
<path d="M229.931 119.833C231.705 119.833 233.144 118.321 233.144 116.457C233.144 114.593 231.705 113.082 229.931 113.082C228.156 113.082 226.718 114.593 226.718 116.457C226.718 118.321 228.156 119.833 229.931 119.833Z" fill="#FFB8B8"/>
<path d="M325.369 265.472C325.206 265.191 321.352 258.432 320.016 244.396C318.791 231.518 319.579 209.813 330.294 179.535C350.594 122.176 325.616 75.8956 325.361 75.4346L326.593 74.6836C326.658 74.8005 333.103 86.6002 336.911 105.389C341.942 130.3 340.11 156.201 331.63 180.057C311.365 237.318 326.43 264.425 326.585 264.692L325.369 265.472Z" fill="#3F3D56"/>
<path d="M317.432 72.0668C322.544 72.0668 326.689 67.7126 326.689 62.3413C326.689 56.97 322.544 52.6157 317.432 52.6157C312.319 52.6157 308.174 56.97 308.174 62.3413C308.174 67.7126 312.319 72.0668 317.432 72.0668Z" fill="#EBB268"/>
<path d="M346.629 107.976C351.741 107.976 355.886 103.622 355.886 98.2509C355.886 92.8797 351.741 88.5254 346.629 88.5254C341.516 88.5254 337.371 92.8797 337.371 98.2509C337.371 103.622 341.516 107.976 346.629 107.976Z" fill="#3F3D56"/>
<path d="M326.689 131.916C331.802 131.916 335.947 127.562 335.947 122.191C335.947 116.819 331.802 112.465 326.689 112.465C321.576 112.465 317.432 116.819 317.432 122.191C317.432 127.562 321.576 131.916 326.689 131.916Z" fill="#EBB268"/>
<path d="M350.901 152.115C356.014 152.115 360.159 147.761 360.159 142.39C360.159 137.019 356.014 132.664 350.901 132.664C345.789 132.664 341.644 137.019 341.644 142.39C341.644 147.761 345.789 152.115 350.901 152.115Z" fill="#EBB268"/>
<path d="M319.568 183.537C324.681 183.537 328.826 179.182 328.826 173.811C328.826 168.44 324.681 164.085 319.568 164.085C314.455 164.085 310.31 168.44 310.31 173.811C310.31 179.182 314.455 183.537 319.568 183.537Z" fill="#3F3D56"/>
<path d="M330.962 265.829C330.962 265.829 321.704 241.89 349.477 223.935L330.962 265.829Z" fill="#3F3D56"/>
<path d="M319.577 265.395C319.577 265.395 315.363 239.937 282.754 240.155L319.577 265.395Z" fill="#3F3D56"/>
</g>
<defs>
<clipPath id="clip0">
<rect width="466" height="373" fill="white"/>
</clipPath>
</defs>
</svg>
