<svg width="458" height="470" viewBox="0 0 458 470" fill="none" xmlns="http://www.w3.org/2000/svg">
<path d="M131.385 79.2841L129.889 78.5564L125.835 86.389L127.332 87.1167L131.385 79.2841Z" fill="white"/>
<path d="M62.906 368.238L57.4495 347.378C47.7763 343.405 37.8797 339.963 27.8066 337.07L27.1184 346.764L24.3248 336.084C11.8325 332.627 3.33417 331.104 3.33417 331.104C3.33417 331.104 14.8159 373.423 38.8946 405.775L66.9497 410.551L45.1549 413.599C48.185 417.132 51.4414 420.478 54.9047 423.615C89.9316 455.131 128.944 469.59 142.041 455.909C155.138 442.228 137.36 405.589 102.333 374.072C91.4747 364.302 77.8342 356.462 64.1801 350.291L62.906 368.238Z" fill="#E6E6E6"/>
<path d="M114.788 345.582L121.239 324.991C115.077 316.742 108.44 308.836 101.36 301.312L95.6017 309.266L98.9046 298.723C90.0542 289.503 83.5911 283.941 83.5911 283.941C83.5911 283.941 70.8565 325.921 74.2194 365.683L95.6894 383.83L75.407 375.518C76.117 380.061 77.121 384.556 78.4131 388.977C91.5939 433.509 117.281 465.437 135.787 460.288C154.293 455.14 158.61 414.866 145.429 370.334C141.343 356.529 133.846 342.982 125.448 330.857L114.788 345.582Z" fill="#E6E6E6"/>
<path d="M229 470C355.473 470 458 464.917 458 458.647C458 452.377 355.473 447.294 229 447.294C102.527 447.294 0 452.377 0 458.647C0 464.917 102.527 470 229 470Z" fill="#3F3D56"/>
<path d="M362.792 109.079H360.19V39.9881C360.19 34.7368 359.123 29.5369 357.05 24.6853C354.978 19.8337 351.939 15.4254 348.109 11.7122C344.279 7.99896 339.732 5.05346 334.727 3.04388C329.723 1.03429 324.359 -1.57368e-05 318.943 1.79572e-10H167.955C162.538 -1.15955e-05 157.174 1.0343 152.17 3.04389C147.166 5.05347 142.619 7.99897 138.788 11.7122C134.958 15.4255 131.92 19.8337 129.847 24.6853C127.774 29.5369 126.707 34.7368 126.707 39.9881V419.027C126.707 424.279 127.774 429.479 129.847 434.33C131.92 439.182 134.958 443.59 138.788 447.303C142.619 451.016 147.166 453.962 152.17 455.972C157.174 457.981 162.538 459.015 167.955 459.015H318.943C324.359 459.015 329.723 457.981 334.727 455.972C339.732 453.962 344.279 451.016 348.109 447.303C351.939 443.59 354.978 439.182 357.05 434.33C359.123 429.479 360.19 424.279 360.19 419.027V158.259H362.792V109.079Z" fill="#3F3D56"/>
<path d="M351.411 40.2671V418.749C351.411 426.669 348.165 434.265 342.388 439.866C336.611 445.466 328.776 448.613 320.606 448.613H168.894C160.724 448.613 152.889 445.466 147.112 439.866C141.335 434.265 138.09 426.669 138.09 418.749V40.2671C138.09 32.3467 141.335 24.7508 147.112 19.1502C152.889 13.5497 160.724 10.4032 168.894 10.4031H187.299C186.394 12.5576 186.05 14.8945 186.296 17.2083C186.542 19.5221 187.37 21.7418 188.709 23.6723C190.047 25.6028 191.854 27.1849 193.971 28.2793C196.089 29.3737 198.451 29.947 200.85 29.9487H287.349C289.749 29.947 292.111 29.3737 294.228 28.2792C296.345 27.1848 298.152 25.6028 299.491 23.6723C300.829 21.7418 301.658 19.5221 301.904 17.2083C302.149 14.8945 301.805 12.5576 300.901 10.4031H320.606C328.776 10.4032 336.611 13.5496 342.388 19.1502C348.165 24.7508 351.411 32.3467 351.411 40.2671Z" fill="white"/>
<path d="M336.05 84.0225H153.45C151.802 84.0225 150.465 85.3182 150.465 86.9166V290.523C150.465 292.122 151.802 293.418 153.45 293.418H336.05C337.699 293.418 339.035 292.122 339.035 290.523V86.9166C339.035 85.3182 337.699 84.0225 336.05 84.0225Z" fill="#E6E6E6"/>
<path d="M255.872 115.842C270.985 115.842 283.236 103.965 283.236 89.3132C283.236 74.6618 270.985 62.7844 255.872 62.7844C240.759 62.7844 228.508 74.6618 228.508 89.3132C228.508 103.965 240.759 115.842 255.872 115.842Z" fill="#3C354C"/>
<path d="M254.048 140.602C269.16 140.602 281.412 128.725 281.412 114.073C281.412 99.422 269.16 87.5447 254.048 87.5447C238.935 87.5447 226.683 99.422 226.683 114.073C226.683 128.725 238.935 140.602 254.048 140.602Z" fill="#3C354C"/>
<path d="M242.19 95.5034C242.19 95.5034 240.974 112.01 235.501 114.368C230.028 116.726 252.527 152.688 252.527 152.688L261.649 141.487L254.352 121.443C254.352 121.443 259.824 104.936 262.257 103.757C264.689 102.578 242.19 95.5034 242.19 95.5034Z" fill="#FFC1C7"/>
<path opacity="0.1" d="M242.19 95.5034C242.19 95.5034 240.974 112.01 235.501 114.368C230.028 116.726 252.527 152.688 252.527 152.688L261.649 141.487L254.352 121.443C254.352 121.443 259.824 104.936 262.257 103.757C264.689 102.578 242.19 95.5034 242.19 95.5034Z" fill="black"/>
<path d="M316.985 179.806C316.985 179.806 343.741 193.365 338.268 208.693C332.795 224.021 321.242 191.596 321.242 191.596L312.12 185.112L316.985 179.806Z" fill="#FFC1C7"/>
<path d="M316.985 219.894C316.985 219.894 327.323 241.706 318.809 242.885C310.296 244.064 309.688 223.431 309.688 223.431L316.985 219.894Z" fill="#FFC1C7"/>
<path d="M272.594 157.404C273.202 157.404 278.067 159.172 278.067 159.172C278.067 159.172 296.31 191.596 303.607 198.081C310.904 204.566 321.242 220.483 319.417 221.662C317.593 222.841 304.215 231.095 302.999 228.737C301.783 226.379 296.918 217.536 293.878 215.767C290.837 213.999 275.635 194.544 271.378 192.775C267.122 191.007 257.392 162.71 257.392 162.71L272.594 157.404Z" fill="#EBB268"/>
<path opacity="0.1" d="M272.594 157.404C273.202 157.404 278.067 159.172 278.067 159.172C278.067 159.172 296.31 191.596 303.607 198.081C310.904 204.566 321.242 220.483 319.417 221.662C317.593 222.841 304.215 231.095 302.999 228.737C301.783 226.379 296.918 217.536 293.878 215.767C290.837 213.999 275.635 194.544 271.378 192.775C267.122 191.007 257.392 162.71 257.392 162.71L272.594 157.404Z" fill="black"/>
<path d="M253.744 111.715C263.651 111.715 271.682 103.929 271.682 94.3242C271.682 84.7194 263.651 76.9331 253.744 76.9331C243.836 76.9331 235.805 84.7194 235.805 94.3242C235.805 103.929 243.836 111.715 253.744 111.715Z" fill="#FFC1C7"/>
<path d="M278.067 159.172C278.067 159.172 268.338 170.373 267.122 170.963C266.665 171.187 263.625 172.49 260.013 174.034C254.023 176.593 246.446 179.806 246.446 179.806C246.446 179.806 241.582 182.754 239.149 182.754C236.717 182.754 223.339 189.238 223.339 189.238C223.339 189.238 213.609 196.313 207.529 196.313C201.448 196.313 206.92 199.85 199.015 199.26C191.11 198.671 197.799 176.858 201.448 173.911C205.096 170.963 205.704 159.172 205.096 155.635C204.488 152.098 208.137 139.128 213.001 122.622C217.866 106.115 228.204 112.6 228.204 112.6C228.204 112.6 234.285 109.062 234.893 109.062C235.501 109.062 241.582 119.084 242.798 124.98C243.552 128.635 248.514 136.139 252.175 141.316C254.418 144.493 256.176 146.792 256.176 146.792C256.176 146.792 256.176 145.69 256.145 144.169C256.097 141.54 255.951 137.678 255.568 136.181C254.96 133.823 254.352 121.443 254.352 121.443C254.352 121.443 254.352 120.853 256.176 120.853C258 120.853 272.594 142.666 272.594 142.666L273.811 154.456L275.89 156.761L278.067 159.172Z" fill="#EBB268"/>
<path opacity="0.1" d="M278.067 159.172C278.067 159.172 268.338 170.373 267.122 170.963C266.666 171.187 263.625 172.49 260.013 174.034C242.488 169.725 222.427 160.057 222.427 160.057C222.427 160.057 216.65 140.307 221.515 131.465C226.379 122.622 240.366 132.644 240.366 132.644C240.366 132.644 245.692 136.635 252.175 141.316C253.464 142.247 254.796 143.208 256.146 144.169C263.199 149.197 270.6 154.262 273.628 155.635C274.182 155.883 274.948 156.266 275.89 156.761L278.067 159.172Z" fill="black"/>
<path d="M217.258 159.172C217.258 159.172 262.257 172.731 273.811 173.91C285.364 175.09 306.039 197.492 307.864 196.902C309.688 196.313 322.458 181.574 319.417 179.216C316.377 176.858 280.135 155.635 273.628 152.687C267.122 149.74 240.365 129.696 240.365 129.696C240.365 129.696 226.379 119.674 221.515 128.517C216.65 137.36 217.258 159.172 217.258 159.172Z" fill="#EBB268"/>
<path d="M240.365 225.2C240.365 225.2 233.068 219.894 228.204 221.073C223.339 222.252 217.258 225.789 217.866 233.453C218.221 238.001 218.83 242.528 219.69 247.012H220.298L222.123 236.401C222.123 236.401 227.596 238.759 228.812 242.885C230.028 247.012 245.23 255.265 248.879 252.318C252.527 249.37 245.23 245.833 245.23 245.833L240.365 225.2Z" fill="#F2F2F2"/>
<path d="M240.365 225.2C240.365 225.2 233.068 219.894 228.204 221.073C223.339 222.252 217.258 225.789 217.866 233.453C218.221 238.001 218.83 242.528 219.69 247.012H220.298L222.123 236.401C222.123 236.401 227.596 238.759 228.812 242.885C230.028 247.012 245.23 255.265 248.879 252.318C252.527 249.37 245.23 245.833 245.23 245.833L240.365 225.2Z" fill="#2F2E41"/>
<path d="M253.744 229.916C253.744 229.916 306.039 224.02 303.607 214.588C301.175 205.155 282.932 194.544 282.932 194.544L252.527 200.439L232.608 221.338L240.366 225.199L253.744 229.916Z" fill="#2F2E41"/>
<path d="M230.028 238.169C230.028 238.169 219.69 255.266 216.65 255.855C213.609 256.445 209.961 259.982 214.218 267.646C216.77 272.223 218.419 277.221 219.082 282.384H220.298L219.69 271.772C219.69 271.772 227.596 284.152 228.204 288.869C228.812 293.585 251.311 298.301 254.96 291.816C258.608 285.331 250.095 280.615 250.095 280.615C250.095 280.615 237.325 267.056 239.149 257.624C240.974 248.191 242.798 245.833 242.798 245.833L230.028 238.169Z" fill="#2F2E41"/>
<path d="M196.583 195.723C196.583 195.723 191.11 229.326 211.177 228.147C231.244 226.968 273.202 202.798 273.202 202.798L285.972 189.238C285.972 189.238 295.094 176.858 279.891 173.321C264.689 169.784 239.757 182.164 239.757 182.164L202.056 198.081L196.583 195.723Z" fill="#2F2E41"/>
<path d="M283.54 186.291L285.972 189.238C285.972 189.238 248.879 247.602 245.23 248.191C241.582 248.781 228.812 239.938 228.812 238.169C228.812 236.401 233.677 226.379 234.893 225.2C236.109 224.021 248.271 196.902 250.703 195.134C253.135 193.365 283.54 186.291 283.54 186.291Z" fill="#2F2E41"/>
<path d="M254.656 94.0295C265.738 94.0295 274.723 88.0908 274.723 80.7651C274.723 73.4394 265.738 67.5007 254.656 67.5007C243.573 67.5007 234.589 73.4394 234.589 80.7651C234.589 88.0908 243.573 94.0295 254.656 94.0295Z" fill="#3C354C"/>
<path d="M244.75 408.206C265.23 408.206 281.833 392.111 281.833 372.256C281.833 352.401 265.23 336.306 244.75 336.306C224.27 336.306 207.668 352.401 207.668 372.256C207.668 392.111 224.27 408.206 244.75 408.206Z" fill="#EBB268"/>
</svg>
