<svg width="119" height="316" viewBox="0 0 119 316" fill="none" xmlns="http://www.w3.org/2000/svg">
<path d="M88.1442 93.1187C98.7654 86.4741 109.554 79.3539 117.059 68.5781C124.897 57.3244 128.243 40.4925 120.979 28.7583C114.878 18.9015 102.727 15.4357 92.3776 18.2843C82.0279 21.1329 73.3635 29.2486 66.6341 38.5703C68.8361 27.1129 58.1309 16.0502 47.7834 17.0648C37.4359 18.0795 29.1334 28.2882 26.3706 39.5897C23.6077 50.8912 25.4053 62.9857 28.37 74.2219C33.3618 93.0618 41.5199 110.641 52.3988 126C54.067 122.589 56.083 119.409 58.4056 116.527C66.5749 106.385 77.5229 99.7632 88.1442 93.1187Z" fill="#EBB268"/>
<path d="M51.6877 126.159C37.8048 108.915 27.6368 88.2977 21.9732 65.9085C19.0624 54.2782 17.3572 41.0549 21.7194 29.5804C25.0934 20.7057 32.2843 12.676 41.1984 11.9326C50.6055 11.1481 61.0486 20.962 59.0335 32.1841C58.883 33.0221 59.8628 33.9063 60.443 33.1084C67.9728 22.7544 78.3231 13.2169 90.6575 12.2819C101.644 11.4492 113.184 17.634 116.384 30.2069C119.717 43.3025 113.967 57.1568 105.913 66.4171C96.979 76.6894 85.3493 83.0972 74.3727 90.0933C63.5728 96.9769 52.5881 104.926 45.9453 117.093C42.7893 122.721 40.839 129.099 40.2486 135.723C39.727 142.56 41.2451 149.024 44.183 154.986C47.3034 161.318 51.1623 167.091 53.9803 173.63C56.7517 180.092 58.8597 186.889 60.2635 193.889C63.0989 207.843 63.1176 222.336 60.3182 236.3C55.14 261.748 40.0312 284.145 19.9233 297.03C17.4936 298.584 14.996 299.998 12.4398 301.269C11.4492 301.762 12.3065 303.4 13.2911 302.909C23.9425 297.524 33.5176 289.768 41.4415 280.109C49.3653 270.45 55.4743 259.085 59.4016 246.699C67.9088 219.492 64.6473 188.144 51.0384 163.755C47.4767 157.372 43.3622 151.182 42.1894 143.577C41.1147 136.608 42.4383 129.339 45.0501 122.982C50.6435 109.367 61.73 100.517 72.9285 93.213C84.1242 85.9108 96.084 79.5867 105.572 69.4583C114.018 60.4419 120.249 47.5767 118.787 34.0991C118.183 27.94 115.638 22.2293 111.614 18.0048C107.557 13.9858 102.524 11.4284 97.165 10.6628C85.2086 8.76381 74.001 15.1546 65.4791 24.1884C63.2599 26.5598 61.1793 29.0906 59.2503 31.7649L60.6598 32.6892C62.4787 22.56 55.3315 13.2541 46.9626 10.6923C37.8614 7.9063 28.8395 13.9003 23.5951 22.0263C17.0444 32.1765 16.5086 45.1933 18.4235 57.1612C20.4098 69.5762 24.5221 81.7309 29.5169 92.9865C35.0857 105.512 42.1433 117.124 50.495 127.503C51.2252 128.411 52.4151 127.064 51.6876 126.159L51.6877 126.159Z" fill="#3F3D56"/>
</svg>
