<svg width="717" height="701" viewBox="0 0 717 701" fill="none" xmlns="http://www.w3.org/2000/svg">
<g clip-path="url(#clip0)">
<path opacity="0.1" d="M221.39 25.6469C245.717 3.17314 283.911 -1.43398 318.665 0.355281C427.841 5.98237 526.389 60.6887 611.68 122.569C642.544 144.965 672.926 169.107 692.955 199.957C733.764 262.745 721.638 349.736 664.939 401.469C645.642 419.067 622.256 432.586 598.246 444.523C555.555 465.796 509.491 482.867 461.046 487.742C426.491 491.2 391.513 488.39 357.167 483.55C261.15 470.031 166.948 440.158 87.996 389.048C53.3586 366.634 20.72 338.767 6.44526 302.506C-7.82944 266.246 1.30671 220.296 36.6687 198.833C51.2932 189.956 68.7826 185.945 85.8972 182.185C111.099 176.645 136.7 171.182 159.444 159.91C182.93 148.276 210.738 125.776 206.083 100.026C201.094 72.3923 197.097 48.1207 221.39 25.6469Z" fill="#EBB268"/>
<path d="M562.202 203.301C562.202 203.301 553.391 199.593 525.357 212.93C497.324 226.268 493.827 224.582 486.573 222.577C479.319 220.571 475.271 220.053 467.492 208.911C467.492 208.911 462.004 178.044 456.666 173.255C451.327 168.467 428.791 175.987 428.791 175.987C428.791 175.987 401.732 182.426 396.577 144.869C396.577 144.869 400.233 116.587 395.253 107.909C395.253 107.909 405.313 112.403 421.903 105.143C438.493 97.8819 451.777 112.965 451.777 112.965C451.777 112.965 455.941 124.202 455.525 130.91C455.108 137.617 457.74 140.133 465.652 136.891C465.652 136.891 469.541 131.152 464.036 121.661C458.531 112.17 454.6 105.108 456.133 97.7436C457.665 90.3791 462.087 80.1536 476.287 75.0451C490.487 69.9366 509.767 68.9945 519.02 64.9578C528.272 60.9212 530.554 58.3454 530.554 58.3454C530.554 58.3454 524.858 64.2663 538.275 89.3764C551.692 114.487 543.138 125.378 543.138 125.378C543.138 125.378 536.001 143.037 504.487 141.602C504.487 141.602 474.122 142.752 490.678 156.115C490.678 156.115 501.28 153.876 517.129 148.647C532.978 143.417 544.421 165.001 547.261 180.015C550.101 195.029 562.202 203.301 562.202 203.301Z" fill="#EBB268"/>
<path d="M521.385 77.3616L521.552 77.3098C522.767 82.0984 509.201 101.357 497.599 116.665L497.466 116.552C513.823 94.9949 522.326 81.0698 521.385 77.3616Z" fill="#444053"/>
<path d="M497.699 116.259L497.774 116.449C488.505 128.671 476.853 143.244 467.526 154.075C466.635 155.104 465.752 156.184 464.902 157.29L464.636 157.066C465.469 155.959 466.376 154.87 467.268 153.842C476.587 143.054 488.422 128.489 497.699 116.259Z" fill="#444053"/>
<path d="M464.861 156.789L465.044 157.118C448.071 179.116 446.947 213.302 446.905 213.57L443.324 209.248C443.365 208.971 447.771 178.943 464.861 156.789Z" fill="#444053"/>
<path d="M542.555 191.373C542.555 191.373 522.567 180.568 506.944 184.458C491.32 188.347 456.183 170.714 456.183 170.714C456.183 170.714 441.275 164.43 438.277 157.265C438.277 157.265 428.041 146.028 427.45 140.228C426.859 134.428 416.906 119.811 410.41 119.249" stroke="#444053" stroke-miterlimit="10"/>
<path d="M539.616 201.771C539.616 201.771 529.538 194.718 530.713 186.506" stroke="#444053" stroke-miterlimit="10"/>
<path d="M524.158 210.873C524.158 210.873 509.742 205.445 508.334 184.147" stroke="#444053" stroke-miterlimit="10"/>
<path d="M500.914 216.388C500.914 216.388 487.139 204.529 491.711 183.801" stroke="#444053" stroke-miterlimit="10"/>
<path d="M472.939 210.596C472.939 210.596 463.778 190.629 471.931 177.638" stroke="#444053" stroke-miterlimit="10"/>
<path d="M542.747 178.208C542.747 178.208 532.328 181.666 534.56 187.336" stroke="#444053" stroke-miterlimit="10"/>
<path d="M530.171 158.613C530.171 158.613 516.221 163.203 515.897 183.68" stroke="#444053" stroke-miterlimit="10"/>
<path d="M510.716 153.842C510.716 153.842 498.016 170.109 498.949 184.89" stroke="#444053" stroke-miterlimit="10"/>
<path d="M488.48 160.221C488.48 160.221 475.871 172.737 477.478 179.695" stroke="#444053" stroke-miterlimit="10"/>
<path d="M480.876 155.804C480.876 155.804 469.05 157.999 467.393 153.971" stroke="#444053" stroke-miterlimit="10"/>
<path d="M465.51 140.988C465.51 140.988 471.482 149.2 473.006 147.359" stroke="#444053" stroke-miterlimit="10"/>
<path d="M524.741 135.793C524.741 135.793 494.926 138.041 488.18 128.706" stroke="#444053" stroke-miterlimit="10"/>
<path d="M459.272 99.602C459.272 99.602 473.256 130.763 483.425 134.73" stroke="#444053" stroke-miterlimit="10"/>
<path d="M473.914 84.7607C473.914 84.7607 482.5 113.423 493.144 122.37" stroke="#444053" stroke-miterlimit="10"/>
<path d="M537.284 112.135C537.284 112.135 514.614 122.231 501.006 112.014" stroke="#444053" stroke-width="0.75" stroke-miterlimit="10"/>
<path d="M494.101 78.6495C494.101 78.6495 499.282 99.7144 506.261 104.806" stroke="#444053" stroke-width="0.75" stroke-miterlimit="10"/>
<path d="M533.861 88.5294C533.861 88.5294 521.118 93.5427 516.371 89.7049" stroke="#444053" stroke-width="0.75" stroke-miterlimit="10"/>
<path d="M454.592 147.869C454.592 147.869 454.592 166.237 449.778 167.542" stroke="#444053" stroke-miterlimit="10"/>
<path d="M415.207 171.665C415.207 171.665 434.362 173.394 443.165 163.116" stroke="#444053" stroke-miterlimit="10"/>
<path d="M449.662 126.173C449.662 126.173 445.031 144.8 432.255 149.822" stroke="#444053" stroke-miterlimit="10"/>
<path d="M403.731 152.044C403.731 152.044 417.273 156.927 428.924 144.489" stroke="#444053" stroke-miterlimit="10"/>
<path d="M434.596 110.156C434.596 110.156 433.321 125.974 425.035 133.382" stroke="#444053" stroke-miterlimit="10"/>
<path d="M404.247 127.936C404.247 127.936 415.482 128.014 418.114 124.211" stroke="#444053" stroke-miterlimit="10"/>
<path opacity="0.1" d="M353.52 701C526.464 701 666.664 672.749 666.664 637.901C666.664 603.052 526.464 574.801 353.52 574.801C180.575 574.801 40.3756 603.052 40.3756 637.901C40.3756 672.749 180.575 701 353.52 701Z" fill="#EBB268"/>
<path d="M372.325 376.029L372.233 379.392L366.603 585.563H357.142L361.773 379.392L361.865 375.511L372.325 376.029Z" fill="#504F60"/>
<path opacity="0.1" d="M372.325 376.029L372.233 379.392L366.603 585.563H357.142L361.773 379.392L361.865 375.511L372.325 376.029Z" fill="black"/>
<path d="M427.092 550.685L420.013 550.668L314.71 550.434L309.097 550.426L312.086 540.866H426.351L427.092 550.685Z" fill="#504F60"/>
<path opacity="0.1" d="M372.325 376.029L372.233 379.392H361.773L361.865 375.511L372.325 376.029Z" fill="black"/>
<path d="M376.306 370.99H358.758V377.845H376.306V370.99Z" fill="#504F60"/>
<path opacity="0.1" d="M315.643 540.866L314.71 550.434L309.097 550.426L312.086 540.866H315.643Z" fill="black"/>
<path d="M330.75 370.86L330.467 373.834L307.106 612.955L296.404 612.427L321.014 373.834L321.289 371.12L330.75 370.86Z" fill="#504F60"/>
<path opacity="0.1" d="M427.092 550.685L420.013 550.668L419.047 540.866H426.351L427.092 550.685Z" fill="black"/>
<path d="M438.293 612.427L427.583 612.955L404.231 373.834L403.939 370.86L413.4 371.12L413.675 373.834L438.293 612.427Z" fill="#504F60"/>
<path d="M483.849 135.102H247.859V369.953H483.849V135.102Z" fill="white"/>
<path d="M483.849 135.102H247.859V369.953H483.849V135.102Z" fill="white"/>
<path d="M370.451 56.5647V113.268H361.248V56.5647C361.222 55.9205 361.321 55.2774 361.541 54.6741C361.76 54.0708 362.095 53.5197 362.525 53.0542C362.954 52.5886 363.471 52.2182 364.042 51.9651C364.614 51.712 365.228 51.5815 365.85 51.5815C366.471 51.5815 367.086 51.712 367.657 51.9651C368.229 52.2182 368.745 52.5886 369.175 53.0542C369.605 53.5197 369.939 54.0708 370.159 54.6741C370.378 55.2774 370.478 55.9205 370.451 56.5647Z" fill="#504F60"/>
<path opacity="0.1" d="M370.459 108.107H361.248V113.268H370.459V108.107Z" fill="black"/>
<path d="M374.066 111.98V130.711H357.667V111.98C357.667 111.675 357.725 111.372 357.838 111.09C357.95 110.808 358.115 110.552 358.323 110.336C358.531 110.12 358.778 109.949 359.05 109.832C359.322 109.715 359.613 109.655 359.907 109.655H371.825C372.419 109.657 372.987 109.903 373.407 110.338C373.827 110.774 374.063 111.364 374.066 111.98Z" fill="#504F60"/>
<path opacity="0.1" d="M365.854 125.153C367.777 125.153 369.335 123.535 369.335 121.54C369.335 119.544 367.777 117.927 365.854 117.927C363.931 117.927 362.373 119.544 362.373 121.54C362.373 123.535 363.931 125.153 365.854 125.153Z" fill="black"/>
<path d="M365.854 124.375C367.777 124.375 369.335 122.757 369.335 120.762C369.335 118.766 367.777 117.149 365.854 117.149C363.931 117.149 362.373 118.766 362.373 120.762C362.373 122.757 363.931 124.375 365.854 124.375Z" fill="#3F3D56"/>
<path opacity="0.1" d="M374.074 128.386H357.642V130.711H374.074V128.386Z" fill="black"/>
<path opacity="0.1" d="M380.787 131.489H350.913V136.658H380.787V131.489Z" fill="black"/>
<path d="M380.787 129.933H350.913V135.102H380.787V129.933Z" fill="#504F60"/>
<path opacity="0.1" d="M305.424 363.902H430.89C432.325 363.902 433.702 364.494 434.717 365.548C435.733 366.601 436.303 368.03 436.303 369.521V370.748H300.01V369.521C300.01 368.03 300.581 366.601 301.596 365.548C302.611 364.494 303.988 363.902 305.424 363.902Z" fill="black"/>
<path opacity="0.1" d="M321.289 371.12L330.75 370.86L330.467 373.834H321.014L321.289 371.12Z" fill="black"/>
<path opacity="0.1" d="M376.306 370.99H358.758V373.834H376.306V370.99Z" fill="black"/>
<path opacity="0.1" d="M413.675 373.834H404.231L403.939 370.86L413.4 371.12L413.675 373.834Z" fill="black"/>
<path d="M305.424 365.432H430.89C432.325 365.432 433.702 366.024 434.717 367.078C435.733 368.131 436.303 369.56 436.303 371.051V372.278H300.01V371.051C300.01 369.56 300.581 368.131 301.596 367.078C302.611 366.024 303.988 365.432 305.424 365.432Z" fill="#504F60"/>
<path opacity="0.05" d="M323.138 159.59C330.45 150.004 341.918 148.059 352.362 148.82C385.159 151.214 414.766 174.509 440.376 200.855C449.645 210.363 458.773 220.666 464.794 233.805C477.045 260.54 473.406 297.579 456.374 319.603C450.544 327.097 443.549 332.845 436.336 337.936C423.519 346.995 409.686 354.256 395.12 356.33C384.742 357.808 374.232 356.607 363.913 354.55C335.089 348.793 306.79 336.078 283.071 314.313C272.66 304.805 262.858 292.911 258.569 277.473C254.28 262.035 257.028 242.466 267.647 233.33C272.044 229.544 277.299 227.841 282.438 226.233C290.008 223.882 297.703 221.548 304.533 216.725C311.587 211.763 319.94 202.186 318.541 191.217C317.042 179.488 315.842 169.158 323.138 159.59Z" fill="#EBB268"/>
<path d="M162.543 95.6518C159.845 96.8706 157.047 98.5734 155.981 101.426C155.314 103.206 155.431 105.186 155.289 107.087C154.925 111.63 153.063 115.904 150.018 119.189C147.836 121.523 145.121 123.269 142.997 125.646C139.133 129.968 137.559 136.71 140.074 142C140.857 143.659 141.998 145.12 142.839 146.754C144.463 149.883 144.921 153.513 145.154 157.066C145.578 163.273 145.421 169.508 144.688 175.684C144.213 179.635 143.513 183.68 144.404 187.552C145.166 190.314 146.365 192.926 147.952 195.28C152.033 201.935 156.772 208.358 163.076 212.775C169.581 217.33 177.426 219.508 185.246 220.148C193.067 220.787 200.937 219.992 208.724 219.016C214.554 218.289 221.366 216.777 223.856 211.236C225.239 208.133 224.881 204.442 226.18 201.304C228.52 195.643 235.266 193.525 239.039 188.823C242.97 183.905 243.136 176.834 242.17 170.524C241.204 164.214 239.289 157.947 239.738 151.568C240.455 141.325 247.234 131.333 244.252 121.523C242.678 116.259 238.572 112.291 234.525 108.713C227.346 102.359 219.709 96.3347 210.939 92.7216C203.289 89.4588 194.858 88.7135 186.787 90.5866C178.609 92.5314 170.547 92.056 162.543 95.6518Z" fill="#2F2E41"/>
<g opacity="0.08">
<path opacity="0.08" d="M145.296 161.025C145.4 157.765 145.341 154.502 145.121 151.248C144.887 147.705 144.429 144.074 142.805 140.936C141.973 139.303 140.823 137.851 140.04 136.191C139.628 135.314 139.32 134.388 139.124 133.434C138.499 136.324 138.821 139.347 140.04 142.026C140.823 143.685 141.964 145.146 142.805 146.78C144.429 149.909 144.887 153.539 145.121 157.092C145.246 158.397 145.296 159.711 145.296 161.025Z" fill="black"/>
<path opacity="0.08" d="M239.738 145.751C239.633 147.425 239.661 149.104 239.822 150.773C240.738 141.671 246.051 132.759 244.777 123.977C243.869 131.134 240.238 138.378 239.738 145.751Z" fill="black"/>
<path opacity="0.08" d="M239.039 183.006C235.266 187.751 228.52 189.826 226.18 195.479C224.881 198.625 225.239 202.316 223.856 205.419C221.358 210.96 214.579 212.472 208.724 213.198C200.937 214.175 193.075 214.979 185.246 214.331C177.418 213.682 169.581 211.513 163.076 206.957C156.772 202.54 152.033 196.118 147.952 189.454C146.366 187.102 145.167 184.494 144.404 181.735C144.294 181.262 144.207 180.783 144.146 180.3C143.84 182.721 143.927 185.178 144.404 187.57C145.166 190.332 146.365 192.943 147.952 195.297C152.033 201.953 156.772 208.375 163.076 212.792C169.581 217.347 177.426 219.525 185.246 220.165C193.067 220.805 200.937 220.01 208.724 219.033C214.554 218.307 221.366 216.794 223.856 211.253C225.239 208.15 224.881 204.459 226.18 201.322C228.52 195.66 235.266 193.542 239.039 188.84C242.37 184.691 242.986 179.012 242.528 173.558C242.304 176.999 241.088 180.29 239.039 183.006Z" fill="black"/>
</g>
<path d="M220.725 222.793C217.735 226.25 213.23 228.057 208.732 228.29C204.23 228.384 199.766 227.421 195.673 225.472C188.133 222.035 181.565 216.65 176.597 209.833C171.629 203.015 168.425 194.99 167.291 186.524C167.046 185.241 167.1 183.916 167.449 182.66C168.656 179.133 173.145 178.563 176.16 176.471C178.909 174.578 180.449 171.285 181.215 167.922C181.415 167.015 181.582 166.107 181.715 165.182C182.065 162.719 182.248 160.221 182.665 157.766C182.8 156.581 183.193 155.443 183.814 154.438C184.609 153.417 185.653 152.635 186.837 152.173C193.875 149.001 203.044 150.445 210.04 153.193C212.38 154.118 211.93 154.395 211.039 156.78C210.466 158.3 209.969 159.85 209.548 161.422C209.423 161.863 209.307 162.287 209.199 162.753C208.206 166.814 207.692 170.985 207.666 175.174C207.666 179.012 208.091 183.032 210.115 186.256C213.338 191.364 219.892 193.516 222.824 198.815C223.891 200.924 224.54 203.235 224.731 205.609C225.439 211.634 224.631 218.255 220.725 222.793Z" fill="#FBBEBE"/>
<path d="M145.346 607.959C144.722 610.364 144.441 612.851 144.513 615.34L144.279 628.306C144.113 637.659 143.971 647.193 146.628 656.13C147.438 659.255 148.887 662.161 150.876 664.653C151.878 665.889 153.119 666.892 154.52 667.596C155.92 668.301 157.448 668.691 159.004 668.742C160.292 668.69 161.567 668.454 162.793 668.041C165.025 667.367 167.357 666.313 168.565 664.255C170.172 661.507 169.281 658.015 168.64 654.868C167.216 647.867 167.266 640.649 167.324 633.492L167.465 616.006C167.417 613.629 167.562 611.252 167.899 608.901C168.223 607.025 168.79 605.184 168.931 603.291C169.123 601.821 168.788 600.329 167.99 599.099C167.185 598.14 166.1 597.481 164.9 597.223C162.76 596.653 160.511 596.8 158.321 596.454C157.339 596.322 156.384 596.03 155.489 595.589C154.956 595.321 153.824 594.085 153.274 594.094C152.191 594.094 151.483 597.18 150.884 598.243C149.043 601.45 146.478 604.311 145.346 607.959Z" fill="#FBBEBE"/>
<path d="M214.345 487.802C208.416 506.178 212.447 526.457 210.298 545.784C209.519 551.891 208.427 557.95 207.025 563.936L196.723 611.546C195.015 619.464 193.292 627.433 193.058 635.541C192.825 643.649 194.158 651.964 198.189 658.94C200.591 662.987 203.816 666.44 207.638 669.059C211.46 671.678 215.787 673.398 220.317 674.101C221.779 674.313 223.163 674.917 224.331 675.854C225.5 676.79 226.413 678.028 226.979 679.443C227.152 679.89 227.283 680.353 227.371 680.826C227.606 681.966 227.549 683.15 227.205 684.26C226.862 685.37 226.244 686.367 225.414 687.153C223.748 688.536 221.483 688.726 219.376 688.544C209.482 687.68 201.228 680.004 191.451 678.172C183.039 676.607 173.962 679.46 166.033 676.184C165.515 675.992 165.037 675.698 164.626 675.319C164.162 674.822 163.829 674.208 163.659 673.539C161.794 667.488 165.625 661.368 168.157 655.594C171.759 647.348 172.874 638.164 171.355 629.248C169.623 619.187 171.413 608.555 171.929 598.304C172.48 588.803 173.727 579.36 175.661 570.056C176.91 563.841 177.967 557.488 180.399 551.653C181.857 548.196 183.781 544.902 185.313 541.454C188.145 535.083 189.594 528.159 190.993 521.296C193.808 507.466 196.54 493.524 196.54 479.4C201.78 479.387 206.976 480.399 211.855 482.382C212.847 482.8 213.653 483.588 214.113 484.591C214.574 485.593 214.657 486.739 214.345 487.802Z" fill="#FBBEBE"/>
<path opacity="0.08" d="M214.345 487.802C208.416 506.178 212.447 526.457 210.298 545.784C209.519 551.891 208.427 557.95 207.025 563.936L196.723 611.546C195.015 619.464 193.292 627.433 193.058 635.541C192.825 643.649 194.158 651.964 198.189 658.94C200.591 662.987 203.816 666.44 207.638 669.059C211.46 671.678 215.787 673.398 220.317 674.101C221.779 674.313 223.163 674.917 224.331 675.854C225.5 676.79 226.413 678.028 226.979 679.443C227.152 679.89 227.283 680.353 227.371 680.826C227.606 681.966 227.549 683.15 227.205 684.26C226.862 685.37 226.244 686.367 225.414 687.153C223.748 688.536 221.483 688.726 219.376 688.544C209.482 687.68 201.228 680.004 191.451 678.172C183.039 676.607 173.962 679.46 166.033 676.184C165.515 675.992 165.037 675.698 164.626 675.319C164.162 674.822 163.829 674.208 163.659 673.539C161.794 667.488 165.625 661.368 168.157 655.594C171.759 647.348 172.874 638.164 171.355 629.248C169.623 619.187 171.413 608.555 171.929 598.304C172.48 588.803 173.727 579.36 175.661 570.056C176.91 563.841 177.967 557.488 180.399 551.653C181.857 548.196 183.781 544.902 185.313 541.454C188.145 535.083 189.594 528.159 190.993 521.296C193.808 507.466 196.54 493.524 196.54 479.4C201.78 479.387 206.976 480.399 211.855 482.382C212.847 482.8 213.653 483.588 214.113 484.591C214.574 485.593 214.657 486.739 214.345 487.802Z" fill="black"/>
<path d="M220.3 479.123C219.967 488.055 219.648 496.987 219.342 505.919C219.342 506.222 219.342 506.515 219.342 506.783C219.303 510.208 219.025 513.626 218.51 517.009C217.385 523.354 214.62 529.249 211.697 534.945C210.827 536.749 209.828 538.483 208.707 540.131C207.724 541.514 206.583 542.776 205.667 544.194C203.294 547.876 202.561 552.388 201.17 556.571C194.816 575.657 174.986 587.17 168.34 606.135C163.307 604.675 158.385 602.829 153.615 600.611C153.133 600.509 152.677 600.301 152.278 600.001C151.879 599.701 151.546 599.315 151.302 598.871C151.059 598.426 150.909 597.933 150.864 597.424C150.82 596.914 150.88 596.401 151.042 595.918C152.558 584.309 155.206 572.882 157.855 561.472C159.629 553.788 161.477 545.974 165.458 539.232C168.79 533.596 173.478 528.998 177.876 524.209C179.45 522.481 181.074 520.579 181.44 518.236C181.584 516.789 181.485 515.327 181.149 513.915C180.249 508.728 179.6 503.499 179.2 498.226C179.2 497.932 179.2 497.63 179.125 497.362C178.75 493.394 177.843 488.234 178.675 484.526C180.183 477.784 192.833 476.401 198.372 476.262C205.709 476.046 213.046 477.568 220.3 479.123Z" fill="#FBBEBE"/>
<path d="M235.333 299.886C243.736 303.595 253.364 302.531 262.283 300.448C271.203 298.365 280.031 295.34 289.167 295.262C291.724 295.262 294.938 296.049 295.38 298.668C295.613 300.033 294.922 301.373 294.255 302.583C293.031 304.822 291.715 307.156 289.608 308.504C287.943 309.55 286.027 309.896 284.178 310.44C280.722 311.46 277.516 313.241 274.184 314.607C268.529 316.923 262.525 318.064 256.503 319.153C253.71 319.795 250.85 320.065 247.992 319.957C246.084 319.75 244.2 319.36 242.362 318.79C236.948 317.269 231.596 315.54 226.305 313.604C225.256 313.215 224.09 312.74 223.673 311.633C223.481 310.966 223.438 310.263 223.548 309.576C223.758 306.798 223.522 304.002 222.849 301.304C222.507 299.956 219.834 295.141 220.733 294.164C222.807 291.891 233.234 298.962 235.333 299.886Z" fill="#FBBEBE"/>
<path opacity="0.08" d="M235.333 299.886C243.736 303.595 253.364 302.531 262.283 300.448C271.203 298.365 280.031 295.34 289.167 295.262C291.724 295.262 294.938 296.049 295.38 298.668C295.613 300.033 294.922 301.373 294.255 302.583C293.031 304.822 291.715 307.156 289.608 308.504C287.943 309.55 286.027 309.896 284.178 310.44C280.722 311.46 277.516 313.241 274.184 314.607C268.529 316.923 262.525 318.064 256.503 319.153C253.71 319.795 250.85 320.065 247.992 319.957C246.084 319.75 244.2 319.36 242.362 318.79C236.948 317.269 231.596 315.54 226.305 313.604C225.256 313.215 224.09 312.74 223.673 311.633C223.481 310.966 223.438 310.263 223.548 309.576C223.758 306.798 223.522 304.002 222.849 301.304C222.507 299.956 219.834 295.141 220.733 294.164C222.807 291.891 233.234 298.962 235.333 299.886Z" fill="black"/>
<path opacity="0.1" d="M211.039 156.78C210.466 158.3 209.969 159.85 209.548 161.422C205.658 164.577 201.023 166.59 196.127 167.251C191.231 167.913 186.254 167.198 181.715 165.182C182.065 162.719 182.248 160.221 182.665 157.766C182.8 156.58 183.193 155.443 183.814 154.438C184.609 153.417 185.653 152.635 186.837 152.173C193.875 149.001 203.044 150.445 210.04 153.193C212.38 154.118 211.922 154.395 211.039 156.78Z" fill="black"/>
<path d="M192.584 166.323C207.804 166.323 220.142 153.518 220.142 137.721C220.142 121.924 207.804 109.119 192.584 109.119C177.364 109.119 165.025 121.924 165.025 137.721C165.025 153.518 177.364 166.323 192.584 166.323Z" fill="#FBBEBE"/>
<path opacity="0.08" d="M220.3 479.123C219.967 488.055 219.648 496.987 219.342 505.919C214.92 506.178 210.523 504.839 206.275 503.525C197.431 500.811 188.211 498.14 179.075 497.344C178.7 493.377 177.793 488.217 178.625 484.509C180.133 477.766 192.783 476.383 198.322 476.245C205.709 476.046 213.046 477.568 220.3 479.123Z" fill="black"/>
<path d="M248.9 492.063C248.417 493.031 247.784 494.397 247.001 493.688C237.606 492.824 229.653 501.321 220.275 502.332C215.536 502.842 210.823 501.407 206.275 500.007C190.985 495.305 174.578 490.749 159.395 495.745C159.203 486.724 158.455 477.725 157.155 468.803C155.723 459.027 153.624 449.346 152.541 439.518C150.526 421.271 152.025 402.79 150.559 384.492C149.976 377.11 148.893 369.797 148.277 362.415C146.803 344.964 145.171 326.388 152.158 310.441C153.157 308.136 154.162 305.845 155.173 303.569C155.48 302.97 155.675 302.316 155.748 301.641C155.759 301.301 155.714 300.962 155.614 300.638C155.206 299.186 153.857 298.045 153.049 296.68C151.683 294.45 151.833 291.597 152.025 288.961C152.116 287.846 152.4 286.93 152.475 285.814C149.551 281.605 147.844 276.799 146.561 271.768C145.087 266.063 144.155 260.082 142.522 254.429C139.899 245.353 135.41 236.908 133.211 227.711C132.078 222.983 131.995 217.892 131.937 213.017C131.924 211.032 132.066 209.049 132.362 207.087C132.745 204.624 133.636 202.316 135.818 201.253C137.525 198.659 138.075 195.453 138.175 192.306C138.258 190.206 138.175 188.036 138.908 186.074C140.398 182.167 144.738 180.317 148.718 179.704C152.699 179.09 156.938 179.237 160.62 177.482C162.006 176.777 163.328 175.94 164.567 174.984C169.311 171.707 173.858 168.134 178.184 164.283C178.288 164.175 178.417 164.098 178.559 164.059C178.75 164.059 178.917 164.188 179.067 164.318C182.531 167.516 185.979 170.714 189.444 173.904C191.334 175.632 193.225 177.361 194.966 179.289C197.442 181.994 199.598 184.998 201.387 188.235C202.23 189.704 202.987 191.226 203.652 192.79C204.696 195.206 205.545 197.706 206.192 200.267C206.542 201.624 206.825 202.99 207.025 204.364C207.183 205.358 207.316 206.361 207.408 207.381C207.452 207.715 207.486 208.052 207.508 208.392C208.088 208.269 208.636 208.018 209.115 207.658C209.627 207.281 210.023 206.758 210.256 206.154C210.468 205.597 210.616 205.017 210.698 204.425C210.799 203.674 210.855 202.918 210.864 202.16C210.864 201.296 210.923 200.354 210.923 199.455C210.927 197.88 210.785 196.308 210.498 194.761C209.94 191.926 208.732 189.272 207.999 186.48C207.266 183.688 207.033 180.551 208.399 178.018C208.915 177.059 209.873 176.125 210.898 176.35C211.283 176.488 211.634 176.715 211.922 177.015C212.211 177.315 212.43 177.678 212.563 178.079C213.04 179.221 213.278 180.455 213.263 181.7C213.263 182.305 213.263 182.798 213.796 183.101C213.921 185.936 216.028 188.287 218.31 189.817C220.592 191.347 223.19 192.462 225.231 194.355C227.829 196.741 229.261 200.146 231.06 203.223C232.13 204.835 233.005 206.577 233.667 208.41C234.071 210.166 234.222 211.975 234.117 213.777C234.011 224.939 233.895 236.096 233.767 247.246C233.575 251.942 233.798 256.647 234.433 261.301C234.858 263.894 235.549 266.426 235.599 269.08C235.774 276.393 230.852 282.538 227.438 288.961C224.939 293.602 225.863 299.472 228.054 304.286C230.244 309.101 233.576 313.215 236.132 317.814C245.185 334.098 243.703 354.117 243.17 372.952C242.354 402.217 244.523 431.489 249.641 460.28C251.523 470.903 253.705 482.469 248.9 492.063Z" fill="#3F3D56"/>
<path opacity="0.08" d="M207.05 204.425C206.134 204.425 205.234 204.52 204.327 204.624C204.327 205.488 204.327 206.352 204.327 207.217C205.343 207.217 206.384 207.312 207.408 207.441C207.974 207.511 208.549 207.588 209.115 207.718C210.91 208.038 212.615 208.76 214.112 209.836C216.911 211.902 218.56 215.999 216.969 219.145L215.928 219.595C216.35 220.764 216.394 222.045 216.053 223.242C215.561 224.375 213.937 225.032 213.138 224.107C212.238 223.043 213.046 220.908 211.839 220.252C211.447 220.093 211.012 220.094 210.622 220.255C210.231 220.415 209.913 220.723 209.732 221.116C209.411 221.938 209.333 222.841 209.507 223.709C210.34 230.546 213.488 237.003 213.604 243.901C213.646 246.122 213.688 248.75 212.188 250.323C209.318 253.366 206.436 256.411 203.544 259.46C198.164 265.147 192.775 270.843 187.095 276.203C178.303 284.515 168.829 292.015 158.779 298.616C157.721 299.316 156.655 299.99 155.589 300.673C155.181 299.221 153.832 298.08 153.024 296.714C151.658 294.484 151.808 291.632 152 288.995C152.091 287.88 152.375 286.964 152.45 285.849C149.526 281.64 147.819 276.834 146.536 271.803C146.92 271.803 147.286 271.803 147.661 271.803C151.675 271.742 155.523 270.238 159.262 268.752C162.627 267.515 165.912 266.057 169.098 264.387C173.892 261.595 178.363 258.242 182.423 254.394C184.98 252.095 188.036 249.9 191.409 249.692C193.425 247.54 196.54 246.33 197.581 243.529C198.023 241.957 198.072 240.294 197.722 238.697C197.166 234.905 196.385 231.152 195.382 227.46C194.549 224.565 194.774 221.712 194.249 218.748C193.547 215.489 193.222 212.155 193.283 208.816C193.65 202.566 196.689 196.887 199.654 191.442C200.246 190.396 200.82 189.333 201.387 188.27C201.861 187.405 202.344 186.541 202.819 185.677C203.385 185.793 203.897 186.105 204.27 186.562C204.644 187.019 204.857 187.593 204.876 188.192C204.881 189.39 204.619 190.574 204.11 191.649C203.952 192.047 203.81 192.445 203.652 192.842C202.303 196.36 200.937 199.878 199.588 203.405C201.702 202.185 203.911 201.153 206.192 200.319C207.152 200.002 208.135 199.768 209.132 199.619C209.731 199.534 210.335 199.496 210.939 199.507C213.796 199.507 216.677 200.552 218.435 202.869C219.101 203.733 219.551 205.073 218.843 205.903C216.192 205.13 213.47 204.652 210.723 204.477C209.498 204.373 208.274 204.347 207.05 204.425Z" fill="black"/>
<path d="M246.01 293.568L233.634 337.928L303.375 313.414L312.37 274.889L246.01 293.568ZM276.375 293.568C273.876 293.568 271.877 292.522 271.877 291.234C271.877 289.946 273.893 288.9 276.375 288.9C278.856 288.9 280.88 289.946 280.88 291.234C280.88 292.522 278.865 293.568 276.375 293.568Z" fill="#464353"/>
<path d="M195.399 135.387C211.861 135.387 225.206 128.592 225.206 120.209C225.206 111.826 211.861 105.03 195.399 105.03C178.937 105.03 165.592 111.826 165.592 120.209C165.592 128.592 178.937 135.387 195.399 135.387Z" fill="#2F2E41"/>
<path opacity="0.9" d="M256.129 303.491C258.304 303.491 260.068 302.969 260.068 302.324C260.068 301.68 258.304 301.157 256.129 301.157C253.953 301.157 252.189 301.68 252.189 302.324C252.189 302.969 253.953 303.491 256.129 303.491Z" fill="#EBB268"/>
<path opacity="0.9" d="M251.631 309.325C253.807 309.325 255.571 308.803 255.571 308.159C255.571 307.514 253.807 306.992 251.631 306.992C249.456 306.992 247.692 307.514 247.692 308.159C247.692 308.803 249.456 309.325 251.631 309.325Z" fill="#FBBEBE"/>
<path opacity="0.9" d="M280.88 301.148C283.056 301.148 284.82 300.626 284.82 299.982C284.82 299.337 283.056 298.815 280.88 298.815C278.705 298.815 276.941 299.337 276.941 299.982C276.941 300.626 278.705 301.148 280.88 301.148Z" fill="#FBBEBE"/>
<path opacity="0.9" d="M255.004 309.325C257.18 309.325 258.944 308.803 258.944 308.159C258.944 307.514 257.18 306.992 255.004 306.992C252.829 306.992 251.065 307.514 251.065 308.159C251.065 308.803 252.829 309.325 255.004 309.325Z" fill="#FBBEBE"/>
<path opacity="0.9" d="M248.258 308.159C250.434 308.159 252.198 307.636 252.198 306.992C252.198 306.347 250.434 305.825 248.258 305.825C246.083 305.825 244.319 306.347 244.319 306.992C244.319 307.636 246.083 308.159 248.258 308.159Z" fill="#FBBEBE"/>
<path opacity="0.9" d="M248.258 311.659C250.434 311.659 252.198 311.137 252.198 310.492C252.198 309.848 250.434 309.325 248.258 309.325C246.083 309.325 244.319 309.848 244.319 310.492C244.319 311.137 246.083 311.659 248.258 311.659Z" fill="#FBBEBE"/>
<path opacity="0.9" d="M257.253 306.992C259.428 306.992 261.192 306.469 261.192 305.825C261.192 305.18 259.428 304.658 257.253 304.658C255.077 304.658 253.314 305.18 253.314 305.825C253.314 306.469 255.077 306.992 257.253 306.992Z" fill="#FBBEBE"/>
<path opacity="0.9" d="M250.507 304.658C252.683 304.658 254.446 304.135 254.446 303.491C254.446 302.846 252.683 302.324 250.507 302.324C248.331 302.324 246.568 302.846 246.568 303.491C246.568 304.135 248.331 304.658 250.507 304.658Z" fill="#FBBEBE"/>
<path opacity="0.9" d="M258.386 308.159C260.561 308.159 262.325 307.636 262.325 306.992C262.325 306.347 260.561 305.825 258.386 305.825C256.21 305.825 254.446 306.347 254.446 306.992C254.446 307.636 256.21 308.159 258.386 308.159Z" fill="#EBB268"/>
<path opacity="0.9" d="M260.634 302.315C262.81 302.315 264.573 301.793 264.573 301.148C264.573 300.504 262.81 299.982 260.634 299.982C258.459 299.982 256.695 300.504 256.695 301.148C256.695 301.793 258.459 302.315 260.634 302.315Z" fill="#EBB268"/>
<path opacity="0.9" d="M260.634 304.658C262.81 304.658 264.573 304.135 264.573 303.491C264.573 302.846 262.81 302.324 260.634 302.324C258.459 302.324 256.695 302.846 256.695 303.491C256.695 304.135 258.459 304.658 260.634 304.658Z" fill="#EBB268"/>
<path opacity="0.9" d="M261.758 308.159C263.934 308.159 265.698 307.636 265.698 306.992C265.698 306.347 263.934 305.825 261.758 305.825C259.583 305.825 257.819 306.347 257.819 306.992C257.819 307.636 259.583 308.159 261.758 308.159Z" fill="#EBB268"/>
<path opacity="0.9" d="M273.002 303.491C275.177 303.491 276.941 302.969 276.941 302.324C276.941 301.68 275.177 301.157 273.002 301.157C270.826 301.157 269.062 301.68 269.062 302.324C269.062 302.969 270.826 303.491 273.002 303.491Z" fill="#EBB268"/>
<path opacity="0.9" d="M277.499 302.315C279.675 302.315 281.438 301.793 281.438 301.148C281.438 300.504 279.675 299.982 277.499 299.982C275.323 299.982 273.56 300.504 273.56 301.148C273.56 301.793 275.323 302.315 277.499 302.315Z" fill="#EBB268"/>
<path opacity="0.9" d="M277.499 304.658C279.675 304.658 281.438 304.135 281.438 303.491C281.438 302.846 279.675 302.324 277.499 302.324C275.323 302.324 273.56 302.846 273.56 303.491C273.56 304.135 275.323 304.658 277.499 304.658Z" fill="#EBB268"/>
<path opacity="0.9" d="M271.877 308.159C274.053 308.159 275.817 307.636 275.817 306.992C275.817 306.347 274.053 305.825 271.877 305.825C269.702 305.825 267.938 306.347 267.938 306.992C267.938 307.636 269.702 308.159 271.877 308.159Z" fill="#EBB268"/>
<path opacity="0.9" d="M273.002 308.159C275.177 308.159 276.941 307.636 276.941 306.992C276.941 306.347 275.177 305.825 273.002 305.825C270.826 305.825 269.062 306.347 269.062 306.992C269.062 307.636 270.826 308.159 273.002 308.159Z" fill="#EBB268"/>
<path opacity="0.9" d="M271.877 308.159C274.053 308.159 275.817 307.636 275.817 306.992C275.817 306.347 274.053 305.825 271.877 305.825C269.702 305.825 267.938 306.347 267.938 306.992C267.938 307.636 269.702 308.159 271.877 308.159Z" fill="#EBB268"/>
<path opacity="0.9" d="M268.504 308.159C270.68 308.159 272.444 307.636 272.444 306.992C272.444 306.347 270.68 305.825 268.504 305.825C266.329 305.825 264.565 306.347 264.565 306.992C264.565 307.636 266.329 308.159 268.504 308.159Z" fill="#EBB268"/>
<path opacity="0.9" d="M264.007 303.491C266.183 303.491 267.946 302.969 267.946 302.324C267.946 301.68 266.183 301.157 264.007 301.157C261.832 301.157 260.068 301.68 260.068 302.324C260.068 302.969 261.832 303.491 264.007 303.491Z" fill="#EBB268"/>
<path opacity="0.9" d="M265.131 305.825C267.307 305.825 269.071 305.302 269.071 304.658C269.071 304.013 267.307 303.491 265.131 303.491C262.956 303.491 261.192 304.013 261.192 304.658C261.192 305.302 262.956 305.825 265.131 305.825Z" fill="#EBB268"/>
<path opacity="0.9" d="M268.504 302.315C270.68 302.315 272.444 301.793 272.444 301.148C272.444 300.504 270.68 299.982 268.504 299.982C266.329 299.982 264.565 300.504 264.565 301.148C264.565 301.793 266.329 302.315 268.504 302.315Z" fill="#3F3D56"/>
<path opacity="0.9" d="M268.504 304.658C270.68 304.658 272.444 304.135 272.444 303.491C272.444 302.846 270.68 302.324 268.504 302.324C266.329 302.324 264.565 302.846 264.565 303.491C264.565 304.135 266.329 304.658 268.504 304.658Z" fill="#EBB268"/>
<path d="M267.38 305.825C269.556 305.825 271.319 305.302 271.319 304.658C271.319 304.013 269.556 303.491 267.38 303.491C265.204 303.491 263.441 304.013 263.441 304.658C263.441 305.302 265.204 305.825 267.38 305.825Z" fill="#F86D70"/>
<path opacity="0.9" d="M271.877 305.825C274.053 305.825 275.817 305.302 275.817 304.658C275.817 304.013 274.053 303.491 271.877 303.491C269.702 303.491 267.938 304.013 267.938 304.658C267.938 305.302 269.702 305.825 271.877 305.825Z" fill="#EBB268"/>
<path opacity="0.9" d="M274.126 310.492C276.302 310.492 278.065 309.97 278.065 309.325C278.065 308.681 276.302 308.159 274.126 308.159C271.95 308.159 270.187 308.681 270.187 309.325C270.187 309.97 271.95 310.492 274.126 310.492Z" fill="#EBB268"/>
<path opacity="0.9" d="M276.375 304.658C278.55 304.658 280.314 304.135 280.314 303.491C280.314 302.846 278.55 302.324 276.375 302.324C274.199 302.324 272.435 302.846 272.435 303.491C272.435 304.135 274.199 304.658 276.375 304.658Z" fill="#EBB268"/>
<path opacity="0.9" d="M276.375 306.992C278.55 306.992 280.314 306.469 280.314 305.825C280.314 305.18 278.55 304.658 276.375 304.658C274.199 304.658 272.435 305.18 272.435 305.825C272.435 306.469 274.199 306.992 276.375 306.992Z" fill="#EBB268"/>
<path opacity="0.9" d="M277.499 310.492C279.675 310.492 281.438 309.97 281.438 309.325C281.438 308.681 279.675 308.159 277.499 308.159C275.323 308.159 273.56 308.681 273.56 309.325C273.56 309.97 275.323 310.492 277.499 310.492Z" fill="#EBB268"/>
<path opacity="0.9" d="M288.75 305.825C290.926 305.825 292.69 305.302 292.69 304.658C292.69 304.013 290.926 303.491 288.75 303.491C286.575 303.491 284.811 304.013 284.811 304.658C284.811 305.302 286.575 305.825 288.75 305.825Z" fill="#EBB268"/>
<path opacity="0.9" d="M293.248 304.658C295.423 304.658 297.187 304.135 297.187 303.491C297.187 302.846 295.423 302.324 293.248 302.324C291.072 302.324 289.309 302.846 289.309 303.491C289.309 304.135 291.072 304.658 293.248 304.658Z" fill="#EBB268"/>
<path opacity="0.9" d="M293.248 306.992C295.423 306.992 297.187 306.469 297.187 305.825C297.187 305.18 295.423 304.658 293.248 304.658C291.072 304.658 289.309 305.18 289.309 305.825C289.309 306.469 291.072 306.992 293.248 306.992Z" fill="#A1616A"/>
<path opacity="0.9" d="M287.626 310.492C289.802 310.492 291.565 309.97 291.565 309.325C291.565 308.681 289.802 308.159 287.626 308.159C285.451 308.159 283.687 308.681 283.687 309.325C283.687 309.97 285.451 310.492 287.626 310.492Z" fill="#EBB268"/>
<path opacity="0.9" d="M288.75 310.492C290.926 310.492 292.69 309.97 292.69 309.325C292.69 308.681 290.926 308.159 288.75 308.159C286.575 308.159 284.811 308.681 284.811 309.325C284.811 309.97 286.575 310.492 288.75 310.492Z" fill="#EBB268"/>
<path opacity="0.9" d="M287.626 310.492C289.802 310.492 291.565 309.97 291.565 309.325C291.565 308.681 289.802 308.159 287.626 308.159C285.451 308.159 283.687 308.681 283.687 309.325C283.687 309.97 285.451 310.492 287.626 310.492Z" fill="#EBB268"/>
<path d="M284.253 310.492C286.429 310.492 288.193 309.97 288.193 309.325C288.193 308.681 286.429 308.159 284.253 308.159C282.078 308.159 280.314 308.681 280.314 309.325C280.314 309.97 282.078 310.492 284.253 310.492Z" fill="#F86D70"/>
<path opacity="0.9" d="M279.756 305.825C281.932 305.825 283.695 305.302 283.695 304.658C283.695 304.013 281.932 303.491 279.756 303.491C277.58 303.491 275.817 304.013 275.817 304.658C275.817 305.302 277.58 305.825 279.756 305.825Z" fill="#EBB268"/>
<path opacity="0.9" d="M280.88 308.159C283.056 308.159 284.82 307.636 284.82 306.992C284.82 306.347 283.056 305.825 280.88 305.825C278.705 305.825 276.941 306.347 276.941 306.992C276.941 307.636 278.705 308.159 280.88 308.159Z" fill="#EBB268"/>
<path opacity="0.9" d="M284.253 304.658C286.429 304.658 288.193 304.135 288.193 303.491C288.193 302.846 286.429 302.324 284.253 302.324C282.078 302.324 280.314 302.846 280.314 303.491C280.314 304.135 282.078 304.658 284.253 304.658Z" fill="#A1616A"/>
<path d="M284.253 306.992C286.429 306.992 288.193 306.469 288.193 305.825C288.193 305.18 286.429 304.658 284.253 304.658C282.078 304.658 280.314 305.18 280.314 305.825C280.314 306.469 282.078 306.992 284.253 306.992Z" fill="#F86D70"/>
<path d="M283.129 308.159C285.304 308.159 287.068 307.636 287.068 306.992C287.068 306.347 285.304 305.825 283.129 305.825C280.953 305.825 279.19 306.347 279.19 306.992C279.19 307.636 280.953 308.159 283.129 308.159Z" fill="#F86D70"/>
<path opacity="0.9" d="M244.883 316.425C247.021 316.009 248.661 315.157 248.547 314.524C248.432 313.891 246.606 313.715 244.468 314.131C242.329 314.548 240.689 315.399 240.803 316.032C240.918 316.666 242.744 316.842 244.883 316.425Z" fill="#EBB268"/>
<path opacity="0.9" d="M247.918 320.586C250.056 320.17 251.697 319.319 251.582 318.685C251.468 318.052 249.641 317.876 247.503 318.293C245.365 318.709 243.724 319.56 243.839 320.194C243.953 320.827 245.78 321.003 247.918 320.586Z" fill="#EBB268"/>
<path opacity="0.9" d="M249.093 314.425C251.231 314.009 252.871 313.158 252.757 312.524C252.642 311.891 250.816 311.715 248.678 312.131C246.54 312.548 244.899 313.399 245.014 314.033C245.128 314.666 246.954 314.842 249.093 314.425Z" fill="#EBB268"/>
<path opacity="0.9" d="M246.872 317.511C249.004 317.105 250.642 316.263 250.53 315.631C250.419 315 248.6 314.817 246.468 315.224C244.335 315.63 242.698 316.472 242.809 317.103C242.921 317.735 244.74 317.917 246.872 317.511Z" fill="#EBB268"/>
<path opacity="0.9" d="M251.237 319.945C253.375 319.529 255.016 318.678 254.901 318.044C254.787 317.411 252.96 317.235 250.822 317.652C248.684 318.068 247.043 318.919 247.158 319.553C247.272 320.186 249.099 320.362 251.237 319.945Z" fill="#EBB268"/>
<path opacity="0.9" d="M261.463 313.194C263.601 312.777 265.242 311.926 265.127 311.292C265.013 310.659 263.186 310.483 261.048 310.9C258.91 311.316 257.269 312.167 257.384 312.801C257.498 313.434 259.325 313.61 261.463 313.194Z" fill="#EBB268"/>
<path opacity="0.9" d="M265.681 311.194C267.82 310.777 269.46 309.926 269.346 309.293C269.231 308.659 267.405 308.483 265.266 308.9C263.128 309.317 261.488 310.168 261.602 310.801C261.717 311.434 263.543 311.61 265.681 311.194Z" fill="#EBB268"/>
<path opacity="0.9" d="M266.091 313.486C268.229 313.07 269.87 312.219 269.755 311.585C269.641 310.952 267.815 310.776 265.676 311.192C263.538 311.609 261.898 312.46 262.012 313.093C262.127 313.727 263.953 313.903 266.091 313.486Z" fill="#EBB268"/>
<path opacity="0.9" d="M261.189 318.004C263.327 317.588 264.968 316.737 264.853 316.103C264.739 315.47 262.913 315.294 260.774 315.71C258.636 316.127 256.995 316.978 257.11 317.612C257.225 318.245 259.051 318.421 261.189 318.004Z" fill="#EBB268"/>
<path opacity="0.9" d="M262.289 317.789C264.428 317.372 266.068 316.521 265.954 315.888C265.839 315.254 264.013 315.078 261.875 315.495C259.736 315.912 258.096 316.763 258.21 317.396C258.325 318.029 260.151 318.205 262.289 317.789Z" fill="#EBB268"/>
<path opacity="0.9" d="M261.189 318.004C263.327 317.588 264.968 316.737 264.853 316.103C264.739 315.47 262.913 315.294 260.774 315.71C258.636 316.127 256.995 316.978 257.11 317.612C257.225 318.245 259.051 318.421 261.189 318.004Z" fill="#EBB268"/>
<path opacity="0.9" d="M257.872 318.645C260.01 318.228 261.65 317.377 261.536 316.744C261.421 316.11 259.595 315.935 257.457 316.351C255.319 316.768 253.678 317.619 253.793 318.252C253.907 318.886 255.733 319.061 257.872 318.645Z" fill="#EBB268"/>
<path opacity="0.9" d="M252.619 314.926C254.757 314.51 256.398 313.659 256.283 313.025C256.169 312.392 254.343 312.216 252.204 312.633C250.066 313.049 248.426 313.9 248.54 314.534C248.655 315.167 250.481 315.343 252.619 314.926Z" fill="#3F3D56"/>
<path opacity="0.9" d="M254.144 316.993C256.283 316.577 257.923 315.726 257.809 315.092C257.694 314.459 255.868 314.283 253.73 314.7C251.591 315.116 249.951 315.967 250.065 316.601C250.18 317.234 252.006 317.41 254.144 316.993Z" fill="#EBB268"/>
<path opacity="0.9" d="M256.836 312.909C258.974 312.493 260.615 311.642 260.5 311.008C260.386 310.375 258.56 310.199 256.421 310.616C254.283 311.032 252.642 311.883 252.757 312.517C252.872 313.15 254.698 313.326 256.836 312.909Z" fill="#3F3D56"/>
<path opacity="0.9" d="M257.246 315.211C259.384 314.794 261.025 313.943 260.91 313.309C260.796 312.676 258.969 312.5 256.831 312.917C254.693 313.333 253.052 314.184 253.167 314.818C253.281 315.451 255.108 315.627 257.246 315.211Z" fill="#EBB268"/>
<path opacity="0.9" d="M256.355 316.578C258.493 316.162 260.134 315.31 260.019 314.677C259.905 314.044 258.078 313.868 255.94 314.284C253.802 314.701 252.161 315.552 252.276 316.185C252.39 316.819 254.217 316.995 256.355 316.578Z" fill="#3F3D56"/>
<path opacity="0.9" d="M260.772 315.712C262.911 315.295 264.551 314.444 264.437 313.811C264.322 313.177 262.496 313.001 260.358 313.418C258.219 313.834 256.579 314.686 256.693 315.319C256.808 315.952 258.634 316.128 260.772 315.712Z" fill="#EBB268"/>
<path opacity="0.9" d="M263.816 319.864C265.954 319.448 267.595 318.597 267.48 317.963C267.366 317.33 265.54 317.154 263.401 317.57C261.263 317.987 259.623 318.838 259.737 319.472C259.852 320.105 261.678 320.281 263.816 319.864Z" fill="#EBB268"/>
<path opacity="0.9" d="M264.989 313.695C267.128 313.278 268.768 312.427 268.654 311.794C268.539 311.16 266.713 310.984 264.575 311.401C262.436 311.817 260.796 312.669 260.91 313.302C261.025 313.935 262.851 314.111 264.989 313.695Z" fill="#EBB268"/>
<path opacity="0.9" d="M265.399 315.996C267.538 315.579 269.178 314.728 269.064 314.095C268.949 313.461 267.123 313.285 264.984 313.702C262.846 314.119 261.206 314.97 261.32 315.603C261.435 316.236 263.261 316.412 265.399 315.996Z" fill="#EBB268"/>
<path opacity="0.9" d="M267.125 319.223C269.264 318.807 270.904 317.956 270.79 317.322C270.675 316.689 268.849 316.513 266.71 316.93C264.572 317.346 262.932 318.197 263.046 318.831C263.161 319.464 264.987 319.64 267.125 319.223Z" fill="#EBB268"/>
<path opacity="0.9" d="M277.353 312.48C279.491 312.064 281.132 311.212 281.017 310.579C280.903 309.946 279.076 309.77 276.938 310.186C274.8 310.603 273.159 311.454 273.274 312.087C273.388 312.721 275.215 312.897 277.353 312.48Z" fill="#EBB268"/>
<path opacity="0.9" d="M281.571 310.472C283.71 310.055 285.35 309.204 285.236 308.571C285.121 307.937 283.295 307.761 281.156 308.178C279.018 308.594 277.378 309.446 277.492 310.079C277.607 310.712 279.433 310.888 281.571 310.472Z" fill="#EBB268"/>
<path opacity="0.9" d="M281.988 312.764C284.126 312.348 285.767 311.497 285.652 310.863C285.538 310.23 283.711 310.054 281.573 310.47C279.435 310.887 277.794 311.738 277.909 312.372C278.023 313.005 279.85 313.181 281.988 312.764Z" fill="#A1616A"/>
<path opacity="0.9" d="M277.079 317.282C279.217 316.866 280.858 316.014 280.743 315.381C280.629 314.748 278.803 314.572 276.664 314.988C274.526 315.405 272.885 316.256 273 316.889C273.114 317.523 274.941 317.699 277.079 317.282Z" fill="#EBB268"/>
<path opacity="0.9" d="M278.188 317.065C280.326 316.649 281.966 315.797 281.852 315.164C281.737 314.531 279.911 314.355 277.773 314.771C275.635 315.188 273.994 316.039 274.109 316.672C274.223 317.306 276.049 317.482 278.188 317.065Z" fill="#EBB268"/>
<path opacity="0.9" d="M277.079 317.282C279.217 316.866 280.858 316.014 280.743 315.381C280.629 314.748 278.803 314.572 276.664 314.988C274.526 315.405 272.885 316.256 273 316.889C273.114 317.523 274.941 317.699 277.079 317.282Z" fill="#EBB268"/>
<path opacity="0.9" d="M273.762 317.932C275.9 317.515 277.54 316.664 277.426 316.03C277.311 315.397 275.485 315.221 273.347 315.638C271.208 316.054 269.568 316.905 269.682 317.539C269.797 318.172 271.623 318.348 273.762 317.932Z" fill="#EBB268"/>
<path opacity="0.9" d="M265.828 315.093C267.96 314.686 269.597 313.845 269.486 313.213C269.374 312.582 267.555 312.399 265.423 312.806C263.291 313.212 261.653 314.054 261.765 314.685C261.876 315.317 263.695 315.499 265.828 315.093Z" fill="#A1616A"/>
<path opacity="0.9" d="M270.034 316.28C272.173 315.863 273.813 315.012 273.699 314.379C273.584 313.745 271.758 313.57 269.62 313.986C267.481 314.403 265.841 315.254 265.955 315.887C266.07 316.521 267.896 316.696 270.034 316.28Z" fill="#EBB268"/>
<path d="M179.5 157.1L178.667 157.965C178.667 157.965 216.469 219.335 224.839 225.861L227.413 223.7C227.413 223.7 217.752 205.289 179.5 157.1Z" fill="#2F2E41"/>
<path d="M229.628 225.956C229.628 225.956 227.637 222.222 226.871 222.966C226.105 223.709 223.64 225.438 223.965 225.982C224.289 226.527 226.463 229.518 226.463 229.518C226.463 229.518 229.311 229.431 230.186 226.855L229.628 225.956Z" fill="#464353"/>
<path opacity="0.9" d="M242.229 245.543L241.804 245.439C241.804 245.439 242.137 243.443 237.581 241.386C236.749 241.014 235.898 240.688 235.033 240.409C228.037 238.118 225.306 233.088 226.705 229.492C226.742 229.371 226.786 229.252 226.838 229.137L229.753 226.76L230.094 227.063C231.861 228.555 233.79 229.828 235.841 230.857C238.475 232.098 240.57 234.31 241.721 237.064C242.696 239.776 242.872 242.727 242.229 245.543Z" fill="#FDD8D8"/>
<path opacity="0.2" d="M229.528 227.4C229.528 227.4 230.519 229.647 235.733 232.301C240.946 234.955 242.054 242.673 242.054 242.673C242.054 242.673 239.339 235.525 235.166 234.211C230.994 232.897 229.145 227.806 229.145 227.806L229.528 227.4Z" stroke="#2F2E41" stroke-width="0.25" stroke-miterlimit="10"/>
<path opacity="0.2" d="M228.737 228.29C228.737 228.29 228.504 231.324 231.918 234.012C235.333 236.701 241.821 241.04 241.962 243.08C241.962 243.08 238.839 239.7 236.132 238.576C233.426 237.453 229.736 235.179 229.32 233.07C229.32 233.07 227.821 229.768 228.262 228.48L228.737 228.29Z" stroke="#2F2E41" stroke-width="0.25" stroke-miterlimit="10"/>
<path opacity="0.2" d="M227.687 228.964C227.687 228.964 226.288 231.877 229.703 235.949C231.354 237.531 233.335 238.696 235.491 239.354C237.893 240.224 240.023 241.754 241.654 243.78" stroke="#2F2E41" stroke-width="0.25" stroke-miterlimit="10"/>
<path opacity="0.9" d="M272.726 312.196C274.864 311.779 276.505 310.928 276.39 310.295C276.276 309.661 274.45 309.486 272.311 309.902C270.173 310.319 268.532 311.17 268.647 311.803C268.762 312.437 270.588 312.613 272.726 312.196Z" fill="#3F3D56"/>
<path opacity="0.9" d="M273.143 314.48C275.281 314.063 276.922 313.212 276.807 312.579C276.692 311.945 274.866 311.77 272.728 312.186C270.59 312.603 268.949 313.454 269.064 314.087C269.178 314.721 271.004 314.896 273.143 314.48Z" fill="#EBB268"/>
<path opacity="0.9" d="M272.243 315.847C274.381 315.431 276.022 314.58 275.907 313.946C275.793 313.313 273.967 313.137 271.828 313.554C269.69 313.97 268.05 314.821 268.164 315.455C268.279 316.088 270.105 316.264 272.243 315.847Z" fill="#EBB268"/>
<path d="M129.996 228.843C129.983 230.487 129.742 232.12 129.28 233.693C128.955 234.514 128.447 235.257 128.081 236.061C126.457 239.518 127.173 243.572 126.948 247.402C126.763 249.571 126.423 251.724 125.932 253.841C124.108 262.658 122.284 271.483 120.102 280.231C119.386 283.161 118.662 286.385 119.944 289.09C120.277 289.791 120.727 290.422 121.002 291.148C121.768 293.136 121.06 295.47 121.726 297.484C122.081 298.495 122.747 299.356 123.623 299.933C124.498 300.51 125.533 300.77 126.565 300.673C127.032 292.401 130.771 284.673 135.327 277.862C137.492 274.629 139.915 271.474 143.122 269.374C144.696 268.345 146.453 267.559 147.719 266.133C148.988 264.497 149.784 262.522 150.018 260.436C152.216 247.661 146.945 234.816 140.857 223.467C139.591 221.107 136.909 215.861 134.236 217.84C131.562 219.819 130.305 225.663 129.996 228.843Z" fill="#3F3D56"/>
<path opacity="0.1" d="M195.399 130.72C180.491 130.72 168.148 125.153 165.941 117.884C165.709 118.638 165.591 119.425 165.592 120.217C165.592 128.593 178.917 135.387 195.399 135.387C211.88 135.387 225.197 128.593 225.197 120.217C225.198 119.425 225.08 118.638 224.847 117.884C222.64 125.153 210.298 130.72 195.399 130.72Z" fill="black"/>
<g opacity="0.1">
<path opacity="0.1" d="M127.806 291.148C127.523 290.422 127.073 289.791 126.74 289.09C125.458 286.385 126.182 283.161 126.907 280.231C129.047 271.483 130.871 262.658 132.736 253.841C133.229 251.724 133.566 249.571 133.744 247.402C133.969 243.572 133.261 239.501 134.877 236.061C135.26 235.257 135.751 234.514 136.076 233.693C136.541 232.121 136.783 230.487 136.792 228.843C137.051 225.983 137.793 223.192 138.983 220.597C138.799 218.073 138.766 215.532 138.733 213.043C138.719 211.057 138.864 209.074 139.166 207.113C139.541 204.65 140.432 202.342 142.614 201.278C144.279 198.685 144.879 195.479 144.979 192.332C145.054 190.232 144.979 188.062 145.712 186.1C147.194 182.193 151.542 180.343 155.514 179.73C159.487 179.116 163.734 179.263 167.416 177.508C168.802 176.803 170.124 175.966 171.363 175.01C174.953 172.417 178.55 169.824 181.948 166.963L179.117 164.37C178.967 164.24 178.8 164.084 178.609 164.11C178.467 164.15 178.338 164.227 178.234 164.335C173.892 168.187 169.328 171.761 164.567 175.036C163.328 175.992 162.006 176.828 160.62 177.534C156.938 179.263 152.724 179.133 148.718 179.756C144.713 180.378 140.39 182.219 138.908 186.126C138.158 188.088 138.258 190.258 138.175 192.358C138.075 195.504 137.525 198.72 135.818 201.304C133.636 202.368 132.745 204.676 132.362 207.139C132.078 209.101 131.947 211.084 131.97 213.069C131.97 215.558 132.037 218.099 132.22 220.623C131.026 223.216 130.285 226.008 130.03 228.869C130.016 230.513 129.775 232.146 129.314 233.719C128.989 234.54 128.481 235.283 128.114 236.087C126.49 239.544 127.206 243.598 126.982 247.428C126.796 249.597 126.456 251.749 125.966 253.867C124.142 262.684 122.318 271.509 120.136 280.257C119.42 283.187 118.695 286.411 119.978 289.116C120.311 289.817 120.76 290.447 121.035 291.174C121.801 293.162 121.093 295.495 121.76 297.509C122.114 298.521 122.781 299.382 123.656 299.959C124.531 300.536 125.566 300.796 126.598 300.699C126.771 297.925 127.274 295.184 128.098 292.539C128.061 292.064 127.963 291.596 127.806 291.148Z" fill="black"/>
<path opacity="0.1" d="M209.199 190.249C209.623 191.113 210.031 191.978 210.398 192.842C211.445 195.256 212.295 197.757 212.938 200.319C213.288 201.676 213.571 203.042 213.771 204.416C213.929 205.41 214.062 206.413 214.154 207.433C214.193 207.767 214.226 208.104 214.254 208.444C214.834 208.321 215.382 208.07 215.861 207.709C216.376 207.325 216.773 206.794 217.002 206.18C217.208 205.622 217.353 205.042 217.435 204.451C217.54 203.7 217.598 202.944 217.61 202.186C217.61 201.322 217.66 200.38 217.66 199.481C217.665 197.906 217.523 196.334 217.235 194.787C216.686 191.952 215.47 189.298 214.737 186.506C214.679 186.308 214.637 186.091 214.587 185.884C214.141 185.049 213.88 184.122 213.821 183.17C213.304 182.867 213.271 182.375 213.288 181.77C213.303 180.525 213.065 179.29 212.588 178.148C212.455 177.747 212.236 177.384 211.947 177.084C211.659 176.785 211.308 176.557 210.923 176.419C209.881 176.194 208.924 177.128 208.424 178.087C207.058 180.62 207.283 183.766 208.024 186.55C208.341 187.777 208.774 189.013 209.199 190.249Z" fill="black"/>
<path opacity="0.1" d="M163.901 468.82C162.477 459.044 160.37 449.363 159.287 439.535C157.28 421.288 158.771 402.808 157.313 384.509C156.722 377.127 155.648 369.814 155.031 362.433C153.557 344.981 151.925 326.406 158.904 310.458C159.912 308.159 160.911 305.868 161.919 303.586C162.226 302.987 162.421 302.333 162.493 301.658C162.509 301.319 162.464 300.979 162.36 300.656C161.952 299.204 160.603 298.063 159.795 296.697C158.438 294.467 158.579 291.614 158.771 288.978C158.862 287.863 159.145 286.947 159.22 285.832C156.297 281.622 154.59 276.816 153.307 271.786C152.974 270.489 152.666 269.193 152.375 267.87C151.542 268.389 150.709 268.847 149.876 269.374C148.699 270.157 147.607 271.07 146.62 272.097C147.736 277.007 149.712 281.663 152.45 285.832C152.375 286.947 152.091 287.863 152 288.978C151.808 291.614 151.658 294.467 153.024 296.697C153.857 298.054 155.181 299.204 155.589 300.656C155.689 300.979 155.735 301.319 155.723 301.658C155.65 302.333 155.455 302.987 155.148 303.586C154.137 305.891 153.132 308.182 152.133 310.458C145.146 326.406 146.778 344.981 148.252 362.433C148.885 369.806 149.918 377.127 150.534 384.509C152 402.808 150.534 421.288 152.516 439.535C153.599 449.363 155.698 459.044 157.13 468.82C158.43 477.742 159.178 486.741 159.37 495.763C161.548 495.055 163.776 494.526 166.033 494.181C165.818 485.69 165.106 477.221 163.901 468.82Z" fill="black"/>
<path opacity="0.1" d="M213.021 500.041C201.362 496.463 189.111 492.988 177.21 493.723C186.954 494.293 196.831 497.18 206.275 500.041C210.823 501.442 215.536 502.876 220.275 502.366C220.667 502.366 221.058 502.245 221.45 502.185C218.595 501.678 215.778 500.962 213.021 500.041Z" fill="black"/>
</g>
<path d="M123.492 293.067L127.156 302.264C127.806 303.88 128.497 305.574 129.813 306.672C130.644 307.295 131.599 307.718 132.608 307.909C133.616 308.101 134.653 308.056 135.643 307.778C137.609 307.206 139.481 306.332 141.198 305.185C146.753 301.909 152.308 298.624 157.713 295.072C167.758 288.463 177.232 280.964 186.029 272.659C191.709 267.3 197.098 261.603 202.478 255.916L211.089 246.779C212.588 245.206 212.538 242.57 212.505 240.357C212.388 233.442 209.174 227.011 208.399 220.165C208.229 219.296 208.307 218.395 208.624 217.572C208.805 217.177 209.125 216.867 209.517 216.707C209.91 216.547 210.347 216.547 210.739 216.708C211.947 217.356 211.139 219.5 212.039 220.563C212.871 221.488 214.462 220.848 214.945 219.698C215.298 218.503 215.257 217.219 214.828 216.051L215.87 215.601C217.46 212.455 215.811 208.349 213.013 206.283C210.215 204.217 206.633 203.759 203.202 203.69V201.097C208.086 200.555 213.025 200.989 217.752 202.376C218.468 201.512 218.01 200.215 217.344 199.342C215.22 196.55 211.439 195.608 208.049 196.092C204.66 196.576 201.537 198.236 198.505 199.878L203.027 188.114C203.535 187.038 203.795 185.854 203.785 184.657C203.768 184.059 203.556 183.484 203.184 183.028C202.812 182.571 202.302 182.258 201.736 182.141L198.572 187.941C195.607 193.378 192.567 199.066 192.201 205.298C192.131 208.64 192.456 211.978 193.167 215.238C193.691 218.203 193.508 221.047 194.299 223.951C195.307 227.642 196.089 231.395 196.639 235.188C196.991 236.785 196.94 238.45 196.49 240.02C195.457 242.82 192.325 244.039 190.327 246.191C186.995 246.399 183.897 248.594 181.34 250.894C177.281 254.741 172.81 258.094 168.015 260.886C164.826 262.549 161.541 264.007 158.179 265.251C154.432 266.738 150.584 268.233 146.578 268.302C143.588 268.302 140.507 267.602 137.658 268.536C133.369 269.927 130.996 274.586 129.08 278.77L125.907 285.685C124.922 288.078 124.114 290.546 123.492 293.067Z" fill="#FBBEBE"/>
<path d="M135.077 277.326C137.3 274.016 139.799 270.792 143.097 268.683C143.713 268.285 144.346 267.922 144.971 267.55C142.414 267.421 139.84 267.049 137.417 267.827C133.011 269.262 130.571 273.998 128.589 278.312L125.308 285.374C124.291 287.81 123.456 290.325 122.809 292.894L125.932 300.673H126.007C126.524 292.202 130.38 284.302 135.077 277.326Z" fill="#3F3D56"/>
<path d="M275.817 293.914C277.059 293.914 278.065 292.66 278.065 291.113C278.065 289.566 277.059 288.312 275.817 288.312C274.575 288.312 273.568 289.566 273.568 291.113C273.568 292.66 274.575 293.914 275.817 293.914Z" fill="#FBBEBE"/>
<path d="M275.817 295.314C277.059 295.314 278.065 294.06 278.065 292.513C278.065 290.967 277.059 289.713 275.817 289.713C274.575 289.713 273.568 290.967 273.568 292.513C273.568 294.06 274.575 295.314 275.817 295.314Z" fill="#FBBEBE"/>
<path opacity="0.9" d="M242.737 247.453L242.162 247.332C242.162 247.332 242.612 244.886 236.465 242.38C236.474 241.959 236.529 241.542 236.632 241.135C236.694 240.802 236.791 240.477 236.923 240.167C237.039 239.863 237.187 239.573 237.365 239.302C237.708 238.676 238.184 238.138 238.756 237.729C239.135 237.454 239.558 237.249 240.005 237.124C240.33 237.029 240.667 236.983 241.004 236.986C241.352 236.992 241.699 237.039 242.037 237.124C243.178 239.752 243.619 243.149 242.737 247.453Z" fill="#EBB268"/>
<path d="M101.156 570.92C101.156 570.92 106.336 577.947 98.7653 588.562C91.1949 599.177 84.957 608.132 87.4805 614.753C87.4805 614.753 98.8986 595.045 108.193 594.768C117.487 594.492 111.358 582.779 101.156 570.92Z" fill="#EBB268"/>
<path opacity="0.1" d="M101.156 570.92C101.608 571.599 101.964 572.341 102.213 573.124C111.283 584.188 116.113 594.509 107.402 594.734C99.2817 594.967 89.5376 610.042 87.2056 613.845C87.2812 614.138 87.3729 614.427 87.4805 614.709C87.4805 614.709 98.8986 595.002 108.193 594.725C117.487 594.448 111.358 582.779 101.156 570.92Z" fill="black"/>
<path d="M110.758 579.892C110.758 582.364 110.492 584.37 110.158 584.37C109.825 584.37 109.567 582.364 109.567 579.892C109.567 577.42 109.9 578.579 110.225 578.579C110.55 578.579 110.758 577.412 110.758 579.892Z" fill="#FFD037"/>
<path d="M114.064 582.84C111.974 584.024 110.142 584.742 109.992 584.439C109.842 584.136 111.399 582.935 113.49 581.751C115.58 580.567 114.756 581.431 114.914 581.751C115.072 582.071 116.146 581.656 114.064 582.84Z" fill="#FFD037"/>
<path d="M73.7804 570.92C73.7804 570.92 68.6002 577.947 76.1706 588.562C83.7411 599.177 89.979 608.132 87.4555 614.753C87.4555 614.753 76.0374 595.045 66.743 594.768C57.4486 594.492 63.5533 582.779 73.7804 570.92Z" fill="#EBB268"/>
<path opacity="0.1" d="M73.7804 570.92C73.3283 571.599 72.9721 572.341 72.7227 573.124C63.6532 584.188 58.8228 594.509 67.5342 594.734C75.6543 594.967 85.3984 610.042 87.7303 613.845C87.6548 614.138 87.563 614.427 87.4555 614.709C87.4555 614.709 76.0374 595.002 66.743 594.725C57.4486 594.448 63.5533 582.779 73.7804 570.92Z" fill="black"/>
<path d="M64.1529 579.892C64.1529 582.364 64.4194 584.37 64.7525 584.37C65.0857 584.37 65.3438 582.364 65.3438 579.892C65.3438 577.42 65.0107 578.579 64.6859 578.579C64.3611 578.579 64.1529 577.412 64.1529 579.892Z" fill="#FFD037"/>
<path d="M60.8466 582.84C62.937 584.024 64.7609 584.742 64.9191 584.439C65.0773 584.136 63.5116 582.935 61.4212 581.751C59.3308 580.567 60.1553 581.431 59.9971 581.751C59.8388 582.071 58.7562 581.656 60.8466 582.84Z" fill="#FFD037"/>
<path d="M65.8019 613.836C65.8019 613.836 80.2765 613.378 84.6405 610.145C89.0046 606.913 106.919 603.075 108.001 608.244C109.084 613.413 129.755 633.968 113.406 634.106C97.058 634.244 75.4294 631.461 71.0737 628.712C66.718 625.964 65.8019 613.836 65.8019 613.836Z" fill="#A8A8A8"/>
<path opacity="0.2" d="M113.698 632.291C97.3578 632.429 75.7209 629.646 71.3652 626.897C68.0339 624.797 66.7263 617.268 66.2849 613.802H65.8019C65.8019 613.802 66.718 625.903 71.0737 628.678C75.4294 631.452 97.0663 634.21 113.406 634.071C118.129 634.071 119.761 632.291 119.669 629.706C119.011 631.305 117.212 632.291 113.698 632.291Z" fill="black"/>
<path d="M471.382 596.151C471.382 596.151 462.129 563.538 473.114 539.535C477.787 529.496 479.195 518.156 477.128 507.216C476.109 502.03 474.634 496.952 472.723 492.046" stroke="#535461" stroke-width="2" stroke-miterlimit="10"/>
<path d="M479.56 476.876C479.56 480.878 472.589 492.435 472.589 492.435C472.589 492.435 465.61 480.844 465.61 476.876C465.673 474.999 466.435 473.221 467.736 471.917C469.037 470.612 470.776 469.883 472.585 469.883C474.394 469.883 476.133 470.612 477.434 471.917C478.735 473.221 479.498 474.999 479.56 476.876Z" fill="#EBB268"/>
<path d="M491.087 499.021C488.996 502.375 477.07 508.166 477.07 508.166C477.07 508.166 477.287 494.509 479.377 491.155C480.382 489.544 481.963 488.413 483.771 488.011C485.58 487.609 487.468 487.969 489.021 489.012C490.574 490.055 491.664 491.695 492.051 493.573C492.439 495.45 492.092 497.41 491.087 499.021Z" fill="#EBB268"/>
<path d="M490.579 536.855C487.147 538.653 474.03 537.408 474.03 537.408C474.03 537.408 480.868 525.731 484.299 523.924C485.956 523.06 487.875 522.914 489.635 523.519C491.396 524.123 492.852 525.429 493.685 527.148C494.518 528.867 494.658 530.86 494.076 532.687C493.493 534.514 492.235 536.025 490.579 536.89V536.855Z" fill="#EBB268"/>
<path d="M483.991 565.388C480.893 567.765 467.767 568.846 467.767 568.846C467.767 568.846 472.598 556.139 475.696 553.762C476.432 553.195 477.268 552.783 478.158 552.551C479.047 552.319 479.972 552.271 480.879 552.41C481.786 552.549 482.658 552.872 483.445 553.36C484.232 553.849 484.918 554.494 485.465 555.258C486.012 556.022 486.408 556.89 486.632 557.813C486.855 558.736 486.902 559.695 486.768 560.637C486.634 561.578 486.323 562.483 485.852 563.3C485.381 564.117 484.76 564.829 484.024 565.397L483.991 565.388Z" fill="#EBB268"/>
<path d="M462.429 508.944C465.194 511.728 478.061 514.615 478.061 514.615C478.061 514.615 474.905 501.347 472.148 498.563C471.494 497.888 470.718 497.354 469.864 496.992C469.01 496.63 468.096 496.448 467.174 496.456C466.251 496.463 465.34 496.661 464.491 497.037C463.643 497.413 462.875 497.96 462.232 498.646C461.589 499.333 461.084 500.144 460.745 501.035C460.407 501.925 460.242 502.877 460.26 503.834C460.279 504.791 460.48 505.734 460.852 506.61C461.224 507.486 461.76 508.276 462.429 508.936V508.944Z" fill="#EBB268"/>
<path d="M455.108 542.396C458.548 544.194 471.657 542.949 471.657 542.949C471.657 542.949 464.827 531.271 461.388 529.465C459.743 528.667 457.864 528.565 456.149 529.181C454.433 529.798 453.017 531.084 452.2 532.766C451.383 534.449 451.229 536.395 451.772 538.193C452.315 539.991 453.512 541.498 455.108 542.396Z" fill="#EBB268"/>
<path d="M452.335 575.968C455.425 578.345 468.55 579.426 468.55 579.426C468.55 579.426 463.72 566.711 460.622 564.334C459.134 563.187 457.269 562.701 455.436 562.983C453.603 563.264 451.953 564.289 450.848 565.833C449.744 567.377 449.276 569.313 449.547 571.216C449.818 573.118 450.806 574.83 452.293 575.977L452.335 575.968Z" fill="#EBB268"/>
<path d="M479.56 476.876C479.56 480.878 472.589 492.435 472.589 492.435C472.589 492.435 465.61 480.844 465.61 476.876C465.673 474.999 466.435 473.221 467.736 471.917C469.037 470.612 470.776 469.883 472.585 469.883C474.394 469.883 476.133 470.612 477.434 471.917C478.735 473.221 479.498 474.999 479.56 476.876Z" fill="#EBB268"/>
<path d="M491.087 499.021C488.996 502.375 477.07 508.166 477.07 508.166C477.07 508.166 477.287 494.509 479.377 491.155C480.382 489.544 481.963 488.413 483.771 488.011C485.58 487.609 487.468 487.969 489.021 489.012C490.574 490.055 491.664 491.695 492.051 493.573C492.439 495.45 492.092 497.41 491.087 499.021Z" fill="#EBB268"/>
<path d="M490.579 536.855C487.147 538.653 474.03 537.408 474.03 537.408C474.03 537.408 480.868 525.731 484.299 523.924C485.956 523.06 487.875 522.914 489.635 523.519C491.396 524.123 492.852 525.429 493.685 527.148C494.518 528.867 494.658 530.86 494.076 532.687C493.493 534.514 492.235 536.025 490.579 536.89V536.855Z" fill="#EBB268"/>
<path d="M483.991 565.388C480.893 567.765 467.767 568.846 467.767 568.846C467.767 568.846 472.598 556.139 475.696 553.762C476.432 553.195 477.268 552.783 478.158 552.551C479.047 552.319 479.972 552.271 480.879 552.41C481.786 552.549 482.658 552.872 483.445 553.36C484.232 553.849 484.918 554.494 485.465 555.258C486.012 556.022 486.408 556.89 486.632 557.813C486.855 558.736 486.902 559.695 486.768 560.637C486.634 561.578 486.323 562.483 485.852 563.3C485.381 564.117 484.76 564.829 484.024 565.397L483.991 565.388Z" fill="#EBB268"/>
<path d="M462.429 508.944C465.194 511.728 478.061 514.615 478.061 514.615C478.061 514.615 474.905 501.347 472.148 498.563C471.494 497.888 470.718 497.354 469.864 496.992C469.01 496.63 468.096 496.448 467.174 496.456C466.251 496.463 465.34 496.661 464.491 497.037C463.643 497.413 462.875 497.96 462.232 498.646C461.589 499.333 461.084 500.144 460.745 501.035C460.407 501.925 460.242 502.877 460.26 503.834C460.279 504.791 460.48 505.734 460.852 506.61C461.224 507.486 461.76 508.276 462.429 508.936V508.944Z" fill="#EBB268"/>
<path d="M455.108 542.396C458.548 544.194 471.657 542.949 471.657 542.949C471.657 542.949 464.827 531.271 461.388 529.465C459.743 528.667 457.864 528.565 456.149 529.181C454.433 529.798 453.017 531.084 452.2 532.766C451.383 534.449 451.229 536.395 451.772 538.193C452.315 539.991 453.512 541.498 455.108 542.396Z" fill="#EBB268"/>
<path d="M452.335 575.968C455.425 578.345 468.55 579.426 468.55 579.426C468.55 579.426 463.72 566.711 460.622 564.334C459.134 563.187 457.269 562.701 455.436 562.983C453.603 563.264 451.953 564.289 450.848 565.833C449.744 567.377 449.276 569.313 449.547 571.216C449.818 573.118 450.806 574.83 452.293 575.977L452.335 575.968Z" fill="#EBB268"/>
<path d="M449.503 594.094C449.503 594.094 460.78 591.769 463.778 588.674C466.776 585.58 480.31 580.16 481.817 584.033C483.325 587.905 502.097 601.061 489.313 603.386C476.529 605.711 459.256 606.481 455.5 604.933C451.744 603.386 449.503 594.094 449.503 594.094Z" fill="#A8A8A8"/>
<path opacity="0.2" d="M489.329 601.943C476.554 604.268 459.272 605.046 455.516 603.498C452.66 602.314 450.669 596.653 449.878 593.99L449.503 594.068C449.503 594.068 451.76 603.36 455.516 604.907C459.272 606.455 476.554 605.685 489.329 603.36C493.01 602.686 494.068 601.113 493.668 599.125C493.352 600.447 492.069 601.45 489.329 601.943Z" fill="black"/>
<g opacity="0.75">
<path opacity="0.75" d="M425.201 332.257C425.006 331.833 424.842 331.394 424.71 330.943C424.452 329.898 424.768 328.808 424.785 327.728C424.775 326.981 424.694 326.237 424.543 325.507C424.052 322.715 423.569 319.914 423.078 317.113C422.853 315.826 422.628 314.52 422.52 313.232C422.411 311.945 422.428 310.553 422.403 309.213C422.345 304.891 421.57 300.569 421.445 296.204C421.354 293.948 421.187 291.692 421.012 289.436C420.704 285.564 420.379 281.657 419.721 277.871C419.205 274.837 417.739 272.002 417.706 268.925C417.706 267.325 417.706 265.726 417.664 264.127C417.752 262.754 417.541 261.377 417.048 260.099C416.474 259.045 415.697 258.124 414.766 257.394C412.145 255.043 409.43 252.81 406.621 250.695C407.473 250.859 408.351 250.79 409.169 250.496C409.572 250.335 409.899 250.018 410.081 249.611C410.262 249.205 410.285 248.741 410.144 248.318C409.853 247.832 409.389 247.484 408.853 247.35C407.847 247.035 406.805 246.86 405.755 246.831C405.851 246.418 405.926 245.999 405.98 245.578C406.529 241.118 404.372 236.744 404.381 232.249C404.381 227.616 406.646 223.372 407.953 218.946C410.01 211.922 409.686 204.378 407.037 197.57C405.63 193.975 403.573 190.595 402.873 186.783C402.332 183.792 402.673 180.732 402.182 177.698C400.949 170.066 394.395 164.197 387.191 162.14C381.636 160.575 375.981 161.076 370.393 162.14C365.587 163.064 361.232 161.025 356.401 161.681C354.519 161.932 352.562 162.546 351.346 164.084C350.735 165.026 350.179 166.004 349.68 167.015C347.54 170.472 343.293 171.656 339.761 173.549C334.398 176.436 330.125 181.821 329.326 188.028C328.585 193.784 330.767 199.489 331.1 205.315C331.525 212.714 328.935 219.889 326.744 226.925C326.026 228.855 325.657 230.906 325.653 232.975C325.778 234.387 326.081 235.776 326.553 237.107C327.244 239.285 328.027 241.429 328.918 243.546C327.257 244.247 325.516 244.721 323.738 244.955C321.922 245.172 319.982 245.094 318.408 246.053C317.676 246.525 317.046 247.149 316.559 247.886C315.809 248.974 315.275 250.206 314.989 251.511C314.703 252.815 314.67 254.166 314.893 255.484C314.565 255.699 314.296 255.998 314.111 256.352C313.925 256.706 313.831 257.103 313.835 257.506C313.794 258.31 313.969 259.105 314.002 259.909C313.94 261.425 313.659 262.923 313.169 264.352C311.873 269.264 311.55 274.398 312.22 279.444C313.286 287.517 313.494 295.53 313.835 303.647C314.06 308.98 313.635 314.373 314.485 319.646C314.768 321.375 315.318 323.276 316.634 324.383C316.972 324.62 317.294 324.88 317.6 325.161C318.349 325.973 318.374 327.227 318.624 328.324C319.022 329.84 319.913 331.166 321.146 332.078C322.378 332.99 323.876 333.432 325.387 333.329C324.829 335.058 324.279 336.657 323.721 338.317H409.303C409.253 338.109 409.203 337.902 409.161 337.694C409.021 336.82 409.001 335.929 409.103 335.049C409.819 335.914 409.694 337.184 409.886 338.317H425.959C426.128 336.264 425.869 334.197 425.201 332.257Z" fill="url(#paint0_linear)"/>
<path opacity="0.75" d="M356.834 162.736C354.96 162.995 353.02 163.6 351.837 165.13C351.224 166.064 350.668 167.037 350.172 168.043C348.048 171.501 343.826 172.65 340.328 174.535C334.998 177.396 330.758 182.755 329.967 188.918C329.226 194.64 331.391 200.31 331.724 206.067C332.141 213.414 329.576 220.545 327.402 227.556C326.683 229.486 326.313 231.537 326.311 233.606C326.436 235.01 326.739 236.39 327.211 237.712C329.209 243.996 331.916 250.116 335.947 255.242C339.978 260.367 345.425 264.464 351.629 265.977C354.474 266.584 357.369 266.902 360.274 266.928C364.716 267.101 369.157 267.187 373.599 267.187C376.041 267.26 378.484 267.089 380.895 266.677C385.983 265.649 390.464 262.666 394.811 259.762C399.808 256.391 405.305 252.251 406.063 246.105C406.604 241.679 404.472 237.332 404.472 232.863C404.472 228.394 406.721 224.046 408.02 219.655C410.067 212.661 409.743 205.151 407.104 198.374C405.705 194.796 403.664 191.459 402.94 187.647C402.398 184.683 402.732 181.597 402.249 178.623C401.024 171.043 394.52 165.217 387.374 163.203C381.853 161.656 376.239 162.14 370.718 163.203C365.995 164.11 361.606 162.07 356.834 162.736Z" fill="#3F3D56"/>
<path opacity="0.75" d="M358.35 226.259C359.426 231.07 358.62 236.127 356.11 240.322C354.783 242.323 353.155 244.088 351.288 245.552C348.453 247.939 345.233 249.786 341.777 251.006C343.932 252.765 346.425 254.024 349.089 254.697C351.141 255.154 353.229 255.417 355.327 255.484C365.853 256.062 376.408 255.666 386.866 254.299C390.364 253.841 394.012 253.21 396.86 251.023C397.11 250.861 397.305 250.623 397.418 250.34C397.618 249.623 396.793 249.078 396.111 248.836C392.779 247.635 389.106 246.952 386.192 244.826C381.728 241.567 379.862 235.594 379.462 229.95C379.063 224.305 379.845 218.609 379.312 212.965C372.095 212.855 364.877 213.074 357.659 213.622C356.826 213.682 353.228 213.475 352.795 214.192C352.362 214.91 354.328 216.993 354.827 217.779C356.5 220.353 357.695 223.229 358.35 226.259Z" fill="#FBBEBE"/>
<path opacity="0.1" d="M368.336 226.423C381.937 226.423 392.962 214.98 392.962 200.864C392.962 186.747 381.937 175.304 368.336 175.304C354.735 175.304 343.709 186.747 343.709 200.864C343.709 214.98 354.735 226.423 368.336 226.423Z" fill="black"/>
<path opacity="0.75" d="M368.336 225.516C381.937 225.516 392.962 214.072 392.962 199.956C392.962 185.84 381.937 174.396 368.336 174.396C354.735 174.396 343.709 185.84 343.709 199.956C343.709 214.072 354.735 225.516 368.336 225.516Z" fill="#FBBEBE"/>
<path opacity="0.75" d="M402.915 294.061C400.899 302.618 399.633 311.478 400.483 320.251C401.049 326.06 402.981 332.352 403.115 338.299H342.052C342.052 335.101 342.052 331.791 342.052 328.489C342.052 327.875 342.052 327.27 342.052 326.665C342.052 325.878 342.052 325.092 342.052 324.305C342.052 321.911 342.052 319.542 342.052 317.243C342.052 313.103 342.052 308.945 341.627 304.822C340.849 297.477 339.21 290.258 336.746 283.325L336.222 281.804C336.222 281.743 336.222 281.691 336.155 281.639C335.98 281.121 335.789 280.611 335.605 280.092C332.632 271.898 329.234 263.393 330.867 254.87C331.459 251.825 332.67 248.946 334.419 246.426C336.168 243.905 338.416 241.801 341.011 240.253C342.605 239.259 344.409 238.683 346.266 238.576C349.439 238.524 352.295 240.461 354.944 242.293C356.201 243.158 357.442 244.022 358.767 244.886C361.816 246.937 365.108 248.57 368.561 249.744C373.483 251.291 379.054 251.352 383.552 248.776C384.432 248.258 385.268 247.662 386.05 246.995C387.569 245.651 388.948 244.144 390.164 242.501C391.363 244.921 393.962 245.958 396.119 247.471C399.11 249.741 401.381 252.886 402.64 256.503C403.882 260.103 404.72 263.838 405.138 267.637C405.728 271.349 405.968 275.113 405.855 278.874C405.538 284.06 404.089 289.047 402.915 294.061Z" fill="#3F3D56"/>
<path opacity="0.75" d="M366.212 338.299H324.429C324.987 336.64 325.528 335.023 326.095 333.338H326.02C324.519 333.442 323.029 333.002 321.805 332.094C320.582 331.187 319.699 329.867 319.307 328.359C319.057 327.27 319.032 326.034 318.283 325.221C317.985 324.941 317.667 324.684 317.333 324.452C315.984 323.354 315.476 321.496 315.201 319.741C314.368 314.503 314.768 309.153 314.552 303.845C314.21 295.755 314.002 287.785 312.944 279.764C312.28 274.753 312.6 269.655 313.885 264.776C314.375 263.355 314.656 261.866 314.718 260.359C314.718 259.563 314.51 258.768 314.552 257.973C314.546 257.573 314.639 257.179 314.823 256.827C315.007 256.476 315.275 256.18 315.601 255.968C315.382 254.657 315.417 253.314 315.703 252.017C315.989 250.72 316.52 249.495 317.267 248.413C317.756 247.683 318.382 247.062 319.107 246.589C320.673 245.638 322.597 245.725 324.396 245.5C332.807 244.515 339.47 236.856 347.89 235.992C349.789 235.861 351.695 235.907 353.586 236.13C356.684 236.398 357.817 240.452 358.533 243.616C358.633 244.031 358.717 244.48 358.8 244.86C360.382 252.64 360.091 260.765 360.091 268.76C360.091 270.595 360.332 272.421 360.807 274.189C362.081 279.012 362.214 284.06 362.473 289.056C363.016 300.732 364.145 312.371 365.854 323.925C366.22 326.088 366.479 328.269 366.628 330.459C366.74 333.081 366.601 335.707 366.212 338.299Z" fill="#F86D70"/>
<path opacity="0.75" d="M357.317 275.062C358.22 276.126 359.034 277.268 359.749 278.476C360.082 279.046 360.357 279.876 359.866 280.308C359.602 280.495 359.286 280.586 358.966 280.568L353.137 280.827C352.252 280.923 351.358 280.838 350.505 280.576C349.384 280.014 348.438 279.136 347.773 278.044L345.175 274.517C344.409 273.643 343.84 272.604 343.509 271.474C343.364 270.907 343.4 270.306 343.61 269.762C343.82 269.217 344.193 268.756 344.675 268.449C345.62 268.135 346.646 268.209 347.54 268.657C349.306 269.279 351.404 269.694 352.962 270.757C354.594 271.982 356.059 273.43 357.317 275.062Z" fill="#F86D70"/>
<path opacity="0.1" d="M357.317 275.062C358.22 276.126 359.034 277.268 359.749 278.476C360.082 279.046 360.357 279.876 359.866 280.308C359.602 280.495 359.286 280.586 358.966 280.568L353.137 280.827C352.252 280.923 351.358 280.838 350.505 280.576C349.384 280.014 348.438 279.136 347.773 278.044L345.175 274.517C344.409 273.643 343.84 272.604 343.509 271.474C343.364 270.907 343.4 270.306 343.61 269.762C343.82 269.217 344.193 268.756 344.675 268.449C345.62 268.135 346.646 268.209 347.54 268.657C349.306 269.279 351.404 269.694 352.962 270.757C354.594 271.982 356.059 273.43 357.317 275.062Z" fill="black"/>
<path opacity="0.1" d="M353.986 275.468C354.702 271.5 355.684 267.59 356.926 263.764C357.613 261.929 358.107 260.022 358.4 258.077C358.558 256.547 358.4 254.999 358.55 253.47C358.667 252.147 358.975 250.876 359.166 249.545C359.54 246.881 359.384 244.166 358.708 241.567C358.175 239.501 358.708 236.986 357.409 235.309C356.893 234.626 356.201 234.108 355.66 233.442C355.366 233.132 355.151 232.751 355.036 232.332C354.921 231.914 354.909 231.472 355.002 231.048C356.817 231.475 358.695 231.537 360.532 231.229C361.083 231.167 361.613 230.975 362.081 230.667C362.311 230.512 362.494 230.292 362.609 230.034C362.724 229.776 362.766 229.489 362.731 229.207C362.646 228.934 362.508 228.682 362.326 228.467C362.144 228.251 361.922 228.077 361.673 227.953C360.042 226.908 358.208 226.251 356.302 226.03C354.397 225.808 352.468 226.028 350.655 226.674C350.6 226.527 350.598 226.364 350.649 226.215C350.699 226.066 350.798 225.941 350.93 225.861C351.188 225.713 351.47 225.616 351.762 225.576C352.688 225.359 353.547 224.908 354.264 224.262C354.98 223.617 355.531 222.797 355.868 221.877C355.982 221.623 356.011 221.337 355.952 221.064C355.735 220.433 354.869 220.468 354.244 220.632L350.846 221.496C350.189 221.634 349.551 221.858 348.947 222.162C348.214 222.624 347.558 223.208 347.007 223.891C345.225 225.887 343.409 227.945 342.426 230.468C341.985 231.609 341.727 232.82 341.269 233.926C340.859 235.093 340.07 236.074 339.037 236.701C338.502 237.004 338.073 237.474 337.811 238.046C337.549 238.617 337.468 239.26 337.579 239.882C337.849 241.137 338.378 242.316 339.128 243.339C340.39 245.385 341.82 247.314 343.401 249.104C344.545 250.183 345.528 251.433 346.316 252.813C346.799 253.833 347.007 254.974 347.432 256.011C347.668 256.494 347.85 257.005 347.973 257.532C348.027 257.91 348.027 258.295 347.973 258.673C347.265 264.421 343.159 269.106 341.627 274.673C341.551 274.864 341.512 275.069 341.513 275.275C341.514 275.482 341.554 275.687 341.632 275.877C341.709 276.068 341.822 276.24 341.964 276.385C342.106 276.53 342.275 276.644 342.46 276.721C345.441 279.064 349.122 280.274 352.654 281.441C353.244 279.488 353.69 277.491 353.986 275.468Z" fill="black"/>
<path opacity="0.75" d="M353.503 275.209C354.219 271.241 355.201 267.33 356.443 263.505C357.134 261.671 357.628 259.763 357.917 257.817C358.075 256.287 357.917 254.74 358.067 253.21C358.184 251.888 358.492 250.617 358.683 249.286C359.057 246.622 358.901 243.907 358.225 241.308C357.692 239.242 358.225 236.727 356.926 235.05C356.41 234.367 355.718 233.848 355.177 233.183C354.883 232.873 354.668 232.491 354.553 232.073C354.438 231.654 354.426 231.213 354.519 230.788C356.334 231.216 358.212 231.277 360.049 230.97C360.6 230.908 361.13 230.715 361.598 230.408C361.827 230.251 362.01 230.032 362.126 229.774C362.242 229.516 362.287 229.23 362.256 228.947C362.168 228.675 362.028 228.424 361.845 228.209C361.662 227.993 361.439 227.818 361.19 227.694C359.559 226.649 357.724 225.992 355.819 225.77C353.914 225.549 351.985 225.769 350.172 226.415C350.117 226.267 350.115 226.105 350.165 225.956C350.216 225.807 350.315 225.682 350.447 225.602C350.704 225.454 350.987 225.357 351.279 225.317C352.203 225.099 353.061 224.647 353.776 224.001C354.491 223.356 355.041 222.537 355.377 221.617C355.49 221.366 355.519 221.084 355.46 220.813C355.244 220.174 354.377 220.208 353.794 220.373L350.405 221.237C349.744 221.374 349.104 221.597 348.498 221.903C347.764 222.364 347.108 222.948 346.557 223.631C344.775 225.628 342.959 227.685 341.977 230.209C341.535 231.35 341.277 232.56 340.819 233.667C340.41 234.833 339.62 235.815 338.587 236.441C338.054 236.746 337.626 237.217 337.365 237.788C337.103 238.359 337.021 239 337.13 239.622C337.399 240.877 337.928 242.057 338.679 243.08C339.943 245.124 341.372 247.052 342.951 248.845C344.096 249.923 345.078 251.173 345.866 252.553C346.349 253.573 346.557 254.714 346.982 255.76C347.22 256.24 347.402 256.748 347.523 257.273C347.577 257.651 347.577 258.035 347.523 258.414C346.815 264.162 342.71 268.847 341.177 274.413C341.101 274.604 341.063 274.809 341.063 275.016C341.064 275.223 341.104 275.427 341.182 275.618C341.259 275.808 341.372 275.981 341.515 276.126C341.657 276.271 341.825 276.385 342.01 276.462C344.992 278.804 348.673 280.014 352.204 281.181C352.783 279.228 353.218 277.231 353.503 275.209Z" fill="#FBBEBE"/>
<path opacity="0.75" d="M355.743 273.765C355.863 273.82 355.962 273.914 356.027 274.033C356.08 274.181 356.08 274.344 356.027 274.491C355.209 277.052 354.131 279.515 352.812 281.838C350.163 280.329 347.579 278.712 345.058 276.989C344.42 276.631 343.883 276.107 343.501 275.468C339.778 268.008 353.27 272.27 355.743 273.765Z" fill="#3F3D56"/>
<path opacity="0.1" d="M340.886 277.378C340.011 278.588 339.003 279.677 338.137 280.896C336.707 283.162 335.441 285.534 334.348 287.993C332.746 291.144 330.816 294.103 328.593 296.818C326.353 299.549 323.671 302.35 323.421 305.928C323.448 306.441 323.342 306.952 323.113 307.407C322.863 307.787 322.422 307.977 322.097 308.271C321.772 308.565 321.572 309.135 321.905 309.49C320.623 309.628 320.09 311.218 319.84 312.541L319.274 315.566C319.103 316.358 319.011 317.166 318.999 317.978C319.081 319.074 319.337 320.149 319.757 321.159C321.113 324.873 322.88 328.412 325.02 331.704C326.045 333.277 327.227 334.859 328.91 335.611C330.515 336.181 332.227 336.347 333.906 336.095C336.28 335.94 339.037 335.551 340.219 333.407C340.969 332.05 340.852 330.295 341.668 328.981C342.144 328.343 342.667 327.744 343.234 327.192C344.114 326.019 344.767 324.681 345.158 323.251C347.326 316.828 349.062 310.258 350.355 303.586C350.694 301.33 351.266 299.119 352.062 296.991C352.966 295.094 354.024 293.28 355.227 291.571C357.334 288.261 357.65 285.391 359.108 281.726C355.893 280.948 354.411 278.735 351.671 276.86C349.089 275.088 345.266 271.319 342.51 269.945C341.602 272.304 342.36 275.304 340.886 277.378Z" fill="black"/>
<path opacity="0.1" d="M338.92 275.563C338.087 276.773 337.038 277.871 336.18 279.09C334.747 281.35 333.481 283.719 332.391 286.177C330.791 289.333 328.861 292.295 326.636 295.011C324.387 297.743 321.714 300.535 321.464 304.122C321.488 304.631 321.381 305.138 321.156 305.591C320.846 305.918 320.502 306.208 320.132 306.456C319.807 306.767 319.615 307.32 319.94 307.666C318.657 307.813 318.124 309.395 317.883 310.726L317.317 313.751C317.139 314.539 317.046 315.345 317.042 316.154C317.12 317.254 317.376 318.332 317.8 319.344C319.155 323.057 320.918 326.595 323.055 329.889C324.079 331.462 325.27 333.044 326.952 333.796C328.558 334.365 330.27 334.531 331.949 334.28C334.315 334.124 337.08 333.727 338.254 331.592C339.003 330.226 338.887 328.48 339.703 327.158C340.185 326.527 340.708 325.933 341.269 325.377C342.151 324.204 342.807 322.866 343.201 321.435C345.365 315.012 347.098 308.442 348.389 301.771C348.716 299.514 349.274 297.3 350.055 295.167C350.962 293.274 352.02 291.464 353.22 289.756C355.335 286.445 355.21 284.483 356.668 280.81C353.453 280.04 352.404 276.92 349.664 275.044C347.082 273.272 343.268 269.504 340.503 268.129C339.645 270.498 340.403 273.506 338.92 275.563Z" fill="black"/>
<path opacity="0.75" d="M340.011 276.471C339.178 277.681 338.129 278.778 337.271 279.989C335.837 282.251 334.57 284.624 333.482 287.085C331.884 290.239 329.954 293.199 327.727 295.91C325.478 298.65 322.805 301.442 322.555 305.021C322.579 305.533 322.473 306.043 322.247 306.499C321.935 306.823 321.592 307.112 321.223 307.363C320.898 307.675 320.706 308.228 321.031 308.573C319.748 308.712 319.215 310.302 318.974 311.633L318.408 314.659C318.229 315.446 318.137 316.252 318.133 317.062C318.212 318.16 318.465 319.238 318.882 320.251C320.242 323.961 322.009 327.496 324.146 330.788C325.17 332.37 326.361 333.952 328.043 334.704C329.65 335.269 331.361 335.435 333.04 335.188C335.406 335.032 338.171 334.634 339.345 332.499C340.094 331.134 339.978 329.379 340.794 328.065C341.276 327.432 341.799 326.834 342.36 326.276C343.24 325.105 343.896 323.77 344.292 322.343C346.457 315.917 348.191 309.344 349.48 302.67C349.807 300.416 350.365 298.205 351.146 296.075C352.053 294.182 353.111 292.372 354.311 290.664C356.423 287.348 358.222 283.828 359.683 280.153C356.489 279.312 353.466 277.887 350.755 275.943C348.173 274.215 344.359 270.403 341.594 269.028C340.736 271.397 341.485 274.439 340.011 276.471Z" fill="#F86D70"/>
<path opacity="0.75" d="M348.281 280.939C349.242 280.939 350.022 280.131 350.022 279.133C350.022 278.135 349.242 277.326 348.281 277.326C347.32 277.326 346.541 278.135 346.541 279.133C346.541 280.131 347.32 280.939 348.281 280.939Z" fill="#3F3D56"/>
<path opacity="0.75" d="M342.834 289.765C343.796 289.765 344.575 288.956 344.575 287.958C344.575 286.96 343.796 286.152 342.834 286.152C341.873 286.152 341.094 286.96 341.094 287.958C341.094 288.956 341.873 289.765 342.834 289.765Z" fill="#3F3D56"/>
<path opacity="0.75" d="M337.171 298.815C338.133 298.815 338.912 298.006 338.912 297.008C338.912 296.01 338.133 295.202 337.171 295.202C336.21 295.202 335.431 296.01 335.431 297.008C335.431 298.006 336.21 298.815 337.171 298.815Z" fill="#3F3D56"/>
<path opacity="0.75" d="M425.884 338.299H409.944C409.752 337.176 409.877 335.905 409.169 335.041C409.072 335.918 409.092 336.805 409.228 337.677C409.269 337.884 409.319 338.092 409.369 338.299H389.098C389.038 335.648 389.282 332.999 389.823 330.408C390.5 326.619 390.887 322.781 390.98 318.929C391.08 314.166 390.739 309.421 390.714 304.658C390.697 299.946 390.989 295.239 391.588 290.569C392.138 286.247 392.954 281.925 392.28 277.603C391.522 272.823 390.872 267.982 390.289 263.176C390.195 262.113 390 261.062 389.706 260.039C389.466 259.323 389.188 258.622 388.873 257.938C387.356 254.464 386.442 250.739 386.175 246.935C386.058 245.5 384.101 244.203 384.126 242.751C386.791 242.189 391.547 241.498 394.12 242.457C396.694 243.417 398.592 245.777 401.174 246.667C403.756 247.557 406.488 246.909 408.994 247.782C409.529 247.91 409.992 248.252 410.285 248.733C410.424 249.155 410.4 249.617 410.218 250.021C410.037 250.425 409.712 250.741 409.311 250.902C408.509 251.194 407.648 251.262 406.812 251.101C409.589 253.204 412.281 255.423 414.891 257.757C415.814 258.483 416.585 259.398 417.156 260.445C417.646 261.715 417.856 263.082 417.772 264.447C417.772 266.038 417.772 267.619 417.814 269.21C417.814 272.27 419.297 275.088 419.813 278.096C420.463 281.899 420.787 285.745 421.087 289.592C421.262 291.831 421.429 294.069 421.52 296.317C421.687 300.638 422.411 304.96 422.478 309.239C422.478 310.57 422.478 311.91 422.595 313.232C422.715 314.529 422.899 315.819 423.144 317.096C423.627 319.871 424.11 322.654 424.602 325.429C424.749 326.154 424.827 326.892 424.835 327.633C424.677 328.691 424.652 329.766 424.76 330.831C424.892 331.278 425.056 331.715 425.251 332.136C425.888 334.119 426.104 336.222 425.884 338.299Z" fill="#F86D70"/>
<path opacity="0.75" d="M369.318 189.437C382.322 189.437 392.863 185.184 392.863 179.937C392.863 174.691 382.322 170.438 369.318 170.438C356.315 170.438 345.774 174.691 345.774 179.937C345.774 185.184 356.315 189.437 369.318 189.437Z" fill="#3F3D56"/>
<path opacity="0.75" d="M381.977 189.532C374.582 186.515 371.684 193.093 371.684 193.093C368.835 200.976 374.182 205.592 377.397 207.571C378.62 208.324 380.015 208.721 381.436 208.721C382.468 208.726 383.49 208.517 384.443 208.107C386.547 207.261 388.402 205.859 389.823 204.039C391.245 202.22 392.183 200.046 392.546 197.735C393.862 187.068 381.977 189.532 381.977 189.532ZM389.689 197.916C389.399 199.823 388.641 201.62 387.487 203.134C386.333 204.648 384.823 205.828 383.102 206.56C382.182 206.961 381.184 207.129 380.189 207.051C379.194 206.973 378.231 206.65 377.38 206.11C374.757 204.468 370.418 200.613 372.733 194.052C372.733 194.052 375.09 188.572 381.061 191.088C381.103 191.07 390.764 189.013 389.689 197.916Z" fill="#F86D70"/>
<path opacity="0.75" d="M381.103 191.07C381.103 191.07 390.764 189.013 389.69 197.916C389.399 199.823 388.641 201.62 387.487 203.134C386.333 204.648 384.823 205.828 383.102 206.56C382.329 206.897 381.5 207.07 380.662 207.07C379.503 207.071 378.368 206.739 377.38 206.11C374.757 204.468 370.418 200.613 372.733 194.052C372.733 194.052 375.09 188.555 381.103 191.07Z" fill="#3F3D56"/>
<path opacity="0.1" d="M381.103 191.07C381.103 191.07 390.764 189.013 389.69 197.916C389.399 199.823 388.641 201.62 387.487 203.134C386.333 204.648 384.823 205.828 383.102 206.56C382.329 206.897 381.5 207.07 380.662 207.07C379.503 207.071 378.368 206.739 377.38 206.11C374.757 204.468 370.418 200.613 372.733 194.052C372.733 194.052 375.09 188.555 381.103 191.07Z" fill="url(#paint1_radial)"/>
<path opacity="0.75" d="M343.609 197.752C343.972 200.064 344.91 202.237 346.332 204.056C347.753 205.876 349.608 207.278 351.712 208.124C352.665 208.535 353.687 208.743 354.719 208.738C356.14 208.738 357.536 208.341 358.758 207.588C361.99 205.609 367.32 200.993 364.471 193.11C364.471 193.11 361.573 186.532 354.178 189.549C354.178 189.532 342.293 187.068 343.609 197.752ZM355.052 191.07C361.065 188.555 363.38 194.035 363.38 194.035C365.696 200.596 361.357 204.408 358.733 206.093C357.882 206.633 356.919 206.955 355.925 207.034C354.93 207.112 353.931 206.943 353.012 206.543C351.291 205.81 349.781 204.63 348.627 203.116C347.473 201.602 346.714 199.806 346.424 197.899C345.391 189.013 355.052 191.07 355.052 191.07Z" fill="#F86D70"/>
<path opacity="0.75" d="M355.052 191.07C355.052 191.07 345.391 189.013 346.466 197.916C346.756 199.823 347.514 201.62 348.668 203.134C349.822 204.648 351.332 205.828 353.053 206.56C353.826 206.897 354.655 207.07 355.493 207.07C356.652 207.071 357.788 206.739 358.775 206.11C361.398 204.468 365.737 200.613 363.422 194.052C363.422 194.052 361.065 188.555 355.052 191.07Z" fill="#3F3D56"/>
<path opacity="0.1" d="M355.052 191.07C355.052 191.07 345.391 189.013 346.466 197.916C346.756 199.823 347.514 201.62 348.668 203.134C349.822 204.648 351.332 205.828 353.053 206.56C353.826 206.897 354.655 207.07 355.493 207.07C356.652 207.071 357.788 206.739 358.775 206.11C361.398 204.468 365.737 200.613 363.422 194.052C363.422 194.052 361.065 188.555 355.052 191.07Z" fill="url(#paint2_radial)"/>
</g>
</g>
<defs>
<linearGradient id="paint0_linear" x1="70218.2" y1="77411.3" x2="70218.2" y2="41082.4" gradientUnits="userSpaceOnUse">
<stop stop-color="#808080" stop-opacity="0.25"/>
<stop offset="0.54" stop-color="#808080" stop-opacity="0.12"/>
<stop offset="1" stop-color="#808080" stop-opacity="0.1"/>
</linearGradient>
<radialGradient id="paint1_radial" cx="0" cy="0" r="1" gradientUnits="userSpaceOnUse" gradientTransform="translate(380.92 198.729) scale(8.4449 8.76477)">
<stop stop-color="white"/>
<stop offset="1"/>
</radialGradient>
<radialGradient id="paint2_radial" cx="0" cy="0" r="1" gradientUnits="userSpaceOnUse" gradientTransform="translate(-32730.3 4761.66) rotate(180) scale(179.452 168.917)">
<stop stop-color="white"/>
<stop offset="1"/>
</radialGradient>
<clipPath id="clip0">
<rect width="717" height="701" fill="white"/>
</clipPath>
</defs>
</svg>
