<svg width="567" height="473" viewBox="0 0 567 473" fill="none" xmlns="http://www.w3.org/2000/svg">
<g clip-path="url(#clip0)">
<path d="M323.646 70.9683H275.082V131.685H323.646V70.9683Z" fill="#2F2E41"/>
<path d="M324.294 72.8857C319.945 85.5934 313.277 97.1722 299.688 97.1722C286.099 97.1722 275.848 86.2774 275.082 72.8857C274.104 55.7737 285.785 48.5283 299.688 48.5991C316.112 48.6829 329.454 57.8046 324.294 72.8857Z" fill="#2F2E41"/>
<path d="M311.781 91.7659C311.781 91.7659 307.895 114.774 309.838 115.413C311.781 116.052 287.822 118.609 287.822 118.609C287.822 118.609 294.945 101.353 293.002 98.1571C291.06 94.9615 311.781 91.7659 311.781 91.7659Z" fill="#FFB8B8"/>
<path opacity="0.1" d="M311.781 91.7659C311.781 91.7659 307.895 114.774 309.838 115.413C311.781 116.052 287.822 118.609 287.822 118.609C287.822 118.609 294.945 101.353 293.002 98.1571C291.06 94.9615 311.781 91.7659 311.781 91.7659Z" fill="black"/>
<path d="M359.967 174.533L370.666 182.915C370.666 182.915 361.822 138.698 361.575 135.448C361.328 132.199 353.01 109.939 344.102 113.365C335.194 116.792 350.423 141.178 350.423 141.178L360.373 176.514L359.967 174.533Z" fill="#FFB8B8"/>
<path d="M298.183 103.909C308.553 103.909 316.961 95.6108 316.961 85.3745C316.961 75.1382 308.553 66.8401 298.183 66.8401C287.812 66.8401 279.405 75.1382 279.405 85.3745C279.405 95.6108 287.812 103.909 298.183 103.909Z" fill="#FFB8B8"/>
<path d="M298.183 112.218L289.765 108.383C289.765 108.383 285.232 116.692 282.642 116.692C280.052 116.692 258.036 121.165 258.036 125.639C258.036 130.113 264.512 162.069 264.512 162.069C264.512 162.069 277.462 192.747 278.11 192.747C278.757 192.747 324.731 186.995 324.731 186.995L327.321 179.964L331.206 138.422C331.206 138.422 315.666 128.196 315.666 125C315.666 121.805 314.371 110.94 311.781 110.94C309.19 110.94 304.658 114.774 304.658 114.774L298.183 112.218Z" fill="#D0CDE1"/>
<path d="M325.378 140.978L331.206 138.421C331.206 138.421 335.739 146.73 337.034 147.369C338.329 148.008 340.271 151.204 340.271 152.482C340.271 153.76 344.157 163.986 347.394 164.625C350.632 165.264 355.812 167.821 355.164 169.738C354.761 170.766 354.761 171.906 355.164 172.934L357.754 169.738L371.352 179.964C371.352 179.964 378.475 201.694 368.115 201.055C357.754 200.416 348.689 195.303 344.157 192.746C339.624 190.19 339.624 191.468 337.034 187.634C334.444 183.799 323.436 176.769 323.436 176.769L325.378 140.978Z" fill="#D0CDE1"/>
<path d="M278.11 186.995L272.929 189.551L274.224 199.138C274.224 199.138 202.35 450.311 212.71 452.229C223.07 454.146 252.209 459.259 267.749 463.094C283.29 466.928 305.305 467.568 305.305 463.094C305.305 458.62 311.781 299.479 311.781 299.479C311.781 299.479 313.723 468.207 319.551 468.207C325.378 468.207 373.295 478.433 376.532 468.207C379.77 457.981 360.992 227.898 337.681 201.055C337.681 201.055 326.026 186.355 326.673 184.438C327.321 182.521 326.026 179.964 326.026 179.964C326.026 179.964 326.673 178.686 319.551 180.603C312.428 182.521 309.19 182.521 307.248 181.882C305.305 181.242 302.068 178.686 300.125 180.603C298.183 182.521 292.355 185.716 289.765 185.077C287.175 184.438 285.88 180.603 283.29 183.16C281.761 184.679 280.016 185.971 278.11 186.995Z" fill="#2F2E41"/>
<path d="M216.595 450.311C216.595 450.311 212.71 470.763 216.595 471.402C220.48 472.041 239.906 473.32 240.553 472.041C241.201 470.763 236.021 452.868 234.078 451.59C232.136 450.311 216.595 450.311 216.595 450.311Z" fill="#2F2E41"/>
<path d="M350.632 452.868C350.632 452.868 354.517 470.763 350.632 471.402C346.747 472.041 327.321 473.319 326.673 472.041C326.026 470.763 331.206 455.424 333.149 454.146C335.091 452.868 350.632 452.868 350.632 452.868Z" fill="#2F2E41"/>
<path d="M220.804 177.088C220.804 177.088 247.352 184.119 253.828 185.397C260.303 186.675 267.425 193.066 268.073 195.623C268.721 198.179 274.548 209.683 279.081 207.127C283.613 204.57 279.081 182.84 275.843 182.201C272.606 181.562 233.107 170.697 233.107 170.697L220.804 177.088Z" fill="#FFB8B8"/>
<path d="M265.159 124.361H258.036L216.595 155.039C216.595 155.039 206.882 157.595 207.53 159.512C208.177 161.43 197.817 172.934 204.292 175.49C210.768 178.047 215.948 178.686 218.538 180.603C221.128 182.521 237.316 171.656 237.316 171.656L234.726 169.738C234.726 169.738 264.512 159.512 267.102 160.791C269.692 162.069 265.159 124.361 265.159 124.361Z" fill="#D0CDE1"/>
<path d="M284.261 114.455L299.801 124.041L298.506 158.554L303.039 150.245L305.629 158.554V124.041H316.637L315.989 118.289L303.039 120.207L286.204 111.259L284.261 114.455Z" fill="#EBB268"/>
<path d="M288.178 60.1033C288.178 60.1033 287.964 58.9303 279.615 62.0206C271.266 65.111 266.261 87.9162 270.436 101.308C272.118 106.704 270.749 110.595 268.516 113.318C260.133 123.534 263.433 138.879 275.642 144.132C275.987 144.281 276.339 144.427 276.697 144.572L281.916 147.662C281.916 147.662 275.264 139.023 278.592 127.972C281.483 118.556 281.84 108.559 279.628 98.9656C279.246 97.3472 278.813 95.679 278.32 93.9766C274.145 79.555 276.176 81.2205 290.787 66.799C290.787 66.799 299.136 72.9796 306.441 76.07C313.747 79.1603 320.009 82.2506 314.791 92.5517C309.572 102.853 297.049 112.124 305.398 125.515C313.747 138.907 314.791 133.756 313.747 138.907L312.703 144.057L318.965 137.876L314.791 146.117C314.791 146.117 328.358 146.117 332.533 135.816L334.62 137.876C334.62 137.876 342.969 123.455 327.314 110.064C327.314 110.064 322.096 106.973 329.402 96.6721C336.707 86.371 331.096 64.2237 321.704 60.1033C312.311 55.9828 288.178 60.1033 288.178 60.1033Z" fill="#2F2E41"/>
<path d="M299.688 53.7121C305.052 53.7121 309.401 49.42 309.401 44.1253C309.401 38.8307 305.052 34.5386 299.688 34.5386C294.324 34.5386 289.975 38.8307 289.975 44.1253C289.975 49.42 294.324 53.7121 299.688 53.7121Z" fill="#2F2E41"/>
<path d="M288.033 39.0123C288.033 36.6358 288.927 34.3441 290.542 32.5816C292.158 30.8192 294.378 29.7117 296.774 29.4739C296.455 29.4426 296.131 29.4255 295.803 29.4255C293.227 29.4255 290.756 30.4356 288.935 32.2334C287.113 34.0313 286.09 36.4697 286.09 39.0123C286.09 41.5549 287.113 43.9933 288.935 45.7912C290.756 47.5891 293.227 48.5991 295.803 48.5991C296.131 48.5991 296.455 48.582 296.774 48.5507C294.378 48.3129 292.158 47.2054 290.542 45.443C288.927 43.6806 288.033 41.3888 288.033 39.0123Z" fill="#2F2E41"/>
<path d="M317.171 85.6681C317.886 85.6681 318.466 84.5236 318.466 83.1117C318.466 81.6998 317.886 80.5552 317.171 80.5552C316.456 80.5552 315.876 81.6998 315.876 83.1117C315.876 84.5236 316.456 85.6681 317.171 85.6681Z" fill="#FFB8B8"/>
<path d="M91.4562 430.996C95.7987 446.84 110.673 456.652 110.673 456.652C110.673 456.652 118.506 440.777 114.164 424.933C109.821 409.088 94.9472 399.276 94.9472 399.276C94.9472 399.276 87.1137 415.151 91.4562 430.996Z" fill="#3F3D56"/>
<path d="M97.8372 427.591C109.753 439.04 111.208 456.64 111.208 456.64C111.208 456.64 93.3445 455.677 81.4287 444.228C69.5128 432.779 68.0574 415.179 68.0574 415.179C68.0574 415.179 85.9214 416.141 97.8372 427.591Z" fill="#EBB268"/>
<path d="M499.322 471.722H79.7294V473H499.322V471.722Z" fill="#2F2E41"/>
<path d="M116.553 472.361H99.718V455.744H116.553V472.361ZM101.013 471.083H115.258V457.022H101.013V471.083Z" fill="#3F3D56"/>
<path d="M142.781 308.747H0V221.826H162.527V282.754" fill="#F2F2F2"/>
<path d="M150.551 302.355H7.12271V214.157H170.945V275.723H169.65V215.435H8.41775V301.077H150.551V302.355Z" fill="black"/>
<path d="M209.054 302.675H170.298V301.397H204.064L170.307 282.851L170.936 281.734L209.054 302.675Z" fill="black"/>
<path d="M152.167 244.835H25.9008V246.113H152.167V244.835Z" fill="black"/>
<path d="M152.167 257.617H25.9008V258.895H152.167V257.617Z" fill="black"/>
<path d="M152.167 270.399H25.9008V271.678H152.167V270.399Z" fill="black"/>
<path d="M206.549 307.053C209.485 307.053 211.864 304.705 211.864 301.807C211.864 298.909 209.485 296.561 206.549 296.561C203.613 296.561 201.234 298.909 201.234 301.807C201.234 304.705 203.613 307.053 206.549 307.053Z" fill="#EBB268"/>
<path d="M102.352 207.02L99.693 206.16C90.2019 203.002 83.9667 200.985 81.7457 196.044C81.3064 195.111 81.0612 194.1 81.0246 193.072C80.988 192.044 81.1607 191.019 81.5326 190.058C81.9044 189.098 82.4678 188.22 83.1893 187.478C83.9109 186.735 84.776 186.144 85.7335 185.737C86.8603 185.251 88.0809 185.012 89.3105 185.038C90.5401 185.064 91.7492 185.354 92.854 185.888C93.1946 184.721 93.7883 183.642 94.594 182.725C95.3996 181.808 96.3979 181.075 97.5194 180.576C98.4672 180.148 99.4922 179.913 100.534 179.883C101.576 179.853 102.613 180.029 103.584 180.402C104.556 180.775 105.441 181.336 106.189 182.053C106.937 182.77 107.531 183.627 107.937 184.575C110.158 189.516 107.488 195.432 103.491 204.497L102.352 207.02Z" fill="#FF6584"/>
<path d="M182.137 76.5986H121.734V117.617H182.137V76.5986Z" fill="#F2F2F2"/>
<path d="M187.133 113.963H125.435V71.667H187.133V113.963ZM126.73 112.685H185.838V72.9452H126.73V112.685Z" fill="black"/>
<path d="M156.039 93.5906L125.713 72.8313L126.451 71.7806L156.045 92.0394L186.12 71.7781L186.851 72.8339L156.039 93.5906Z" fill="black"/>
<path d="M156.042 98.0616C158.978 98.0616 161.358 95.7127 161.358 92.8151C161.358 89.9175 158.978 87.5686 156.042 87.5686C153.107 87.5686 150.727 89.9175 150.727 92.8151C150.727 95.7127 153.107 98.0616 156.042 98.0616Z" fill="#EBB268"/>
<path d="M147.507 62.3942L145.697 61.8093C139.237 59.6594 134.992 58.2864 133.481 54.923C133.182 54.2881 133.015 53.6004 132.99 52.9006C132.965 52.2008 133.082 51.5032 133.336 50.8491C133.589 50.195 133.972 49.5977 134.463 49.0924C134.954 48.5872 135.543 48.1844 136.195 47.9078C136.962 47.5767 137.793 47.4144 138.63 47.4321C139.467 47.4498 140.29 47.6471 141.042 48.0102C141.274 47.2163 141.678 46.4816 142.226 45.8573C142.775 45.233 143.454 44.7339 144.218 44.3948C144.863 44.1036 145.56 43.943 146.269 43.9226C146.979 43.9023 147.685 44.0225 148.346 44.2763C149.007 44.5301 149.61 44.9122 150.119 45.4C150.628 45.8879 151.032 46.4715 151.308 47.1165C152.82 50.4799 151.003 54.507 148.282 60.6771L147.507 62.3942Z" fill="#FF6584"/>
<path d="M494.888 286.229H434.485V327.248H494.888V286.229Z" fill="#F2F2F2"/>
<path d="M492.762 290.851H479.812V294.686H492.762V290.851Z" fill="#EBB268"/>
<path d="M492.762 301.716H462.976V304.273H492.762V301.716Z" fill="white"/>
<path d="M492.762 306.829H449.378V309.386H492.762V306.829Z" fill="white"/>
<path d="M492.762 311.942H449.378V314.499H492.762V311.942Z" fill="white"/>
<path d="M476.829 278.775L476.233 277.557C474.135 273.178 472.737 270.32 473.748 267.867C473.932 267.397 474.21 266.968 474.565 266.606C474.92 266.244 475.345 265.955 475.815 265.758C476.285 265.561 476.79 265.459 477.301 265.458C477.812 265.457 478.317 265.557 478.788 265.752C479.345 265.979 479.845 266.323 480.254 266.76C480.663 267.198 480.97 267.717 481.155 268.283C481.688 268.005 482.275 267.845 482.877 267.814C483.479 267.783 484.081 267.881 484.64 268.103C485.115 268.287 485.548 268.564 485.913 268.917C486.278 269.269 486.567 269.691 486.764 270.156C486.961 270.621 487.061 271.12 487.059 271.624C487.057 272.128 486.953 272.627 486.752 273.09C485.74 275.543 482.718 276.625 478.118 278.314L476.829 278.775Z" fill="#FF6584"/>
<path d="M420.561 133.628H563.342V46.708H400.814V107.635" fill="#F2F2F2"/>
<path d="M556.219 127.237H412.79V125.959H554.924V40.3168H393.692V100.605H392.397V39.0386H556.219V127.237Z" fill="black"/>
<path d="M393.044 127.557H354.288L392.406 106.616L393.035 107.733L359.278 126.278H393.044V127.557Z" fill="black"/>
<path d="M537.441 69.7163H411.175V70.9945H537.441V69.7163Z" fill="black"/>
<path d="M537.441 82.4985H411.175V83.7768H537.441V82.4985Z" fill="black"/>
<path d="M537.441 95.281H411.175V96.5592H537.441V95.281Z" fill="black"/>
<path d="M356.773 131.935C359.709 131.935 362.089 129.586 362.089 126.688C362.089 123.791 359.709 121.442 356.773 121.442C353.838 121.442 351.458 123.791 351.458 126.688C351.458 129.586 353.838 131.935 356.773 131.935Z" fill="#EBB268"/>
<path d="M546.579 21.8963L546.173 19.6216C544.791 11.4668 543.839 6.1322 546.656 2.56696C547.18 1.87935 547.838 1.30246 548.592 0.870446C549.346 0.438429 550.18 0.160067 551.044 0.0518335C551.909 -0.0564001 552.787 0.00769593 553.626 0.240328C554.465 0.472961 555.249 0.869401 555.93 1.40618C556.737 2.03474 557.397 2.8293 557.862 3.73468C558.328 4.64007 558.588 5.63459 558.625 6.64919C559.631 6.43722 560.672 6.44389 561.675 6.66874C562.678 6.8936 563.619 7.33125 564.434 7.9513C565.127 8.47252 565.708 9.12575 566.141 9.87235C566.574 10.6189 566.851 11.4437 566.955 12.2978C567.06 13.152 566.989 14.0181 566.749 14.845C566.508 15.6718 566.101 16.4426 565.553 17.1116C562.737 20.6769 557.263 21.0664 548.914 21.7309L546.579 21.8963Z" fill="#FF6584"/>
</g>
<defs>
<clipPath id="clip0">
<rect width="567" height="473" fill="white"/>
</clipPath>
</defs>
</svg>
