<svg width="26" height="26" viewBox="0 0 26 26" fill="none" xmlns="http://www.w3.org/2000/svg">
<path d="M22.4977 4.56832H21.646C19.7843 4.56832 18.1665 3.64043 17.9643 2.45533C17.8604 1.85026 16.7574 1.17636 15.3395 1.17636H10.2815C8.87243 1.17636 7.79921 1.84278 7.71737 2.44051C7.55409 3.63358 5.96115 4.56832 4.09087 4.56832H3.41006C2.79288 4.56892 2.20117 4.79515 1.76473 5.19737C1.32829 5.59959 1.08277 6.14495 1.08203 6.71381V15.0579C1.08283 15.6267 1.32838 16.172 1.76482 16.5742C2.20125 16.9763 2.79293 17.2025 3.41006 17.2031H8.12448V20.6091C8.07297 20.6071 7.99459 20.6051 7.89407 20.6051C6.90753 20.5934 5.93195 20.7967 5.04685 21.1985C4.6343 21.3927 4.2774 21.674 4.00527 22.0196C3.73315 22.3651 3.55351 22.7651 3.48101 23.1868C3.48048 23.5162 3.60062 23.8362 3.82199 24.095C4.04335 24.3537 4.35298 24.5359 4.70073 24.6122C5.32339 24.7533 5.96197 24.826 6.60316 24.8287C7.42112 24.852 8.23441 24.7069 8.9839 24.404C9.73339 24.1012 10.4002 23.6482 10.9359 23.078C11.0363 22.9713 11.1244 22.8554 11.1989 22.732C11.397 22.4045 11.5004 22.0355 11.4992 21.6604V17.2031H14.5501V21.6603C14.5483 22.0798 14.6783 22.4907 14.9243 22.8436C14.9811 22.9258 15.0443 23.0041 15.1133 23.078C15.649 23.6482 16.3158 24.1012 17.0653 24.4041C17.8148 24.7069 18.6281 24.852 19.4461 24.8288C20.0873 24.826 20.7259 24.7533 21.3486 24.6122C21.6979 24.5352 22.0086 24.3512 22.23 24.0905C22.4513 23.8297 22.5703 23.5075 22.5674 23.1764C22.4684 22.5831 22.1526 22.0386 21.6722 21.6332C20.5697 20.7007 18.8172 20.605 18.1554 20.605C18.0547 20.605 17.9764 20.6071 17.925 20.6091V17.2031H22.4977C23.1148 17.2025 23.7064 16.9763 24.1428 16.5741C24.5792 16.1719 24.8247 15.6267 24.8254 15.0579V6.71381C24.8247 6.14499 24.5793 5.59964 24.1429 5.19742C23.7065 4.7952 23.1148 4.56896 22.4977 4.56832ZM12.9538 15.7551C11.7567 15.7551 10.5865 15.428 9.59122 14.815C8.59589 14.202 7.82012 13.3308 7.362 12.3114C6.90388 11.2921 6.784 10.1704 7.01751 9.08826C7.25102 8.00611 7.82744 7.01209 8.67387 6.23189C9.52029 5.45169 10.5987 4.92036 11.7728 4.70508C12.9468 4.48981 14.1638 4.60026 15.2697 5.02247C16.3757 5.44468 17.3209 6.15969 17.986 7.07708C18.6511 7.99446 19.0061 9.07302 19.0061 10.1764C19.0043 11.6554 18.366 13.0733 17.2314 14.1192C16.0968 15.165 14.5584 15.7534 12.9538 15.7551Z" fill="#2F2E41"/>
<path d="M12.9538 5.58459C11.9684 5.58458 11.0052 5.85388 10.186 6.35843C9.36667 6.86299 8.72812 7.58014 8.35104 8.4192C7.97396 9.25826 7.8753 10.1815 8.06753 11.0723C8.25975 11.963 8.73424 12.7812 9.43097 13.4234C10.1277 14.0656 11.0154 14.503 11.9818 14.6801C12.9482 14.8573 13.9499 14.7664 14.8602 14.4188C15.7706 14.0712 16.5486 13.4827 17.096 12.7275C17.6434 11.9724 17.9356 11.0846 17.9356 10.1764C17.9341 8.95895 17.4088 7.79179 16.4748 6.93096C15.5409 6.07013 14.2746 5.58593 12.9538 5.58459ZM13.0242 13.5907C12.4448 13.5904 11.8735 13.4649 11.3563 13.2242C10.839 12.9836 10.3901 12.6345 10.0458 12.205C9.70137 11.7755 9.47104 11.2775 9.37327 10.7511C9.27549 10.2247 9.31299 9.6845 9.48275 9.17387C9.27402 8.93456 9.16126 8.6362 9.16353 8.32916C9.1658 8.02211 9.28295 7.72519 9.4952 7.48853C9.70745 7.25187 10.0018 7.08996 10.3285 7.03015C10.6553 6.97033 10.9944 7.01627 11.2887 7.16021C11.7857 6.91732 12.3361 6.78194 12.8983 6.76435C13.4605 6.74677 14.0197 6.84743 14.5334 7.05871C15.0471 7.26999 15.5018 7.58633 15.8631 7.98374C16.2244 8.38115 16.4827 8.84918 16.6185 9.35233C16.7543 9.85547 16.764 10.3805 16.6468 10.8876C16.5297 11.3947 16.2887 11.8706 15.9423 12.2791C15.5959 12.6876 15.1531 13.018 14.6475 13.2453C14.1419 13.4725 13.5868 13.5906 13.0242 13.5907Z" fill="#EBB268"/>
<path d="M22.4983 3.5816H21.6466C20.2292 3.5816 19.1262 2.90707 19.0223 2.30186C18.8203 1.11715 17.203 0.18927 15.3403 0.18927H10.2823C8.41222 0.18927 6.81919 1.12398 6.65603 2.3169C6.57435 2.91514 5.50081 3.58168 4.09155 3.58168H3.41069C2.50969 3.58258 1.64586 3.91285 1.0087 4.50003C0.371548 5.08721 0.0130901 5.88336 0.0119629 6.71383V15.0579C0.0130656 15.8884 0.371513 16.6846 1.00867 17.2718C1.64583 17.859 2.50967 18.1892 3.41069 18.1901H6.98911V19.6618C6.10721 19.731 5.24897 19.9607 4.46407 20.3377C3.91085 20.6031 3.43259 20.984 3.06742 21.45C2.70224 21.9161 2.46027 22.4543 2.36079 23.0218L2.34564 23.1036V23.1867C2.34452 23.7367 2.54485 24.2709 2.91417 24.7029C3.2835 25.1348 3.80021 25.4392 4.38062 25.5668C5.08518 25.7261 5.80773 25.808 6.53318 25.8107C7.50354 25.8366 8.46795 25.6628 9.35625 25.3019C10.2446 24.941 11.0344 24.4021 11.6683 23.7245C11.8171 23.5667 11.9478 23.3951 12.0584 23.2125C12.3454 22.738 12.4957 22.2036 12.4948 21.6603V18.1901H13.4148V21.6603C13.4126 22.2692 13.602 22.8655 13.96 23.3772C14.0445 23.4991 14.1386 23.6151 14.2414 23.7244C14.8752 24.4021 15.665 24.941 16.5533 25.3019C17.4415 25.6628 18.4059 25.8366 19.3762 25.8107C20.1016 25.808 20.8241 25.7261 21.5285 25.5668C22.1105 25.4379 22.6281 25.1316 22.9974 24.6975C23.3667 24.2634 23.566 23.727 23.563 23.1753L23.5628 23.0926L23.5477 23.0112C23.4098 22.2029 22.9778 21.4619 22.3226 20.9099C21.3004 20.0452 19.9041 19.7547 18.9203 19.6628V18.1901H22.4983C23.3993 18.1892 24.2631 17.8589 24.9002 17.2717C25.5372 16.6845 25.8956 15.8883 25.8966 15.0579V6.71383C25.8956 5.88339 25.5372 5.08722 24.9002 4.50001C24.2631 3.9128 23.3993 3.58251 22.4983 3.5816ZM24.8261 15.0579C24.8253 15.6267 24.5798 16.172 24.1434 16.5741C23.707 16.9763 23.1154 17.2025 22.4983 17.2031H17.9256V20.6092C17.9771 20.6071 18.0552 20.6051 18.156 20.6051C18.8178 20.6051 20.5704 20.7007 21.6729 21.6333C22.1532 22.0387 22.469 22.5831 22.5681 23.1764C22.5709 23.5075 22.4519 23.8296 22.2306 24.0904C22.0092 24.3511 21.6986 24.535 21.3493 24.6121C20.7266 24.7532 20.088 24.8259 19.4468 24.8286C18.6288 24.8519 17.8155 24.7068 17.066 24.4039C16.3165 24.1011 15.6497 23.6481 15.114 23.0778C15.045 23.004 14.9818 22.9257 14.925 22.8435C14.679 22.4906 14.5491 22.0797 14.5508 21.6603V17.2031H11.4999V21.6603C11.5011 22.0354 11.3977 22.4044 11.1996 22.7319C11.1252 22.8553 11.037 22.9712 10.9366 23.0779C10.4009 23.6481 9.73411 24.1011 8.98462 24.4039C8.23513 24.7068 7.42184 24.8519 6.60388 24.8286C5.96269 24.8259 5.3241 24.7532 4.70144 24.6121C4.3537 24.5358 4.04407 24.3536 3.8227 24.0949C3.60132 23.8362 3.48116 23.5162 3.48166 23.1867C3.55416 22.765 3.7338 22.3651 4.00593 22.0196C4.27805 21.674 4.63495 21.3927 5.04751 21.1985C5.93259 20.7967 6.90815 20.5934 7.89467 20.6051C7.99518 20.6051 8.07366 20.6071 8.12507 20.6091V17.2031H3.41069C2.79355 17.2025 2.20187 16.9763 1.76543 16.5742C1.329 16.172 1.08345 15.6267 1.08266 15.0579V6.71383C1.08339 6.14496 1.32891 5.5996 1.76535 5.19738C2.20179 4.79516 2.79351 4.56893 3.41069 4.56833H4.09174C5.96202 4.56833 7.55496 3.63359 7.71824 2.44052C7.80008 1.84279 8.87331 1.17637 10.2824 1.17637H15.3404C16.7583 1.17637 17.8613 1.85028 17.9652 2.45534C18.1673 3.64045 19.7851 4.56833 21.6468 4.56833H22.4986C23.1157 4.56897 23.7074 4.79522 24.1438 5.19743C24.5801 5.59965 24.8256 6.145 24.8263 6.71383L24.8261 15.0579Z" fill="#0F2446"/>
<path d="M12.9538 4.59787C11.7567 4.59785 10.5865 4.92501 9.5912 5.53799C8.59587 6.15096 7.82009 7.02222 7.36198 8.04159C6.90388 9.06095 6.78401 10.1826 7.01754 11.2648C7.25107 12.3469 7.82751 13.341 8.67396 14.1212C9.52041 14.9013 10.5989 15.4327 11.7729 15.6479C12.947 15.8632 14.1639 15.7527 15.2699 15.3304C16.3758 14.9082 17.3211 14.1931 17.9861 13.2757C18.6512 12.3583 19.0061 11.2797 19.0061 10.1764C19.0042 8.69738 18.366 7.27947 17.2314 6.23367C16.0967 5.18787 14.5584 4.59959 12.9538 4.59787ZM12.9538 14.7684C11.9685 14.7684 11.0053 14.4991 10.186 13.9945C9.36672 13.49 8.72816 12.7729 8.35108 11.9338C7.974 11.0948 7.87532 10.1715 8.06752 9.28074C8.25973 8.39001 8.73419 7.5718 9.4309 6.9296C10.1276 6.2874 11.0153 5.85005 11.9817 5.67285C12.9481 5.49566 13.9497 5.58657 14.8601 5.9341C15.7704 6.28163 16.5485 6.87016 17.0959 7.62528C17.6433 8.3804 17.9356 9.26818 17.9356 10.1764C17.9341 11.3938 17.4088 12.561 16.4749 13.4218C15.5409 14.2827 14.2746 14.7669 12.9538 14.7683V14.7684Z" fill="#0F2446"/>
<path d="M13.0242 6.76239C12.419 6.76171 11.823 6.89835 11.2886 7.16024C11.4787 7.25288 11.6439 7.38337 11.7724 7.54224C11.9009 7.70112 11.9894 7.88437 12.0314 8.0787C12.0734 8.27303 12.068 8.47355 12.0154 8.66569C11.9629 8.85782 11.8645 9.03676 11.7276 9.18948C11.5906 9.34221 11.4184 9.4649 11.2236 9.54862C11.0287 9.63235 10.8161 9.67502 10.6011 9.67353C10.3861 9.67203 10.1742 9.62642 9.98076 9.54C9.7873 9.45357 9.61716 9.32851 9.4827 9.1739C9.25365 9.86091 9.26564 10.597 9.51696 11.2774C9.76828 11.9577 10.2461 12.5477 10.8824 12.9631C11.5187 13.3786 12.281 13.5984 13.0607 13.5912C13.8404 13.584 14.5978 13.3503 15.225 12.9232C15.8521 12.4961 16.3171 11.8976 16.5537 11.2127C16.7902 10.5279 16.7863 9.79168 16.5424 9.10902C16.2986 8.42636 15.8272 7.83203 15.1955 7.41069C14.5638 6.98934 13.8039 6.76247 13.0242 6.76239H13.0242Z" fill="#0F2446"/>
<path d="M10.611 9.67318C10.9396 9.67354 11.2586 9.57096 11.5157 9.38225C11.7727 9.19354 11.9525 8.92991 12.0257 8.63461C12.0988 8.33931 12.0609 8.02986 11.9181 7.75704C11.7754 7.48421 11.5363 7.2642 11.24 7.13309C10.9438 7.00198 10.608 6.96756 10.2877 7.03548C9.96749 7.10339 9.68178 7.26961 9.47749 7.50686C9.27319 7.74412 9.16244 8.03832 9.1634 8.34122C9.16436 8.64411 9.27697 8.93772 9.48276 9.17387C9.6183 9.3296 9.79004 9.4553 9.9853 9.54171C10.1806 9.62813 10.3944 9.67306 10.611 9.67318Z" fill="white"/>
</svg>
