<svg width="170" height="26" viewBox="0 0 170 26" fill="none" xmlns="http://www.w3.org/2000/svg">
<path d="M45.6091 14.3631C45.6173 14.4488 45.6384 14.6706 45.6724 15.0284C45.6892 15.1996 45.7019 15.3475 45.7103 15.4719C45.7272 15.6431 45.7399 15.8065 45.7483 15.9622C45.7652 16.1878 45.7736 16.4057 45.7736 16.6157C45.7803 17.1449 45.7252 17.6733 45.6091 18.1916C45.2122 19.9968 44.0303 20.8995 42.0635 20.8995H41.81C41.7598 20.9071 41.709 20.911 41.6581 20.9111C41.5773 20.9106 41.4968 20.9028 41.4177 20.8878H41.367C37.6777 20.8878 35.4827 19.1176 34.7821 15.5772C34.6038 14.6527 34.5189 13.7149 34.5286 12.7759C34.5286 12.2156 34.554 11.6281 34.6046 11.0135C34.6468 10.3677 34.7186 9.65183 34.8201 8.86596C34.862 8.58584 34.9084 8.26677 34.9593 7.90875L35.0226 7.46527L35.0859 7.05681C35.3559 5.22043 36.3056 4.03376 37.935 3.49681C38.588 3.2921 39.2715 3.18187 39.9611 3.17001H40.1766C40.4044 3.17001 40.6366 3.1778 40.8731 3.19337C41.1009 3.20114 41.3542 3.22058 41.6328 3.25168C41.6879 3.25206 41.7429 3.25596 41.7974 3.26334C41.8735 3.26342 41.9495 3.26732 42.0252 3.27503C42.228 3.29835 42.4307 3.32562 42.6331 3.35684C43.1354 3.44192 43.6245 3.583 44.0897 3.77696C45.1111 4.21278 45.6218 4.85467 45.6219 5.70264C45.6209 5.89089 45.5997 6.07858 45.5586 6.26299C45.4995 6.55006 45.3226 6.80507 45.0646 6.97495C44.9029 7.09451 44.7021 7.16032 44.4948 7.16174C44.3914 7.16143 44.2889 7.14567 44.191 7.1151C44.0799 7.08503 43.9648 7.06932 43.8489 7.06842C43.7548 7.06858 43.6612 7.08034 43.5705 7.1034C43.546 7.11107 43.5203 7.11502 43.4945 7.1151C43.368 7.1151 43.2919 7.03727 43.2664 6.88162V6.61314C43.2748 6.55122 43.279 6.48889 43.279 6.42649C43.2764 6.28998 43.2436 6.15541 43.1827 6.03097C43.1218 5.90653 43.034 5.79484 42.9246 5.70272C42.6547 5.44534 42.2869 5.29469 41.8988 5.2826C41.536 5.26705 41.2236 5.25927 40.9618 5.25925C40.7248 5.2546 40.4878 5.26631 40.2527 5.29426C40.0427 5.32855 39.8462 5.41308 39.6828 5.5394L39.6322 5.58607C39.5331 5.76702 39.4608 5.95937 39.417 6.158C39.3103 6.53871 39.2257 6.92439 39.1636 7.31341C39.0126 8.35413 38.9407 9.4033 38.9484 10.4533C38.9484 10.7256 38.9526 11.0057 38.961 11.2935L38.9863 11.9705L38.999 12.6475C39.0074 13.1922 39.0201 13.6435 39.037 14.0014C39.0648 14.8275 39.1579 15.6506 39.3155 16.4642C39.653 18.0517 40.3791 18.8454 41.4937 18.8453H41.633C41.7202 18.8372 41.8043 18.8109 41.8789 18.7684C41.9535 18.726 42.0167 18.6684 42.0636 18.6002C42.1237 18.5322 42.1747 18.4577 42.2155 18.3785C42.2408 18.3241 42.2788 18.2462 42.3294 18.145C42.4665 17.8586 42.5766 17.5618 42.6585 17.2579L42.7727 16.7793L42.874 16.3009C42.9376 15.9812 42.9715 15.6571 42.9752 15.3321C42.9752 14.7719 42.9963 14.1455 43.0385 13.453L43.0512 13.2545L43.0765 13.0444C43.0763 12.9196 43.1258 12.7991 43.2157 12.7059C43.2917 12.6283 43.5999 12.5738 44.1403 12.5426C44.3004 12.5348 44.4441 12.5309 44.5707 12.5309C44.7754 12.5207 44.9806 12.5404 45.1786 12.5892C45.2775 12.6242 45.3635 12.6845 45.4264 12.7631C45.4893 12.8417 45.5264 12.9353 45.5333 13.0327C45.5501 13.1416 45.5753 13.585 45.6091 14.3631Z" fill="#EBB268"/>
<path d="M56.7652 17.0825C56.992 17.3983 57.1991 17.7257 57.3857 18.0631C57.5769 18.3909 57.7217 18.74 57.8164 19.1018C57.8837 19.3463 57.9219 19.5967 57.9303 19.8488C57.9335 19.9481 57.9163 20.0471 57.8797 20.1406C57.7953 20.3353 57.5842 20.4365 57.2465 20.4441H57.1832C57.0052 20.444 56.8289 20.4123 56.6639 20.3507C56.4276 20.2652 56.2969 20.1562 56.2716 20.0239C56.157 19.4753 55.9474 18.9472 55.651 18.4599C55.144 17.6599 54.5077 16.9358 53.7642 16.3124C53.624 16.1751 53.4554 16.0651 53.2683 15.9889C53.0812 15.9127 52.8795 15.8718 52.675 15.8686H52.5611C52.1937 15.8938 51.8481 16.0386 51.5861 16.2773C51.5356 16.3188 51.4965 16.3708 51.4719 16.4289C51.4483 16.4766 51.4354 16.5283 51.434 16.5807V16.6157L51.5862 17.9929L51.7381 19.3703C51.7462 19.4636 51.7507 19.5532 51.7507 19.6388C51.7558 19.846 51.7171 20.0521 51.6368 20.2457C51.5486 20.4348 51.4036 20.5968 51.2188 20.7125C51.0338 20.8466 50.808 20.9242 50.573 20.9344V20.9227C50.5485 20.9303 50.5229 20.9342 50.497 20.9344C50.4522 20.9348 50.4077 20.9267 50.3663 20.9107C50.3249 20.8946 50.2876 20.8709 50.2565 20.841C50.2206 20.8135 50.1762 20.7972 50.1296 20.7944H50.079C50.049 20.7938 50.0191 20.7977 49.9904 20.8061C49.9055 20.8507 49.8097 20.8748 49.712 20.876H49.636C48.6566 20.8294 48.0698 20.3275 47.8757 19.3704L47.8631 19.2653C47.551 17.898 47.3772 16.507 47.3438 15.1101C47.3016 14.3243 47.2805 13.6201 47.2805 12.9975C47.2805 12.3129 47.3058 11.7254 47.3565 11.235C47.3543 11.0582 47.3756 10.8818 47.4198 10.7098C47.4633 10.4382 47.5399 10.172 47.6479 9.91609C47.7256 9.66111 47.8702 9.42766 48.069 9.23632C48.2677 9.04499 48.5144 8.90163 48.7874 8.81888C48.9442 8.77945 49.1062 8.75982 49.2688 8.76054C49.5322 8.76364 49.7932 8.80706 50.0412 8.88902C50.1601 8.92484 50.2747 8.97174 50.3832 9.029C50.428 9.02574 50.4716 9.01364 50.5109 8.99352C50.5502 8.9734 50.5844 8.94573 50.6111 8.91238C50.6902 8.81729 50.7893 8.73788 50.9025 8.67891H50.8898C51.2926 8.41608 51.7567 8.24414 52.2448 8.17695C52.6455 8.10733 53.0524 8.07218 53.4602 8.07196C53.6971 8.07199 53.9338 8.08367 54.1693 8.10695C54.4233 8.12064 54.6744 8.16376 54.9167 8.23529C55.1375 8.28514 55.3535 8.35153 55.5625 8.43377C56.0398 8.59476 56.4572 8.87828 56.7653 9.25083C57.1716 9.75928 57.4998 10.317 57.7405 10.9082C57.7749 10.9804 57.8045 11.0545 57.8291 11.1301C57.8925 11.2836 57.9308 11.4448 57.943 11.6087C57.9599 11.7482 57.9683 11.8884 57.9683 12.0288C57.9704 12.4483 57.8709 12.863 57.6772 13.2427C57.2395 13.9853 56.5502 14.5756 55.7145 14.9234L55.6386 14.9819C55.5963 15.0099 55.5617 15.0466 55.5375 15.0892C55.5132 15.1317 55.5001 15.1788 55.4991 15.2268C55.5021 15.3058 55.5284 15.3825 55.5753 15.4487L56.1192 16.1956C56.3302 16.4913 56.5202 16.7403 56.6891 16.9425C56.7211 16.9859 56.7467 17.033 56.7652 17.0825ZM54.2581 12.1687C54.4489 12.0464 54.608 11.8867 54.7241 11.701C54.8401 11.5154 54.9102 11.3084 54.9293 11.0949C54.9273 10.9323 54.8838 10.7723 54.8024 10.628C54.7939 10.6047 54.7728 10.5504 54.7391 10.4647L54.6885 10.3712L54.6378 10.2546C54.5493 10.081 54.4478 9.91328 54.334 9.75265C54.2347 9.59203 54.0935 9.45673 53.9233 9.35895C53.753 9.26117 53.5591 9.20397 53.3589 9.19252C53.3122 9.19295 53.2656 9.19685 53.2196 9.20419C52.4599 9.30528 51.9365 9.57758 51.6495 10.0211C51.5313 10.2047 51.4498 10.4063 51.4088 10.6164C51.3919 10.7021 51.375 10.7994 51.3581 10.9082L51.3328 11.1883L51.2948 11.6553V12.5541C51.2948 12.9121 51.2991 13.2117 51.3075 13.453C51.3159 13.6786 51.392 13.7915 51.5356 13.7915C51.6246 13.7858 51.7111 13.7619 51.7887 13.7213C52.0242 13.6047 52.2525 13.4761 52.4725 13.3362L52.9285 13.0561L53.3841 12.7759C53.7388 12.5502 54.0302 12.3478 54.2581 12.1687Z" fill="#EBB268"/>
<path d="M70.7583 19.1485C70.7606 19.3079 70.7306 19.4662 70.6698 19.6154C70.4842 20.409 69.9228 20.8448 68.9858 20.9227H68.7829C67.9304 20.9227 67.3437 20.7359 67.0229 20.3623C66.8901 20.2018 66.8029 20.0132 66.7695 19.8137C66.751 19.725 66.7383 19.6353 66.7315 19.5452V19.312L66.7062 19.1135V19.1018L66.6809 18.8567C66.6218 18.6389 66.4953 18.53 66.3013 18.5299H66.2757C66.0072 18.5678 65.7659 18.7021 65.6045 18.9034C64.9629 19.5571 63.9372 19.8839 62.5275 19.8839C62.4175 19.8839 62.3077 19.88 62.1982 19.8722C60.7799 19.8488 59.8935 19.2885 59.5389 18.1914C59.413 17.7895 59.3533 17.3724 59.3617 16.9541V16.779C59.3826 16.3672 59.4376 15.9575 59.5262 15.5534L59.5389 15.4484C59.771 14.3162 60.2775 13.2469 61.0207 12.3204C61.274 12.009 61.558 11.7199 61.8691 11.4566C61.9872 11.3633 62.1137 11.2699 62.2486 11.1765C62.3415 11.1065 62.4471 11.0325 62.5654 10.9546C62.9958 10.6403 63.5235 10.4605 64.0722 10.4412C64.2522 10.4415 64.4312 10.4651 64.6041 10.5112C64.8034 10.5638 65.0066 10.6028 65.2121 10.6278L65.5158 10.6628L65.8199 10.6979C65.8975 10.706 65.9738 10.7217 66.0478 10.7446L66.0604 10.7563C66.1786 10.7981 66.2864 10.8616 66.3772 10.9429C66.4383 10.9778 66.5079 10.9979 66.5797 11.0014C66.6269 11.0001 66.6722 10.9846 66.7089 10.9571C66.7455 10.9297 66.7713 10.8919 66.7822 10.8496C66.7897 10.8309 66.794 10.8112 66.7949 10.7912C66.7948 10.7674 66.7905 10.7438 66.7822 10.7212L66.7695 10.6278L66.7442 10.5228C66.7358 10.445 66.7316 10.3828 66.7316 10.336C66.7226 10.3095 66.7184 10.282 66.7189 10.2543C66.7189 9.99751 66.9637 9.77185 67.4534 9.57733C67.7026 9.46688 67.9746 9.40714 68.2511 9.40217C68.4673 9.40137 68.6804 9.44949 68.8716 9.54232L69.1757 9.69398L69.4668 9.83413C69.6572 9.94109 69.8282 10.075 69.9734 10.2309C70.2941 10.6201 70.4967 11.2971 70.5814 12.2618C70.6657 13.0245 70.7164 14.075 70.7333 15.4132C70.7417 15.8491 70.7459 16.3626 70.7459 16.9539V18.3779C70.7577 18.4395 70.7619 18.5021 70.7586 18.5646L70.7583 19.1485ZM65.9084 13.4995C66.01 13.334 66.0746 13.1514 66.0983 12.9625C66.1004 12.9372 66.097 12.9118 66.0883 12.8877C66.0796 12.8637 66.0658 12.8415 66.0477 12.8224C65.9801 12.7524 65.7733 12.7174 65.4271 12.7174H65.3259L65.1487 12.729H65.0347L64.9205 12.7407L64.8446 12.729L64.7434 12.7174C64.659 12.7097 64.5869 12.7019 64.5282 12.694C64.4737 12.6867 64.4187 12.6828 64.3636 12.6824C64.2472 12.6839 64.1326 12.7087 64.0277 12.7551C63.9227 12.8014 63.8299 12.8682 63.7557 12.9508L63.439 13.2777L63.1352 13.6161C62.9348 13.8436 62.7687 14.0949 62.6412 14.3632L62.4514 14.7717L62.2612 15.1918C62.1305 15.4665 62.0452 15.7576 62.0081 16.0556C61.9999 16.1215 61.9957 16.1877 61.9955 16.254C61.9873 16.4526 62.03 16.6502 62.1203 16.8307C62.2105 17.0112 62.3456 17.1695 62.5147 17.2928C62.5864 17.3384 62.6627 17.3774 62.7426 17.4094C62.8577 17.4631 62.9819 17.4987 63.1098 17.5147C63.1889 17.5298 63.2695 17.5376 63.3503 17.538C63.5648 17.5426 63.7732 17.4716 63.9328 17.3395C64.2418 17.1229 64.5075 16.8582 64.7179 16.5576C65.0802 15.9555 65.3407 15.3061 65.4903 14.6316C65.5912 14.243 65.7312 13.864 65.9084 13.4994V13.4995ZM66.4783 11.7603C66.4781 11.7365 66.4738 11.7129 66.4657 11.6903C66.4374 11.6055 66.3796 11.5316 66.3011 11.4801C66.0925 11.4053 65.8761 11.3505 65.6553 11.3168C65.4544 11.2858 65.251 11.2701 65.0473 11.27C64.7306 11.2696 64.4153 11.3088 64.1101 11.3868C64.066 11.3971 64.0255 11.4174 63.9923 11.446C63.9592 11.4745 63.9343 11.5104 63.9202 11.5501V11.5735C63.9202 11.6358 63.9877 11.667 64.1227 11.667C64.3601 11.621 64.6019 11.5975 64.8445 11.5968C65.2657 11.5968 65.6829 11.6721 66.0729 11.8187C66.1496 11.8469 66.231 11.8626 66.3136 11.8653C66.339 11.8666 66.3644 11.8632 66.3884 11.8551C66.4123 11.8471 66.4342 11.8347 66.4528 11.8187C66.4597 11.7986 66.4682 11.7791 66.4783 11.7602V11.7603Z" fill="#EBB268"/>
<path d="M79.8 18.6116H79.9392C80.3733 18.5783 80.8076 18.6722 81.1803 18.8801C81.3248 18.9964 81.437 19.1429 81.5075 19.3074C81.5779 19.4719 81.6046 19.6495 81.5853 19.8255C81.5848 19.8879 81.5806 19.9502 81.5726 20.0123C81.556 20.158 81.4997 20.2975 81.409 20.4179C81.3183 20.5383 81.1961 20.6356 81.0537 20.7009C80.7481 20.8569 80.4023 20.9335 80.0532 20.9227C79.9519 20.9227 79.8461 20.9187 79.7367 20.9111C79.061 20.8798 78.4574 20.8642 77.9258 20.8644C77.3348 20.8644 76.8241 20.8838 76.3936 20.9227C76.2127 20.9392 76.0309 20.947 75.849 20.946C75.3023 20.9392 74.7567 20.9002 74.2153 20.8294C73.9471 20.817 73.6871 20.7406 73.4606 20.6075C73.2341 20.4745 73.0491 20.2895 72.9237 20.0707C72.8531 19.9322 72.798 19.7876 72.7591 19.6389L72.7085 19.417L72.6579 19.1951L72.6452 19.1018L72.6326 19.0201C72.6225 18.9662 72.601 18.9146 72.5693 18.8683C72.3981 18.6125 72.3102 18.3167 72.3158 18.0162C72.3288 17.6208 72.4279 17.2319 72.6072 16.8725C72.8013 16.4601 73.0588 15.9427 73.3796 15.3201L73.785 14.5497L74.19 13.7794C74.6206 12.9235 75.1399 11.8885 75.7478 10.6746C75.7698 10.6264 75.7826 10.5751 75.7858 10.5229C75.7858 10.4453 75.7306 10.4024 75.6209 10.3946C75.41 10.3868 75.1736 10.3829 74.9118 10.3829C74.65 10.3829 74.363 10.3868 74.0508 10.3946H74.0002C73.3332 10.3946 72.8816 10.309 72.6452 10.1378C72.5507 10.0836 72.4793 10.0012 72.4427 9.90434C72.4129 9.82133 72.3959 9.73488 72.3921 9.64752V9.56583C72.4086 9.08347 72.7209 8.82278 73.329 8.78375C73.3493 8.77693 73.3707 8.773 73.3923 8.77209C73.4181 8.77224 73.4438 8.77618 73.4683 8.78375C73.5442 8.77617 74.0507 8.76062 74.9877 8.7371L75.5703 8.71375L76.1402 8.70209C76.5708 8.68654 76.9001 8.67487 77.128 8.6671H77.2167L77.3053 8.65544H77.6723C77.9744 8.65376 78.2758 8.68113 78.5716 8.7371C78.9857 8.79524 79.3775 8.94776 79.7114 9.18083C79.849 9.2839 79.9686 9.40594 80.0658 9.54264V9.55431C80.3348 9.88144 80.4894 10.2763 80.5091 10.6864C80.5089 10.8666 80.4702 11.0451 80.3952 11.2115L80.1038 11.9001L79.8 12.5771C79.5719 13.1218 79.0779 14.1528 78.3182 15.6701C78.0566 16.1992 77.7822 16.7478 77.4951 17.3158C77.2673 17.7594 77.0942 18.094 76.9759 18.3196C76.9457 18.3698 76.9284 18.4257 76.9252 18.483C76.9252 18.592 77.0182 18.6465 77.204 18.6465C77.2462 18.6465 77.3137 18.6426 77.4065 18.6348H77.6723C77.9258 18.6271 78.1496 18.6231 78.3438 18.623C78.9598 18.6155 79.4452 18.6117 79.8 18.6116Z" fill="#EBB268"/>
<path d="M94.5017 11.2466C94.5017 12.5773 94.4258 13.9468 94.2739 15.3552C94.0946 17.2137 93.7345 19.0536 93.1977 20.8526C93.0585 21.3664 92.8894 21.873 92.6911 22.37C92.5095 22.8004 92.3024 23.2212 92.0706 23.6305L92.0453 23.6772C91.8694 23.9667 91.6705 24.2437 91.4501 24.506C91.1576 24.875 90.7868 25.1854 90.3601 25.4181C89.9334 25.6509 89.4598 25.8012 88.968 25.8599C88.838 25.8757 88.7069 25.8835 88.5757 25.8833C88.3372 25.8831 88.0994 25.8596 87.8662 25.8133C87.5814 25.7595 87.3049 25.6732 87.0432 25.5565C85.8865 25.1751 85.0593 24.6071 84.5614 23.8524C84.2327 23.3488 84.0618 22.771 84.0675 22.1833V22.0082L84.0928 21.5996L84.1434 21.1911C84.1778 20.9224 84.237 20.6568 84.3206 20.3974C84.3804 20.222 84.5035 20.0709 84.6694 19.9689C84.8353 19.867 85.034 19.8204 85.2326 19.837H85.3465C85.4847 19.8431 85.62 19.8752 85.7442 19.9315C85.8683 19.9877 85.9786 20.0668 86.0683 20.164C86.1948 20.2919 86.2667 20.4577 86.2708 20.6308C86.2711 20.6738 86.2669 20.7168 86.2581 20.7591L86.2328 20.8409L86.1948 20.9575C86.0787 21.2142 86.0061 21.4859 85.9797 21.7629L85.9543 22.1831V22.6032C85.9682 22.8589 86.0604 23.1058 86.2202 23.3153L86.2328 23.3269C86.296 23.3983 86.3867 23.4443 86.4859 23.4553C86.5635 23.4788 86.6448 23.4907 86.7266 23.4903C86.9348 23.4837 87.1367 23.4231 87.3091 23.3153C87.7794 22.9989 88.1542 22.577 88.398 22.0897C88.813 21.3555 89.1359 20.5802 89.3605 19.7786C89.5936 19.072 89.7422 18.344 89.8036 17.6077C89.7782 17.3666 89.6896 17.2421 89.5377 17.2342H89.5124C89.4446 17.2368 89.3783 17.254 89.3189 17.2844C89.2595 17.3148 89.2087 17.3575 89.1704 17.4092C88.7854 17.8092 88.2529 18.0631 87.6762 18.1213C87.5291 18.1371 87.3812 18.1449 87.2332 18.1446C86.7817 18.1404 86.3334 18.0735 85.9035 17.9461C85.0844 17.7206 84.3752 17.1292 83.7758 16.172C83.5491 15.8088 83.3625 15.4257 83.2186 15.0282C83.1088 14.7415 83.0365 14.4437 83.0034 14.1412L82.9908 14.0243L82.9149 12.7521V12.6938C82.9436 11.6401 83.1312 10.5952 83.4721 9.5891C83.532 9.39864 83.6038 9.21154 83.6873 9.02875L83.8265 8.80688L83.966 8.59688C84.0612 8.44843 84.1857 8.31774 84.3331 8.2116C84.6175 8.03763 84.9547 7.95181 85.2957 7.96661C85.4908 7.96808 85.6855 7.98367 85.8779 8.01326C86.7646 8.16117 87.2079 8.67473 87.2076 9.55395C87.2037 9.84868 87.1655 10.1422 87.0936 10.4294L87.0683 10.546C86.9707 10.9149 86.8988 11.2892 86.8531 11.6666C86.8278 11.8299 86.8025 12.0049 86.7772 12.1917C86.7688 12.2463 86.76 12.3046 86.7519 12.3668L86.7392 12.4252V12.4602C86.6701 13.0105 86.6321 13.5637 86.6253 14.1177C86.6233 14.3477 86.636 14.5776 86.6633 14.8063C86.7727 15.4756 87.0639 15.8529 87.5369 15.9384H87.5496L87.6382 15.9617L87.7647 15.985C87.8363 15.9926 87.9082 15.9965 87.9802 15.9967H88.0941C88.3941 15.9875 88.6828 15.8892 88.9172 15.7165C89.6685 15.1953 90.1708 14.0203 90.424 12.1916C90.4493 12.0439 90.4831 11.6782 90.5253 11.0945C90.5509 10.8221 90.5721 10.5926 90.5889 10.4059C90.6142 10.1414 90.6437 9.90409 90.6775 9.69381C90.8378 8.5266 91.1037 7.83795 91.4752 7.62784L91.703 7.54618L91.9059 7.51119C92.0929 7.47302 92.2839 7.45346 92.4755 7.45285H92.6403C92.9265 7.47115 93.2041 7.55112 93.4507 7.68632C94.0839 8.05213 94.4257 8.79135 94.4763 9.90395C94.4931 10.0596 94.5016 10.1919 94.5016 10.3008C94.5021 10.3632 94.4979 10.4256 94.4889 10.4875C94.4974 10.737 94.5017 10.99 94.5017 11.2466Z" fill="#EBB268"/>
<path d="M113.8 6.43789C113.877 6.67914 113.936 6.87756 113.978 7.03315C114.046 7.28219 114.105 7.51172 114.155 7.72176C114.274 8.23345 114.355 8.75216 114.396 9.27413C114.413 9.47649 114.421 9.67102 114.421 9.85772C114.454 10.7531 114.212 11.6389 113.725 12.4138L113.636 12.5423L113.509 12.694C113.273 12.9967 113.001 13.2746 112.699 13.5227C112.479 13.7278 112.238 13.9117 111.977 14.0713C111.653 14.2592 111.298 14.3972 110.926 14.4798C110.378 14.6442 109.805 14.727 109.229 14.7249C108.997 14.7247 108.764 14.713 108.533 14.6899C108.384 14.6748 108.236 14.6514 108.09 14.6198C107.971 14.6044 107.853 14.5849 107.735 14.5614L107.596 14.5265L107.494 14.5031C107.453 14.4921 107.411 14.4843 107.368 14.4798C107.343 14.4722 107.318 14.4683 107.292 14.4681C107.237 14.4669 107.183 14.4834 107.14 14.5148C107.106 14.5292 107.077 14.5522 107.057 14.5812C107.037 14.6101 107.026 14.6438 107.026 14.6783L106.988 15.7287L106.975 15.822L106.962 16.4873L106.95 18.0864C106.908 19.3003 106.827 20.0162 106.709 20.234C106.678 20.2651 106.653 20.3006 106.633 20.339L106.57 20.4674C106.529 20.5829 106.465 20.6899 106.38 20.7826C106.311 20.8291 106.225 20.8499 106.139 20.8409H106.076C105.899 20.8563 105.726 20.8641 105.557 20.8642C104.9 20.8831 104.251 20.7205 103.695 20.3973C103.561 20.3185 103.437 20.2244 103.328 20.1172L103.29 20.0822C103.255 20.0517 103.225 20.0163 103.201 19.9772C102.88 19.4849 102.694 18.9282 102.657 18.3548C102.623 18.1058 102.598 17.8218 102.581 17.5028L102.568 17.3043V17.1409C102.56 17.0008 102.551 16.9074 102.543 16.8608C102.543 16.744 102.522 15.0399 102.48 11.7485C102.463 10.2001 102.446 8.88899 102.429 7.81503C102.404 6.38333 102.374 5.24338 102.34 4.39517C102.332 4.14628 102.328 3.91286 102.328 3.6949C102.328 2.44993 102.488 1.64067 102.809 1.26712C102.875 1.18498 102.959 1.11584 103.055 1.06375C103.15 1.01167 103.256 0.977673 103.366 0.96376C103.412 0.955719 103.459 0.951804 103.505 0.95207C103.56 0.952451 103.615 0.956357 103.67 0.96376L103.822 0.975422H103.974L104.442 0.998747C104.595 0.996773 104.748 1.00849 104.898 1.03373C105.218 1.06773 105.523 1.17619 105.785 1.3489C106.007 1.48582 106.179 1.68105 106.279 1.90925C106.294 1.96078 106.327 2.00648 106.373 2.03994C106.418 2.0734 106.474 2.09297 106.532 2.0959C106.604 2.09251 106.673 2.07245 106.734 2.03759C107.145 1.8163 107.614 1.70325 108.089 1.71076C108.533 1.71815 108.973 1.78905 109.394 1.92091C109.754 2.03402 110.102 2.17862 110.432 2.35272H110.419C111.259 2.75145 111.98 3.33228 112.522 4.04516C113.105 4.76274 113.539 5.57412 113.8 6.43789ZM107.292 12.659C108.896 12.659 109.972 12.0481 110.521 10.8265C110.752 10.2655 110.889 9.67496 110.926 9.07565C110.951 8.82676 110.964 8.55056 110.964 8.24704C110.964 7.94352 110.951 7.61278 110.926 7.25482C110.905 6.06507 110.532 4.90311 109.85 3.89332C109.643 3.60921 109.376 3.36694 109.064 3.18136C108.98 3.14249 108.908 3.11138 108.849 3.08804C108.578 2.99308 108.291 2.94555 108.001 2.94789H107.861C107.598 2.95322 107.338 2.99657 107.089 3.07638C106.943 3.10041 106.812 3.17086 106.717 3.27537C106.622 3.37989 106.57 3.51183 106.57 3.64811V3.68323L106.583 4.25497V4.82701C106.591 5.27832 106.608 5.65184 106.633 5.94754C106.659 6.57019 106.676 7.09154 106.684 7.51158C106.709 8.10298 106.726 8.60875 106.735 9.02891C106.768 10.1185 106.785 10.741 106.785 10.8964V11.1299L106.773 11.41V11.9586C106.789 12.3867 106.874 12.6084 107.026 12.6239C107.103 12.6475 107.185 12.6593 107.266 12.6589L107.292 12.659Z" fill="#2F2E41"/>
<path d="M125.362 17.0825C125.589 17.3983 125.796 17.7257 125.983 18.0631C126.174 18.3909 126.319 18.74 126.413 19.1018C126.481 19.3463 126.519 19.5967 126.527 19.8488C126.53 19.9481 126.513 20.0471 126.477 20.1406C126.392 20.3353 126.181 20.4365 125.843 20.4441H125.78C125.602 20.444 125.426 20.4123 125.261 20.3507C125.025 20.2652 124.894 20.1562 124.869 20.0239C124.754 19.4753 124.544 18.9472 124.248 18.4599C123.741 17.6599 123.105 16.9358 122.361 16.3124C122.221 16.1751 122.052 16.0651 121.865 15.9889C121.678 15.9127 121.477 15.8718 121.272 15.8686H121.158C120.791 15.8938 120.445 16.0386 120.183 16.2773C120.133 16.3188 120.094 16.3708 120.069 16.4289C120.045 16.4766 120.032 16.5283 120.031 16.5807V16.6157L120.183 17.9929L120.335 19.3703C120.343 19.4636 120.348 19.5532 120.348 19.6388C120.353 19.846 120.314 20.0521 120.234 20.2457C120.146 20.4348 120.001 20.5968 119.816 20.7125C119.631 20.8466 119.405 20.9242 119.17 20.9344V20.9227C119.146 20.9303 119.12 20.9342 119.094 20.9344C119.049 20.9348 119.005 20.9267 118.963 20.9107C118.922 20.8946 118.885 20.8709 118.854 20.841C118.818 20.8135 118.773 20.7972 118.727 20.7944H118.676C118.646 20.7938 118.616 20.7977 118.587 20.8061C118.503 20.8507 118.407 20.8748 118.309 20.876H118.233C117.254 20.8294 116.667 20.3275 116.473 19.3704L116.46 19.2653C116.148 17.898 115.974 16.507 115.941 15.1101C115.899 14.3243 115.878 13.6201 115.878 12.9975C115.878 12.3129 115.903 11.7254 115.954 11.235C115.951 11.0582 115.973 10.8818 116.017 10.7098C116.06 10.4382 116.137 10.172 116.245 9.91609C116.323 9.66111 116.467 9.42766 116.666 9.23632C116.865 9.04499 117.111 8.90163 117.384 8.81888C117.541 8.77945 117.703 8.75982 117.866 8.76054C118.129 8.76364 118.39 8.80706 118.638 8.88902C118.757 8.92484 118.872 8.97174 118.98 9.029C119.025 9.02574 119.069 9.01364 119.108 8.99352C119.147 8.9734 119.181 8.94573 119.208 8.91238C119.287 8.81729 119.386 8.73788 119.5 8.67891H119.487C119.89 8.41608 120.354 8.24414 120.842 8.17695C121.243 8.10733 121.649 8.07218 122.057 8.07196C122.294 8.07199 122.531 8.08367 122.766 8.10695C123.02 8.12064 123.271 8.16376 123.514 8.23529C123.735 8.28514 123.951 8.35153 124.16 8.43377C124.637 8.59476 125.054 8.87828 125.362 9.25083C125.769 9.75928 126.097 10.317 126.338 10.9082C126.372 10.9804 126.402 11.0545 126.426 11.1301C126.49 11.2836 126.528 11.4448 126.54 11.6087C126.557 11.7482 126.565 11.8884 126.565 12.0288C126.567 12.4483 126.468 12.863 126.274 13.2427C125.837 13.9853 125.147 14.5756 124.312 14.9234L124.236 14.9819C124.193 15.0099 124.159 15.0467 124.135 15.0892C124.11 15.1317 124.097 15.1788 124.096 15.2268C124.099 15.3058 124.125 15.3825 124.172 15.4487L124.717 16.1958C124.928 16.4915 125.118 16.7404 125.287 16.9427C125.318 16.986 125.344 17.033 125.362 17.0825ZM122.855 12.1687C123.046 12.0464 123.205 11.8867 123.321 11.701C123.437 11.5154 123.507 11.3084 123.526 11.0949C123.524 10.9323 123.481 10.7723 123.399 10.628C123.391 10.6047 123.37 10.5504 123.336 10.4647L123.285 10.3712L123.235 10.2546C123.146 10.081 123.045 9.91328 122.931 9.75265C122.832 9.59203 122.691 9.45673 122.52 9.35895C122.35 9.26117 122.156 9.20397 121.956 9.19252C121.909 9.19295 121.863 9.19685 121.817 9.20419C121.057 9.30528 120.533 9.57758 120.246 10.0211C120.128 10.2047 120.047 10.4063 120.006 10.6164C119.989 10.7021 119.972 10.7994 119.955 10.9082L119.93 11.1883L119.892 11.6552V12.5541C119.892 12.912 119.896 13.2116 119.904 13.4529C119.913 13.6786 119.989 13.7914 120.133 13.7914C120.222 13.7858 120.308 13.7618 120.386 13.7213C120.621 13.6046 120.849 13.4761 121.069 13.3361L121.525 13.056L121.981 12.7759C122.336 12.5502 122.627 12.3478 122.855 12.1687Z" fill="#2F2E41"/>
<path d="M132.644 19.7554L132.656 19.8607V19.919C132.659 19.9907 132.646 20.0621 132.618 20.129C132.578 20.2663 132.503 20.3928 132.4 20.4983C132.296 20.6038 132.167 20.6852 132.023 20.7359C131.721 20.8488 131.399 20.912 131.073 20.9227H130.883C130.48 20.9364 130.082 20.8345 129.744 20.6309C129.598 20.545 129.473 20.4322 129.377 20.2996C129.281 20.1671 129.216 20.0176 129.186 19.8606C129.176 19.8279 129.158 19.7975 129.134 19.7714C129.11 19.7453 129.08 19.724 129.047 19.7088C128.89 19.6144 128.76 19.4868 128.667 19.3365C128.575 19.1862 128.523 19.0177 128.515 18.8451C128.473 18.6195 128.422 18.3121 128.363 17.923L128.338 17.783C128.262 17.2384 128.199 16.7171 128.148 16.219C128.08 15.5419 128.034 14.896 128.009 14.2813C128 14.0402 127.996 13.8029 127.996 13.5694C127.978 12.4126 128.101 11.2575 128.364 10.1262C128.38 10.0484 128.401 9.94728 128.427 9.8227L128.452 9.68255L128.49 9.54255C128.516 9.38142 128.576 9.22663 128.667 9.08727C128.844 8.81506 129.224 8.67891 129.807 8.67881H129.858C129.886 8.68832 129.916 8.69229 129.946 8.69047L130.086 8.67881C130.205 8.67808 130.324 8.68981 130.44 8.7138C130.819 8.7824 131.172 8.93913 131.466 9.16908C131.554 9.2266 131.635 9.29314 131.707 9.36742C132.091 9.70071 132.326 10.1546 132.365 10.6396V10.663L132.352 11.8769V13.616H132.365V15.8336C132.373 16.0904 132.39 16.3822 132.416 16.709L132.441 17.1293C132.458 17.3006 132.466 17.4562 132.466 17.5961L132.492 18.0281L132.517 18.4599L132.542 18.8217L132.58 19.1952L132.644 19.7321L132.644 19.7554ZM129.098 7.1148C129.073 7.035 129.061 6.95255 129.06 6.86964C129.068 6.61604 129.171 6.37279 129.351 6.18103V6.16937L129.427 6.09923L129.452 6.0759C129.566 5.95562 129.706 5.85904 129.863 5.79263C130.02 5.72621 130.191 5.69148 130.364 5.69077C130.615 5.69585 130.861 5.75166 131.086 5.85423C131.245 5.91738 131.379 6.02408 131.469 6.15982C131.56 6.29556 131.603 6.45374 131.593 6.61284C131.592 6.70669 131.583 6.80034 131.567 6.89299C131.474 7.40658 131.208 7.68282 130.769 7.72172H130.757L130.681 7.74507L130.592 7.75673H130.529L130.466 7.76839H130.415C130.059 7.79363 129.704 7.72478 129.389 7.56994C129.25 7.44465 129.15 7.28761 129.098 7.11483V7.1148Z" fill="#2F2E41"/>
<path d="M146.117 18.5299C146.126 18.6545 146.13 18.7751 146.13 18.8917C146.155 19.4122 146.051 19.9311 145.826 20.4091C145.755 20.5604 145.646 20.6937 145.507 20.7974C145.368 20.9011 145.204 20.9721 145.028 21.0043C144.842 21.0119 144.665 21.0158 144.496 21.016C143.694 21.016 143.124 20.8954 142.787 20.6542H142.774C142.356 20.3352 142.088 19.8792 142.027 19.382C141.97 19.1204 141.936 18.855 141.926 18.5883L141.9 18.1915L141.875 17.7946C141.85 17.3823 141.816 16.6236 141.774 15.5185C141.757 15.1062 141.744 14.6743 141.736 14.223C141.719 13.8495 141.706 13.5227 141.698 13.2426L141.711 13.0325L141.698 12.9508C141.647 12.554 141.466 12.3361 141.153 12.2972C141.107 12.2892 141.061 12.2852 141.014 12.2855C140.581 12.3149 140.154 12.4014 139.748 12.5423C139.214 12.6934 138.731 12.9664 138.342 13.3359C138.098 13.5614 137.934 13.8507 137.873 14.1647V14.328L137.949 16.2656C137.958 16.4523 138 16.9581 138.076 17.783C138.101 18.0553 138.127 18.3393 138.152 18.635C138.16 18.7362 138.169 18.8295 138.177 18.9151C138.185 18.9458 138.189 18.9771 138.19 19.0085V19.0435C138.222 19.2366 138.239 19.4317 138.24 19.6271C138.253 19.9098 138.188 20.1909 138.051 20.444C137.974 20.561 137.87 20.6607 137.747 20.7358C137.65 20.7919 137.542 20.8314 137.43 20.8526C137.188 20.893 136.942 20.9164 136.696 20.9226C136.628 20.9236 136.56 20.9197 136.493 20.911C136.258 20.855 136.044 20.7422 135.873 20.5842C135.797 20.536 135.71 20.5041 135.62 20.4908C135.46 20.4784 135.306 20.4259 135.176 20.339V20.3507L135.164 20.3273C134.965 20.1629 134.824 19.9475 134.758 19.7087C134.437 18.9775 134.214 17.7714 134.087 16.0904C134.011 15.1257 133.973 14.157 133.973 13.1842C133.973 12.8574 133.977 12.5305 133.986 12.2036C134.02 11.1532 134.176 10.4412 134.454 10.0677C134.576 9.93695 134.728 9.83258 134.899 9.76199C135.069 9.6914 135.255 9.65631 135.442 9.65922C135.569 9.65163 135.691 9.64773 135.809 9.64752C136.244 9.6177 136.675 9.74306 137.012 9.99767C137.126 10.0989 137.22 10.2173 137.291 10.3478L137.329 10.4296L137.379 10.4996C137.399 10.5381 137.424 10.5735 137.455 10.6046L137.557 10.7214L137.671 10.838C137.724 10.9123 137.805 10.9662 137.899 10.9897H137.924C138.014 10.9828 138.101 10.9547 138.177 10.908L138.329 10.8264L138.468 10.7447C138.863 10.5242 139.278 10.3367 139.709 10.1844L140.355 9.96249L141.001 9.74062L141.191 9.68228L141.229 9.67062L141.381 9.64727L141.545 9.61228C141.672 9.58896 141.79 9.56951 141.9 9.55394C142.127 9.52413 142.355 9.50854 142.584 9.50729H142.71C143.333 9.52035 143.925 9.75944 144.357 10.1725C144.863 10.6258 145.257 11.1755 145.509 11.7832C145.77 12.4681 145.91 13.5069 145.927 14.8996C145.935 15.4366 145.969 16.1097 146.028 16.9189L146.054 17.351L146.079 17.7713C146.096 18.0748 146.109 18.3277 146.117 18.5299Z" fill="#2F2E41"/>
<path d="M155.336 7.73343C155.459 7.73423 155.581 7.74202 155.703 7.75675C155.898 7.78916 156.089 7.83999 156.273 7.90842C156.451 7.95454 156.609 8.05188 156.722 8.18627C156.836 8.32065 156.901 8.48505 156.906 8.65551V8.74883C156.898 8.80343 156.889 8.85403 156.881 8.90064C156.864 8.95667 156.834 9.0085 156.792 9.05231L156.552 9.29744C156.459 9.38313 156.374 9.45709 156.298 9.5193C156.116 9.6722 155.9 9.78757 155.665 9.85779C155.133 10.0089 154.586 10.1105 154.032 10.1613C153.995 10.1598 153.959 10.1656 153.925 10.1781C153.891 10.1907 153.861 10.2097 153.836 10.2341C153.81 10.2584 153.791 10.2874 153.779 10.3191C153.767 10.3508 153.763 10.3846 153.766 10.4181L153.829 12.5656L153.854 13.3009V13.721L153.842 14.1413C153.842 14.4759 153.85 14.7521 153.867 14.9701C153.892 15.2813 153.952 15.791 154.044 16.4991L154.095 16.9192L154.146 17.316C154.179 17.6118 154.205 17.8492 154.222 18.0281C154.266 18.4079 154.287 18.7898 154.285 19.1718C154.293 19.2498 154.297 19.3237 154.297 19.3937C154.297 20.0707 154.044 20.5297 153.538 20.7709C153.307 20.8712 153.058 20.9306 152.803 20.946C152.732 20.954 152.66 20.9579 152.588 20.9577C152.431 20.9567 152.275 20.945 152.119 20.9227C151.902 20.903 151.694 20.8341 151.513 20.7221C151.331 20.6101 151.183 20.4585 151.081 20.2808C150.87 19.9335 150.728 19.5538 150.663 19.1601V19.1251C150.618 18.8313 150.597 18.5347 150.6 18.238C150.6 17.8958 150.621 17.5184 150.663 17.1059V16.5924C150.672 16.4135 150.676 16.2384 150.676 16.0671V15.4369C150.693 14.2542 150.71 13.3788 150.727 12.8106V10.7448C150.727 10.558 150.642 10.4646 150.474 10.4647H150.41L149.764 10.558L149.131 10.6746L148.27 10.8147H148.245C147.91 10.8664 147.571 10.8937 147.232 10.8964C146.904 10.9057 146.578 10.8582 146.269 10.7564C146.11 10.709 145.969 10.6216 145.862 10.504C145.754 10.3864 145.685 10.2433 145.661 10.0911C145.645 9.97102 145.637 9.85018 145.636 9.72919C145.616 9.43637 145.711 9.1467 145.902 8.91225C146.17 8.64873 146.537 8.48991 146.927 8.46852H146.953L147.054 8.45685C147.493 8.41017 148.017 8.33621 148.625 8.23499L149.41 8.09524L150.195 7.95524C150.614 7.88674 151.036 7.83996 151.461 7.81512L152.107 7.78011L152.74 7.75678C153.052 7.7492 153.466 7.74142 153.981 7.73346L155.336 7.73343Z" fill="#2F2E41"/>
<path d="M168.671 15.8337C168.679 15.865 168.688 15.9076 168.696 15.9621C168.705 16.024 168.709 16.0864 168.709 16.1488C168.717 16.2656 168.721 16.3863 168.721 16.5107V16.6974C168.71 17.2169 168.616 17.7321 168.443 18.2264C167.928 19.6582 166.813 20.522 165.099 20.8177L165.011 20.8294C164.456 20.8882 163.898 20.9193 163.339 20.9227C162.911 20.9273 162.483 20.896 162.06 20.8294C161.013 20.6425 160.359 20.1873 160.098 19.4637C160.043 19.388 160.016 19.2978 160.022 19.2069V19.0785L160.034 18.9502C160.042 18.8601 160.07 18.7727 160.119 18.694C160.167 18.6154 160.233 18.5475 160.313 18.4951C160.412 18.4163 160.537 18.371 160.668 18.3667C160.76 18.3684 160.85 18.3883 160.933 18.4251C161.168 18.5306 161.389 18.6598 161.592 18.8102C161.652 18.8498 161.716 18.8849 161.782 18.9152C162.058 18.9893 162.343 19.0286 162.63 19.032C162.993 19.0378 163.349 18.9501 163.66 18.7789C163.971 18.6078 164.224 18.3599 164.39 18.0633C164.599 17.7513 164.729 17.4003 164.77 17.0361C164.779 16.9427 164.783 16.8572 164.783 16.7792C164.794 16.608 164.75 16.4376 164.657 16.2891C164.642 16.2612 164.621 16.2371 164.593 16.2191C164.466 16.0947 164.175 16.0324 163.719 16.0323C163.584 16.0323 163.436 16.0363 163.276 16.044C163.048 16.0518 162.769 16.0751 162.44 16.114L162.25 16.1373L162.073 16.1606C161.985 16.1738 161.896 16.1816 161.807 16.184C161.723 16.1919 161.639 16.1958 161.554 16.1958C161.478 16.1958 161.402 16.1919 161.326 16.184C161.199 16.1919 161.077 16.1958 160.959 16.1958C160.578 16.2157 160.197 16.1508 159.849 16.0065C159.5 15.8623 159.195 15.643 158.958 15.367C158.498 14.7733 158.27 14.053 158.312 13.3244C158.312 13.2155 158.316 13.1066 158.325 12.9976V12.9159C158.326 12.8574 158.33 12.7989 158.338 12.7408V12.6008L158.35 12.6125C158.459 11.5328 158.864 10.4965 159.528 9.60109C159.909 9.08159 160.412 8.64738 160.999 8.33029C161.587 8.0132 162.243 7.82128 162.922 7.76859C163.023 7.761 163.129 7.75712 163.238 7.75693C163.449 7.75693 163.685 7.76859 163.948 7.79191C164.418 7.82657 164.884 7.90083 165.34 8.01378C166.514 8.33296 167.202 8.87375 167.405 9.63613C167.429 9.78688 167.442 9.93901 167.443 10.0914V10.1148C167.444 10.2408 167.427 10.3665 167.392 10.4882L167.367 10.5816L167.354 10.6049C167.294 10.7667 167.176 10.9047 167.019 10.996C166.863 11.0874 166.677 11.1265 166.493 11.1068C166.4 11.1153 166.307 11.1051 166.22 11.0769C166.132 11.0486 166.053 11.003 165.986 10.9433C165.957 10.9227 165.935 10.8942 165.923 10.8617C165.893 10.7933 165.867 10.7231 165.847 10.6516L165.834 10.5465L165.809 10.4299V10.4182L165.783 10.3481V10.3248C165.75 10.1673 165.665 10.023 165.541 9.91055C165.417 9.79811 165.258 9.72282 165.087 9.6945C165.004 9.67912 164.919 9.6713 164.834 9.67117C164.538 9.67695 164.248 9.74483 163.986 9.86963C163.624 10.0117 163.324 10.2627 163.137 10.5816C162.887 11.0406 162.716 11.5328 162.63 12.0405L162.618 12.1221L162.605 12.2038V12.4139C162.611 12.5687 162.654 12.7203 162.732 12.8576C162.934 13.2156 163.382 13.4218 164.074 13.4763L164.403 13.4996H164.39C165.347 13.5085 166.293 13.6867 167.176 14.0247L167.24 14.0481L167.303 14.0832C167.362 14.1143 167.421 14.1493 167.48 14.1882C167.633 14.282 167.773 14.3917 167.898 14.515C168.276 14.8848 168.543 15.3394 168.671 15.8337Z" fill="#2F2E41"/>
<path d="M22.4977 4.56832H21.646C19.7843 4.56832 18.1665 3.64043 17.9643 2.45533C17.8604 1.85026 16.7574 1.17636 15.3395 1.17636H10.2815C8.87243 1.17636 7.79921 1.84278 7.71737 2.44051C7.55409 3.63358 5.96115 4.56832 4.09087 4.56832H3.41006C2.79288 4.56892 2.20117 4.79515 1.76473 5.19737C1.32829 5.59959 1.08277 6.14495 1.08203 6.71381V15.0579C1.08283 15.6267 1.32838 16.172 1.76482 16.5742C2.20125 16.9763 2.79293 17.2025 3.41006 17.2031H8.12448V20.6091C8.07297 20.6071 7.99459 20.6051 7.89407 20.6051C6.90753 20.5934 5.93195 20.7967 5.04685 21.1985C4.6343 21.3927 4.2774 21.674 4.00527 22.0196C3.73315 22.3651 3.55351 22.7651 3.48101 23.1868C3.48048 23.5162 3.60062 23.8362 3.82199 24.095C4.04335 24.3537 4.35298 24.5359 4.70073 24.6122C5.32339 24.7533 5.96197 24.826 6.60316 24.8287C7.42112 24.852 8.23441 24.7069 8.9839 24.404C9.73339 24.1012 10.4002 23.6482 10.9359 23.078C11.0363 22.9713 11.1244 22.8554 11.1989 22.732C11.397 22.4045 11.5004 22.0355 11.4992 21.6604V17.2031H14.5501V21.6603C14.5483 22.0798 14.6783 22.4907 14.9243 22.8436C14.9811 22.9258 15.0443 23.0041 15.1133 23.078C15.649 23.6482 16.3158 24.1012 17.0653 24.4041C17.8148 24.7069 18.6281 24.852 19.4461 24.8288C20.0873 24.826 20.7259 24.7533 21.3486 24.6122C21.6979 24.5352 22.0086 24.3512 22.23 24.0905C22.4513 23.8297 22.5703 23.5075 22.5674 23.1764C22.4684 22.5831 22.1526 22.0386 21.6722 21.6332C20.5697 20.7007 18.8172 20.605 18.1554 20.605C18.0547 20.605 17.9764 20.6071 17.925 20.6091V17.2031H22.4977C23.1148 17.2025 23.7064 16.9763 24.1428 16.5741C24.5792 16.1719 24.8247 15.6267 24.8254 15.0579V6.71381C24.8247 6.14499 24.5793 5.59964 24.1429 5.19742C23.7065 4.7952 23.1148 4.56896 22.4977 4.56832ZM12.9538 15.7551C11.7567 15.7551 10.5865 15.428 9.59122 14.815C8.59589 14.202 7.82012 13.3308 7.362 12.3114C6.90388 11.2921 6.784 10.1704 7.01751 9.08826C7.25102 8.00611 7.82744 7.01209 8.67387 6.23189C9.52029 5.45169 10.5987 4.92036 11.7728 4.70508C12.9468 4.48981 14.1638 4.60026 15.2697 5.02247C16.3757 5.44468 17.3209 6.15969 17.986 7.07708C18.6511 7.99446 19.0061 9.07302 19.0061 10.1764C19.0043 11.6554 18.366 13.0733 17.2314 14.1192C16.0968 15.165 14.5584 15.7534 12.9538 15.7551Z" fill="#2F2E41"/>
<path d="M12.9538 5.58459C11.9684 5.58458 11.0052 5.85388 10.186 6.35843C9.36667 6.86299 8.72812 7.58014 8.35104 8.4192C7.97396 9.25826 7.8753 10.1815 8.06753 11.0723C8.25975 11.963 8.73424 12.7812 9.43097 13.4234C10.1277 14.0656 11.0154 14.503 11.9818 14.6801C12.9482 14.8573 13.9499 14.7664 14.8602 14.4188C15.7706 14.0712 16.5486 13.4827 17.096 12.7275C17.6434 11.9724 17.9356 11.0846 17.9356 10.1764C17.9341 8.95895 17.4088 7.79179 16.4748 6.93096C15.5409 6.07013 14.2746 5.58593 12.9538 5.58459ZM13.0242 13.5907C12.4448 13.5904 11.8735 13.4649 11.3563 13.2242C10.839 12.9836 10.3901 12.6345 10.0458 12.205C9.70137 11.7755 9.47104 11.2775 9.37327 10.7511C9.27549 10.2247 9.31299 9.6845 9.48275 9.17387C9.27402 8.93456 9.16126 8.6362 9.16353 8.32916C9.1658 8.02211 9.28295 7.72519 9.4952 7.48853C9.70745 7.25187 10.0018 7.08996 10.3285 7.03015C10.6553 6.97033 10.9944 7.01627 11.2887 7.16021C11.7857 6.91732 12.3361 6.78194 12.8983 6.76435C13.4605 6.74677 14.0197 6.84743 14.5334 7.05871C15.0471 7.26999 15.5018 7.58633 15.8631 7.98374C16.2244 8.38115 16.4827 8.84918 16.6185 9.35233C16.7543 9.85547 16.764 10.3805 16.6468 10.8876C16.5297 11.3947 16.2887 11.8706 15.9423 12.2791C15.5959 12.6876 15.1531 13.018 14.6475 13.2453C14.1419 13.4725 13.5868 13.5906 13.0242 13.5907Z" fill="#EBB268"/>
<path d="M22.4983 3.5816H21.6466C20.2292 3.5816 19.1262 2.90707 19.0223 2.30186C18.8203 1.11715 17.203 0.18927 15.3403 0.18927H10.2823C8.41222 0.18927 6.81919 1.12398 6.65603 2.3169C6.57435 2.91514 5.50081 3.58168 4.09155 3.58168H3.41069C2.50969 3.58258 1.64586 3.91285 1.0087 4.50003C0.371548 5.08721 0.0130901 5.88336 0.0119629 6.71383V15.0579C0.0130656 15.8884 0.371513 16.6846 1.00867 17.2718C1.64583 17.859 2.50967 18.1892 3.41069 18.1901H6.98911V19.6618C6.10721 19.731 5.24897 19.9607 4.46407 20.3377C3.91085 20.6031 3.43259 20.984 3.06742 21.45C2.70224 21.9161 2.46027 22.4543 2.36079 23.0218L2.34564 23.1036V23.1867C2.34452 23.7367 2.54485 24.2709 2.91417 24.7029C3.2835 25.1348 3.80021 25.4392 4.38062 25.5668C5.08518 25.7261 5.80773 25.808 6.53318 25.8107C7.50354 25.8366 8.46795 25.6628 9.35625 25.3019C10.2446 24.941 11.0344 24.4021 11.6683 23.7245C11.8171 23.5667 11.9478 23.3951 12.0584 23.2125C12.3454 22.738 12.4957 22.2036 12.4948 21.6603V18.1901H13.4148V21.6603C13.4126 22.2692 13.602 22.8655 13.96 23.3772C14.0445 23.4991 14.1386 23.6151 14.2414 23.7244C14.8752 24.4021 15.665 24.941 16.5533 25.3019C17.4415 25.6628 18.4059 25.8366 19.3762 25.8107C20.1016 25.808 20.8241 25.7261 21.5285 25.5668C22.1105 25.4379 22.6281 25.1316 22.9974 24.6975C23.3667 24.2634 23.566 23.727 23.563 23.1753L23.5628 23.0926L23.5477 23.0112C23.4098 22.2029 22.9778 21.4619 22.3226 20.9099C21.3004 20.0452 19.9041 19.7547 18.9203 19.6628V18.1901H22.4983C23.3993 18.1892 24.2631 17.8589 24.9002 17.2717C25.5372 16.6845 25.8956 15.8883 25.8966 15.0579V6.71383C25.8956 5.88339 25.5372 5.08722 24.9002 4.50001C24.2631 3.9128 23.3993 3.58251 22.4983 3.5816ZM24.8261 15.0579C24.8253 15.6267 24.5798 16.172 24.1434 16.5741C23.707 16.9763 23.1154 17.2025 22.4983 17.2031H17.9256V20.6092C17.9771 20.6071 18.0552 20.6051 18.156 20.6051C18.8178 20.6051 20.5704 20.7007 21.6729 21.6333C22.1532 22.0387 22.469 22.5831 22.5681 23.1764C22.5709 23.5075 22.4519 23.8296 22.2306 24.0904C22.0092 24.3511 21.6986 24.535 21.3493 24.6121C20.7266 24.7532 20.088 24.8259 19.4468 24.8286C18.6288 24.8519 17.8155 24.7068 17.066 24.4039C16.3165 24.1011 15.6497 23.6481 15.114 23.0778C15.045 23.004 14.9818 22.9257 14.925 22.8435C14.679 22.4906 14.5491 22.0797 14.5508 21.6603V17.2031H11.4999V21.6603C11.5011 22.0354 11.3977 22.4044 11.1996 22.7319C11.1252 22.8553 11.037 22.9712 10.9366 23.0779C10.4009 23.6481 9.73411 24.1011 8.98462 24.4039C8.23513 24.7068 7.42184 24.8519 6.60388 24.8286C5.96269 24.8259 5.3241 24.7532 4.70144 24.6121C4.3537 24.5358 4.04407 24.3536 3.8227 24.0949C3.60132 23.8362 3.48116 23.5162 3.48166 23.1867C3.55416 22.765 3.7338 22.3651 4.00593 22.0196C4.27805 21.674 4.63495 21.3927 5.04751 21.1985C5.93259 20.7967 6.90815 20.5934 7.89467 20.6051C7.99518 20.6051 8.07366 20.6071 8.12507 20.6091V17.2031H3.41069C2.79355 17.2025 2.20187 16.9763 1.76543 16.5742C1.329 16.172 1.08345 15.6267 1.08266 15.0579V6.71383C1.08339 6.14496 1.32891 5.5996 1.76535 5.19738C2.20179 4.79516 2.79351 4.56893 3.41069 4.56833H4.09174C5.96202 4.56833 7.55496 3.63359 7.71824 2.44052C7.80008 1.84279 8.87331 1.17637 10.2824 1.17637H15.3404C16.7583 1.17637 17.8613 1.85028 17.9652 2.45534C18.1673 3.64045 19.7851 4.56833 21.6468 4.56833H22.4986C23.1157 4.56897 23.7074 4.79522 24.1438 5.19743C24.5801 5.59965 24.8256 6.145 24.8263 6.71383L24.8261 15.0579Z" fill="#0F2446"/>
<path d="M12.9538 4.59787C11.7567 4.59785 10.5865 4.92501 9.5912 5.53799C8.59587 6.15096 7.82009 7.02222 7.36198 8.04159C6.90388 9.06095 6.78401 10.1826 7.01754 11.2648C7.25107 12.3469 7.82751 13.341 8.67396 14.1212C9.52041 14.9013 10.5989 15.4327 11.7729 15.6479C12.947 15.8632 14.1639 15.7527 15.2699 15.3304C16.3758 14.9082 17.3211 14.1931 17.9861 13.2757C18.6512 12.3583 19.0061 11.2797 19.0061 10.1764C19.0042 8.69738 18.366 7.27947 17.2314 6.23367C16.0967 5.18787 14.5584 4.59959 12.9538 4.59787ZM12.9538 14.7684C11.9685 14.7684 11.0053 14.4991 10.186 13.9945C9.36672 13.49 8.72816 12.7729 8.35108 11.9338C7.974 11.0948 7.87532 10.1715 8.06752 9.28074C8.25973 8.39001 8.73419 7.5718 9.4309 6.9296C10.1276 6.2874 11.0153 5.85005 11.9817 5.67285C12.9481 5.49566 13.9497 5.58657 14.8601 5.9341C15.7704 6.28163 16.5485 6.87016 17.0959 7.62528C17.6433 8.3804 17.9356 9.26818 17.9356 10.1764C17.9341 11.3938 17.4088 12.561 16.4749 13.4218C15.5409 14.2827 14.2746 14.7669 12.9538 14.7683V14.7684Z" fill="#0F2446"/>
<path d="M13.0242 6.76239C12.419 6.76171 11.823 6.89835 11.2886 7.16024C11.4787 7.25288 11.6439 7.38337 11.7724 7.54224C11.9009 7.70112 11.9894 7.88437 12.0314 8.0787C12.0734 8.27303 12.068 8.47355 12.0154 8.66569C11.9629 8.85782 11.8645 9.03676 11.7276 9.18948C11.5906 9.34221 11.4184 9.4649 11.2236 9.54862C11.0287 9.63235 10.8161 9.67502 10.6011 9.67353C10.3861 9.67203 10.1742 9.62642 9.98076 9.54C9.7873 9.45357 9.61716 9.32851 9.4827 9.1739C9.25365 9.86091 9.26564 10.597 9.51696 11.2774C9.76828 11.9577 10.2461 12.5477 10.8824 12.9631C11.5187 13.3786 12.281 13.5984 13.0607 13.5912C13.8404 13.584 14.5978 13.3503 15.225 12.9232C15.8521 12.4961 16.3171 11.8976 16.5537 11.2127C16.7902 10.5279 16.7863 9.79168 16.5424 9.10902C16.2986 8.42636 15.8272 7.83203 15.1955 7.41069C14.5638 6.98934 13.8039 6.76247 13.0242 6.76239H13.0242Z" fill="#0F2446"/>
<path d="M10.611 9.67318C10.9396 9.67354 11.2586 9.57096 11.5157 9.38225C11.7727 9.19354 11.9525 8.92991 12.0257 8.63461C12.0988 8.33931 12.0609 8.02986 11.9181 7.75704C11.7754 7.48421 11.5363 7.2642 11.24 7.13309C10.9438 7.00198 10.608 6.96756 10.2877 7.03548C9.96749 7.10339 9.68178 7.26961 9.47749 7.50686C9.27319 7.74412 9.16244 8.03832 9.1634 8.34122C9.16436 8.64411 9.27697 8.93772 9.48276 9.17387C9.6183 9.3296 9.79004 9.4553 9.9853 9.54171C10.1806 9.62813 10.3944 9.67306 10.611 9.67318Z" fill="white"/>
</svg>
